{
.appVersion = "3108";
.formatVersion = 3;
DisplayStrings = (
"not defi/.notdef"
);
classes = (
{
automatic = 1;
code = "A Aacute Abreve Acaron Acircumflex Adieresis Agrave Amacron Aogonek Aring Aringacute Atilde AE AEacute B C Cacute Ccaron Ccedilla Ccircumflex Cdotaccent D Eth Dcaron Dcroat E Eacute Ebreve Ecaron Ecircumflex Edieresis Edotaccent Egrave Emacron Eogonek F G Gbreve Gcircumflex Gcommaaccent Gdotaccent H Hbar Hcircumflex I IJ Iacute Ibreve Icircumflex Idieresis Idotaccent Igrave Imacron Iogonek Itilde J Jcircumflex K Kcommaaccent L Lacute Lcaron Lcommaaccent Ldot Lslash M N Nacute Ncaron Ncommaaccent Ntilde Eng O Oacute Obreve Ocircumflex Odieresis Ograve Ohungarumlaut Omacron Oslash Oslashacute Otilde OE P Thorn Q R Racute Rcaron Rcommaaccent S Sacute Scaron Scedilla Scircumflex Scommaaccent T Tbar Tcaron Tcedilla Tcommaaccent U Uacute Ubreve Ucircumflex Udieresis Ugrave Uhungarumlaut Umacron Uogonek Uring Utilde V W Wacute Wcircumflex Wdieresis Wgrave X Y Yacute Ycircumflex Ydieresis Ygrave Z Zacute Zcaron Zdotaccent Delta uni03A9";
name = Uppercase;
}
);
customParameters = (
{
name = panose;
value = (
2,
0,
5,
3,
6,
0,
0,
2,
0,
4
);
},
{
name = "Use Typo Metrics";
value = 1;
},
{
name = fsType;
value = (
);
}
);
date = "2012-03-30 07:39:34 +0000";
familyName = Paprika;
featurePrefixes = (
{
code = "languagesystem DFLT dflt;
languagesystem latn dflt; # Latin default
";
name = Languagesystems;
}
);
features = (
{
automatic = 1;
code = "feature locl;
feature subs;
feature sinf;
feature sups;
feature frac;
feature ordn;
feature case;
";
tag = aalt;
},
{
automatic = 1;
code = "lookup ccmp_Other_1 {
	@CombiningTopAccents = [acutecomb brevecomb caroncomb circumflexcomb commaturnedabovecomb dieresiscomb dotaccentcomb gravecomb hungarumlautcomb macroncomb ringcomb tildecomb];
	@CombiningNonTopAccents = [cedillacomb ogonekcomb];
	sub [i j]' @CombiningTopAccents by [idotless jdotless];

glyphs = (
{
glyphname = A;
lastChange = "2022-03-30 08:26:38 +0000";
layers = (
{
anchors = (
{
name = bottom;
pos = (329,0);
},
{
name = ogonek;
pos = (591,10);
},
{
name = top;
pos = (416,889);
}
);
background = {
shapes = (
{
closed = 1;
nodes = (
(527,344,o),
(528,671,o),
(490,793,cs),
(466,871,o),
(439,889,o),
(378,889,cs),
(356,889,o),
(327,875,o),
(314,866,c),
(316,858,o),
(317,850,o),
(317,841,cs),
(317,808,o),
(305,770,o),
(292,731,cs),
(236,563,o),
(62,246,o),
(22,125,cs),
(11,90,o),
(5,63,o),
(5,43,cs),
(5,6,o),
(23,-7,o),
(51,-7,cs),
(68,-7,o),
(100,0,o),
(119,29,c),
(110,43,o),
(107,60,o),
(107,77,cs),
(107,138,o),
(135,203,o),
(158,255,c),
(451,255,l),
(458,197,o),
(466,148,o),
(476,115,cs),
(507,14,o),
(542,-7,o),
(604,-7,cs),
(620,-7,o),
(654,0,o),
(667,29,c),
(623,65,o),
(596,104,o),
(581,156,cs,{
name = hr00;
})
);
},
{
closed = 1;
nodes = (
(417,632,o),
(430,464,o),
(444,323,c),
(188,323,l),
(255,470,o),
(343,635,o),
(386,737,c)
);
}
);
};
layerId = master01;
shapes = (
{
closed = 1;
nodes = (
(68,-7,o),
(100,0,o),
(119,29,c),
(110,43,o),
(107,60,o),
(107,77,cs),
(107,138,o),
(135,203,o),
(158,255,c),
(451,255,l),
(458,197,o),
(466,148,o),
(476,115,cs),
(507,14,o),
(542,-7,o),
(604,-7,cs),
(620,-7,o),
(654,0,o),
(667,29,c),
(623,65,o),
(596,104,o),
(581,156,cs,{
name = hr00;
}),
(527,344,o),
(528,671,o),
(490,793,cs),
(466,871,o),
(439,889,o),
(378,889,cs),
(356,889,o),
(327,875,o),
(314,866,c),
(316,858,o),
(317,850,o),
(317,841,cs),
(317,808,o),
(305,770,o),
(292,731,cs),
(236,563,o),
(62,246,o),
(22,125,cs),
(11,90,o),
(5,63,o),
(5,43,cs),
(5,6,o),
(23,-7,o),
(51,-7,cs)
);
},
{
closed = 1;
nodes = (
(255,470,o),
(343,635,o),
(386,737,c),
(417,632,o),
(430,464,o),
(444,323,c),
(188,323,l)
);
}
);
width = 657;
}
);
unicode = 65;
},
{
glyphname = Aacute;
lastChange = "2022-03-30 08:12:59 +0000";
layers = (
{
background = {
shapes = (
{
closed = 1;
nodes = (
(417,632,o),
(430,464,o),
(444,323,c),
(188,323,l),
(255,470,o),
(343,635,o),
(386,737,c)
);
},
{
closed = 1;
nodes = (
(542,1042,o),
(548,1048,o),
(548,1061,cs),
(548,1073,o),
(535,1089,o),
(491,1089,cs),
(478,1089,o),
(463,1088,o),
(444,1084,c),
(427,1053,o),
(393,1021,o),
(284,939,c),
(293,921,o),
(303,911,o),
(311,911,cs),
(331,911,o),
(439,969,o),
(511,1020,cs)
);
},
{
closed = 1;
nodes = (
(527,344,o),
(528,671,o),
(490,793,cs),
(466,871,o),
(439,889,o),
(378,889,cs),
(356,889,o),
(327,875,o),
(314,866,c),
(316,858,o),
(317,850,o),
(317,841,cs),
(317,808,o),
(305,770,o),
(292,731,cs),
(236,563,o),
(62,246,o),
(22,125,cs),
(11,90,o),
(5,63,o),
(5,43,cs),
(5,6,o),
(23,-7,o),
(51,-7,cs),
(68,-7,o),
(100,0,o),
(119,29,c),
(110,43,o),
(107,60,o),
(107,77,cs),
(107,138,o),
(135,203,o),
(158,255,c),
(451,255,l),
(458,197,o),
(466,148,o),
(476,115,cs),
(507,14,o),
(542,-7,o),
(604,-7,cs),
(620,-7,o),
(654,0,o),
(667,29,c),
(623,65,o),
(596,104,o),
(581,156,cs)
);
},
{
closed = 1;
nodes = (
(527,344,o),
(528,671,o),
(490,793,cs),
(466,871,o),
(439,889,o),
(378,889,cs),
(356,889,o),
(327,875,o),
(314,866,c),
(316,858,o),
(317,850,o),
(317,841,cs),
(317,808,o),
(305,770,o),
(292,731,cs),
(236,563,o),
(62,246,o),
(22,125,cs),
(11,90,o),
(5,63,o),
(5,43,cs),
(5,6,o),
(23,-7,o),
(51,-7,cs),
(68,-7,o),
(100,0,o),
(119,29,c),
(110,43,o),
(107,60,o),
(107,77,cs),
(107,138,o),
(135,203,o),
(158,255,c),
(451,255,l),
(458,197,o),
(466,148,o),
(476,115,cs),
(507,14,o),
(542,-7,o),
(604,-7,cs),
(620,-7,o),
(654,0,o),
(667,29,c),
(623,65,o),
(596,104,o),
(581,156,cs,{
name = hr00;
})
);
},
{
closed = 1;
nodes = (
(417,632,o),
(430,464,o),
(444,323,c),
(188,323,l),
(255,470,o),
(343,635,o),
(386,737,c)
);
},
{
closed = 1;
nodes = (
(542,1042,o),
(548,1048,o),
(548,1061,cs),
(548,1073,o),
(535,1089,o),
(491,1089,cs),
(478,1089,o),
(463,1088,o),
(444,1084,c),
(427,1053,o),
(393,1021,o),
(284,939,c),
(293,921,o),
(303,911,o),
(311,911,cs),
(331,911,o),
(439,969,o),
(511,1020,cs,{
name = hr00;
})
);
}
);
};
layerId = master01;
shapes = (
{
ref = A;
},
{
pos = (167,0);
ref = acutecomb.case;
}
);
width = 657;
}
);
unicode = 193;
},
{
glyphname = Abreve;
lastChange = "2022-03-30 08:37:26 +0000";
layers = (
{
background = {
shapes = (
{
closed = 1;
nodes = (
(527,344,o),
(528,671,o),
(490,793,cs),
(466,871,o),
(439,889,o),
(378,889,cs),
(356,889,o),
(327,875,o),
(314,866,c),
(316,858,o),
(317,850,o),
(317,841,cs),
(317,808,o),
(305,770,o),
(292,731,cs),
(236,563,o),
(62,246,o),
(22,125,cs),
(11,90,o),
(5,63,o),
(5,43,cs),
(5,6,o),
(23,-7,o),
(51,-7,cs),
(68,-7,o),
(100,0,o),
(119,29,c),
(110,43,o),
(107,60,o),
(107,77,cs),
(107,138,o),
(135,203,o),
(158,255,c),
(451,255,l),
(458,197,o),
(466,148,o),
(476,115,cs),
(507,14,o),
(542,-7,o),
(604,-7,cs),
(620,-7,o),
(654,0,o),
(667,29,c),
(623,65,o),
(596,104,o),
(581,156,cs,{
name = hr00;
})
);
},
{
closed = 1;
nodes = (
(417,632,o),
(430,464,o),
(444,323,c),
(188,323,l),
(255,470,o),
(343,635,o),
(386,737,c)
);
},
{
closed = 1;
nodes = (
(280,1089,o),
(261,1079,o),
(251,1061,c),
(292,969,o),
(325,911,o),
(402,911,cs),
(479,911,o),
(517,961,o),
(581,1061,c),
(571,1079,o),
(551,1089,o),
(544,1089,cs),
(527,1089,o),
(476,987,o),
(404,987,cs),
(337,987,o),
(307,1089,o),
(288,1089,cs,{
name = hr00;
})
);
}
);
};
layerId = master01;
shapes = (
{
ref = A;
},
{
pos = (231,0);
ref = brevecomb.case;
}
);
width = 657;
}
);
unicode = 258;
},
{
glyphname = Acaron;
lastChange = "2022-03-30 11:11:05 +0000";
layers = (
{
background = {
shapes = (
{
closed = 1;
nodes = (
(527,344,o),
(528,671,o),
(490,793,cs),
(466,871,o),
(439,889,o),
(378,889,cs),
(356,889,o),
(327,875,o),
(314,866,c),
(316,858,o),
(317,850,o),
(317,841,cs),
(317,808,o),
(305,770,o),
(292,731,cs),
(236,563,o),
(62,246,o),
(22,125,cs),
(11,90,o),
(5,63,o),
(5,43,cs),
(5,6,o),
(23,-7,o),
(51,-7,cs),
(68,-7,o),
(100,0,o),
(119,29,c),
(110,43,o),
(107,60,o),
(107,77,cs),
(107,138,o),
(135,203,o),
(158,255,c),
(451,255,l),
(458,197,o),
(466,148,o),
(476,115,cs),
(507,14,o),
(542,-7,o),
(604,-7,cs),
(620,-7,o),
(654,0,o),
(667,29,c),
(623,65,o),
(596,104,o),
(581,156,cs,{
name = hr00;
})
);
},
{
closed = 1;
nodes = (
(417,632,o),
(430,464,o),
(444,323,c),
(188,323,l),
(255,470,o),
(343,635,o),
(386,737,c)
);
}
);
};
layerId = master01;
shapes = (
{
ref = A;
},
{
pos = (225,0);
ref = caroncomb.case;
}
);
width = 657;
}
);
unicode = 461;
},
{
glyphname = Acircumflex;
lastChange = "2022-03-30 08:16:42 +0000";
layers = (
{
background = {
shapes = (
{
closed = 1;
nodes = (
(417,632,o),
(430,464,o),
(444,323,c),
(188,323,l),
(255,470,o),
(343,635,o),
(386,737,c)
);
},
{
closed = 1;
nodes = (
(545,911,o),
(555,921,o),
(564,939,c),
(501,1001,o),
(464,1065,o),
(455,1078,c),
(444,1086,o),
(424,1089,o),
(404,1089,cs),
(387,1089,o),
(371,1087,o),
(361,1084,c),
(344,1053,o),
(324,1021,o),
(215,939,c),
(225,921,o),
(235,911,o),
(242,911,cs),
(259,911,o),
(336,957,o),
(401,1002,c),
(471,946,o),
(518,911,o),
(537,911,cs)
);
},
{
closed = 1;
nodes = (
(527,344,o),
(528,671,o),
(490,793,cs),
(466,871,o),
(439,889,o),
(378,889,cs),
(356,889,o),
(327,875,o),
(314,866,c),
(316,858,o),
(317,850,o),
(317,841,cs),
(317,808,o),
(305,770,o),
(292,731,cs),
(236,563,o),
(62,246,o),
(22,125,cs),
(11,90,o),
(5,63,o),
(5,43,cs),
(5,6,o),
(23,-7,o),
(51,-7,cs),
(68,-7,o),
(100,0,o),
(119,29,c),
(110,43,o),
(107,60,o),
(107,77,cs),
(107,138,o),
(135,203,o),
(158,255,c),
(451,255,l),
(458,197,o),
(466,148,o),
(476,115,cs),
(507,14,o),
(542,-7,o),
(604,-7,cs),
(620,-7,o),
(654,0,o),
(667,29,c),
(623,65,o),
(596,104,o),
(581,156,cs)
);
},
{
closed = 1;
nodes = (
(527,344,o),
(528,671,o),
(490,793,cs),
(466,871,o),
(439,889,o),
(378,889,cs),
(356,889,o),
(327,875,o),
(314,866,c),
(316,858,o),
(317,850,o),
(317,841,cs),
(317,808,o),
(305,770,o),
(292,731,cs),
(236,563,o),
(62,246,o),
(22,125,cs),
(11,90,o),
(5,63,o),
(5,43,cs),
(5,6,o),
(23,-7,o),
(51,-7,cs),
(68,-7,o),
(100,0,o),
(119,29,c),
(110,43,o),
(107,60,o),
(107,77,cs),
(107,138,o),
(135,203,o),
(158,255,c),
(451,255,l),
(458,197,o),
(466,148,o),
(476,115,cs),
(507,14,o),
(542,-7,o),
(604,-7,cs),
(620,-7,o),
(654,0,o),
(667,29,c),
(623,65,o),
(596,104,o),
(581,156,cs,{
name = hr00;
})
);
},
{
closed = 1;
nodes = (
(417,632,o),
(430,464,o),
(444,323,c),
(188,323,l),
(255,470,o),
(343,635,o),
(386,737,c)
);
},
{
closed = 1;
nodes = (
(544,911,o),
(554,921,o),
(563,939,c),
(500,1001,o),
(463,1065,o),
(454,1078,c),
(443,1086,o),
(423,1089,o),
(403,1089,cs),
(386,1089,o),
(370,1087,o),
(360,1084,c),
(343,1053,o),
(323,1021,o),
(214,939,c),
(224,921,o),
(234,911,o),
(241,911,cs),
(258,911,o),
(335,957,o),
(400,1002,c),
(470,946,o),
(517,911,o),
(536,911,cs,{
name = hr00;
})
);
}
);
};
layerId = master01;
shapes = (
{
ref = A;
},
{
pos = (193,0);
ref = circumflexcomb.case;
}
);
width = 657;
}
);
unicode = 194;
},
{
glyphname = Adieresis;
lastChange = "2022-03-30 08:24:07 +0000";
layers = (
{
background = {
shapes = (
{
closed = 1;
nodes = (
(350,1043,o),
(323,1055,o),
(292,1055,cs),
(270,1055,o),
(247,1047,o),
(223,1032,c),
(218,1008,o),
(216,989,o),
(216,975,cs),
(216,943,o),
(230,928,o),
(270,928,cs),
(291,928,o),
(315,936,o),
(339,951,c),
(346,977,o),
(350,997,o),
(350,1012,cs)
);
},
{
closed = 1;
nodes = (
(584,1043,o),
(557,1055,o),
(526,1055,cs),
(504,1055,o),
(482,1047,o),
(457,1032,c),
(453,1008,o),
(450,989,o),
(450,975,cs),
(450,943,o),
(464,928,o),
(504,928,cs),
(525,928,o),
(549,936,o),
(573,951,c),
(581,977,o),
(584,997,o),
(584,1012,cs)
);
},
{
closed = 1;
nodes = (
(527,344,o),
(528,671,o),
(490,793,cs),
(466,871,o),
(439,889,o),
(378,889,cs),
(356,889,o),
(327,875,o),
(314,866,c),
(316,858,o),
(317,850,o),
(317,841,cs),
(317,808,o),
(305,770,o),
(292,731,cs),
(236,563,o),
(62,246,o),
(22,125,cs),
(11,90,o),
(5,63,o),
(5,43,cs),
(5,6,o),
(23,-7,o),
(51,-7,cs),
(68,-7,o),
(100,0,o),
(119,29,c),
(110,43,o),
(107,60,o),
(107,77,cs),
(107,138,o),
(135,203,o),
(158,255,c),
(451,255,l),
(458,197,o),
(466,148,o),
(476,115,cs),
(507,14,o),
(542,-7,o),
(604,-7,cs),
(620,-7,o),
(654,0,o),
(667,29,c),
(623,65,o),
(596,104,o),
(581,156,cs)
);
},
{
closed = 1;
nodes = (
(417,632,o),
(430,464,o),
(444,323,c),
(188,323,l),
(255,470,o),
(343,635,o),
(386,737,c)
);
},
{
closed = 1;
nodes = (
(527,344,o),
(528,671,o),
(490,793,cs),
(466,871,o),
(439,889,o),
(378,889,cs),
(356,889,o),
(327,875,o),
(314,866,c),
(316,858,o),
(317,850,o),
(317,841,cs),
(317,808,o),
(305,770,o),
(292,731,cs),
(236,563,o),
(62,246,o),
(22,125,cs),
(11,90,o),
(5,63,o),
(5,43,cs),
(5,6,o),
(23,-7,o),
(51,-7,cs),
(68,-7,o),
(100,0,o),
(119,29,c),
(110,43,o),
(107,60,o),
(107,77,cs),
(107,138,o),
(135,203,o),
(158,255,c),
(451,255,l),
(458,197,o),
(466,148,o),
(476,115,cs),
(507,14,o),
(542,-7,o),
(604,-7,cs),
(620,-7,o),
(654,0,o),
(667,29,c),
(623,65,o),
(596,104,o),
(581,156,cs,{
name = hr00;
})
);
},
{
closed = 1;
nodes = (
(417,632,o),
(430,464,o),
(444,323,c),
(188,323,l),
(255,470,o),
(343,635,o),
(386,737,c)
);
},
{
closed = 1;
nodes = (
(350,1043,o),
(323,1055,o),
(292,1055,cs),
(270,1055,o),
(247,1047,o),
(223,1032,c),
(218,1008,o),
(216,989,o),
(216,975,cs),
(216,943,o),
(230,928,o),
(270,928,cs),
(291,928,o),
(315,936,o),
(339,951,c),
(346,977,o),
(350,997,o),
(350,1012,cs,{
name = hr00;
})
);
},
{
closed = 1;
nodes = (
(584,1043,o),
(557,1055,o),
(526,1055,cs),
(504,1055,o),
(482,1047,o),
(457,1032,c),
(453,1008,o),
(450,989,o),
(450,975,cs),
(450,943,o),
(464,928,o),
(504,928,cs),
(525,928,o),
(549,936,o),
(573,951,c),
(581,977,o),
(584,997,o),
(584,1012,cs)
);
}
);
};
layerId = master01;
shapes = (
{
ref = A;
},
{
pos = (227,0);
ref = dieresiscomb.case;
}
);
width = 657;
}
);
unicode = 196;
},
{
glyphname = Agrave;
lastChange = "2022-03-30 08:12:59 +0000";
layers = (
{
background = {
shapes = (
{
closed = 1;
nodes = (
(394,969,o),
(503,911,o),
(523,911,cs),
(530,911,o),
(540,921,o),
(550,939,c),
(441,1021,o),
(406,1053,o),
(389,1084,c),
(370,1088,o),
(355,1089,o),
(342,1089,cs),
(298,1089,o),
(285,1073,o),
(285,1061,cs),
(285,1048,o),
(291,1042,o),
(322,1020,cs)
);
},
{
closed = 1;
nodes = (
(527,344,o),
(528,671,o),
(490,793,cs),
(466,871,o),
(439,889,o),
(378,889,cs),
(356,889,o),
(327,875,o),
(314,866,c),
(316,858,o),
(317,850,o),
(317,841,cs),
(317,808,o),
(305,770,o),
(292,731,cs),
(236,563,o),
(62,246,o),
(22,125,cs),
(11,90,o),
(5,63,o),
(5,43,cs),
(5,6,o),
(23,-7,o),
(51,-7,cs),
(68,-7,o),
(100,0,o),
(119,29,c),
(110,43,o),
(107,60,o),
(107,77,cs),
(107,138,o),
(135,203,o),
(158,255,c),
(451,255,l),
(458,197,o),
(466,148,o),
(476,115,cs),
(507,14,o),
(542,-7,o),
(604,-7,cs),
(620,-7,o),
(654,0,o),
(667,29,c),
(623,65,o),
(596,104,o),
(581,156,cs,{
name = hr00;
})
);
},
{
closed = 1;
nodes = (
(417,632,o),
(430,464,o),
(444,323,c),
(188,323,l),
(255,470,o),
(343,635,o),
(386,737,c)
);
},
{
closed = 1;
nodes = (
(394,969,o),
(503,911,o),
(523,911,cs),
(530,911,o),
(540,921,o),
(550,939,c),
(441,1021,o),
(406,1053,o),
(389,1084,c),
(370,1088,o),
(355,1089,o),
(342,1089,cs),
(298,1089,o),
(285,1073,o),
(285,1061,cs),
(285,1048,o),
(291,1042,o),
(322,1020,cs,{
name = hr00;
})
);
}
);
};
layerId = master01;
shapes = (
{
ref = A;
},
{
pos = (131,0);
ref = gravecomb.case;
}
);
width = 657;
}
);
unicode = 192;
},
{
glyphname = Amacron;
lastChange = "2022-03-30 08:12:59 +0000";
layers = (
{
background = {
shapes = (
{
closed = 1;
nodes = (
(527,344,o),
(528,671,o),
(490,793,cs),
(466,871,o),
(439,889,o),
(378,889,cs),
(356,889,o),
(327,875,o),
(314,866,c),
(316,858,o),
(317,850,o),
(317,841,cs),
(317,808,o),
(305,770,o),
(292,731,cs),
(236,563,o),
(62,246,o),
(22,125,cs),
(11,90,o),
(5,63,o),
(5,43,cs),
(5,6,o),
(23,-7,o),
(51,-7,cs),
(68,-7,o),
(100,0,o),
(119,29,c),
(110,43,o),
(107,60,o),
(107,77,cs),
(107,138,o),
(135,203,o),
(158,255,c),
(451,255,l),
(458,197,o),
(466,148,o),
(476,115,cs),
(507,14,o),
(542,-7,o),
(604,-7,cs),
(620,-7,o),
(654,0,o),
(667,29,c),
(623,65,o),
(596,104,o),
(581,156,cs,{
name = hr00;
})
);
},
{
closed = 1;
nodes = (
(417,632,o),
(430,464,o),
(444,323,c),
(188,323,l),
(255,470,o),
(343,635,o),
(386,737,c)
);
},
{
closed = 1;
nodes = (
(270,978,o),
(281,950,o),
(291,937,c),
(310,947,o),
(349,952,o),
(372,952,cs,{
name = hr01;
}),
(396,952,o),
(432,948,o),
(462,948,cs),
(532,948,o),
(556,970,o),
(556,1000,cs),
(556,1017,o),
(553,1032,o),
(542,1045,c,{
name = hr02;
}),
(522,1033,o),
(499,1026,o),
(471,1026,cs,{
name = hr03;
}),
(435,1026,o),
(360,1036,o),
(326,1036,cs),
(298,1036,o),
(270,1026,o),
(270,1000,cs)
);
}
);
};
layerId = master01;
shapes = (
{
ref = A;
},
{
pos = (209,0);
ref = macroncomb.case;
}
);
width = 657;
}
);
unicode = 256;
},
{
glyphname = Aogonek;
lastChange = "2022-03-30 08:26:38 +0000";
layers = (
{
background = {
shapes = (
{
closed = 1;
nodes = (
(527,344,o),
(528,671,o),
(490,793,cs),
(466,871,o),
(439,889,o),
(378,889,cs),
(356,889,o),
(327,875,o),
(314,866,c),
(316,858,o),
(317,850,o),
(317,841,cs),
(317,808,o),
(305,770,o),
(292,731,cs),
(236,563,o),
(62,246,o),
(22,125,cs),
(11,90,o),
(5,63,o),
(5,43,cs),
(5,6,o),
(23,-7,o),
(51,-7,cs),
(68,-7,o),
(100,0,o),
(119,29,c),
(110,43,o),
(107,60,o),
(107,77,cs),
(107,138,o),
(135,203,o),
(158,255,c),
(451,255,l),
(458,197,o),
(466,148,o),
(476,115,cs),
(507,14,o),
(542,-7,o),
(604,-7,cs),
(620,-7,o),
(654,0,o),
(667,29,c),
(623,65,o),
(596,104,o),
(581,156,cs,{
name = hr00;
})
);
},
{
closed = 1;
nodes = (
(417,632,o),
(430,464,o),
(444,323,c),
(188,323,l),
(255,470,o),
(343,635,o),
(386,737,c)
);
},
{
closed = 1;
nodes = (
(477,1,o),
(396,-66,o),
(396,-152,cs),
(396,-208,o),
(432,-264,o),
(509,-264,cs),
(588,-264,o),
(638,-215,o),
(638,-178,cs),
(638,-150,o),
(631,-136,o),
(616,-125,c),
(605,-172,o),
(560,-200,o),
(523,-200,cs),
(496,-200,o),
(474,-180,o),
(474,-145,cs),
(474,-118,o),
(478,-52,o),
(628,-3,c),
(628,48,l,{
name = hr00;
})
);
}
);
};
layerId = master01;
shapes = (
{
closed = 1;
nodes = (
(588,-264,o),
(638,-215,o),
(638,-178,cs),
(638,-150,o),
(631,-136,o),
(616,-125,c),
(605,-172,o),
(560,-200,o),
(523,-200,cs),
(496,-200,o),
(474,-180,o),
(474,-145,cs),
(474,-118,o),
(478,-52,o),
(628,-3,c),
(628,48,l,{
name = hr00;
}),
(477,1,o),
(396,-66,o),
(396,-152,cs),
(396,-208,o),
(432,-264,o),
(509,-264,cs)
);
},
{
ref = A;
}
);
width = 657;
}
);
unicode = 260;
},
{
glyphname = Aring;
lastChange = "2022-03-30 08:25:41 +0000";
layers = (
{
background = {
shapes = (
{
closed = 1;
nodes = (
(68,-7,o),
(100,0,o),
(119,29,c),
(110,43,o),
(107,60,o),
(107,77,cs),
(107,138,o),
(135,203,o),
(158,255,c),
(451,255,l),
(458,197,o),
(466,148,o),
(476,115,cs),
(507,14,o),
(542,-7,o),
(604,-7,cs),
(620,-7,o),
(654,0,o),
(667,29,c),
(623,65,o),
(596,104,o),
(581,156,cs,{
name = hr00;
}),
(525,343,o),
(528,671,o),
(490,793,cs),
(473,846,o),
(456,872,o),
(427,882,c),
(484,896,o),
(537,949,o),
(537,1032,cs),
(537,1129,o),
(456,1145,o),
(434,1145,cs),
(367,1145,o),
(294,1089,o),
(294,993,cs),
(294,928,o),
(330,899,o),
(361,887,c),
(343,883,o),
(324,873,o),
(314,866,c),
(316,858,o),
(317,850,o),
(317,841,cs),
(317,808,o),
(305,770,o),
(292,731,cs),
(236,563,o),
(62,246,o),
(22,125,cs),
(11,90,o),
(5,63,o),
(5,43,cs),
(5,6,o),
(23,-7,o),
(51,-7,cs)
);
},
{
closed = 1;
nodes = (
(255,470,o),
(343,635,o),
(386,737,c),
(417,632,o),
(430,464,o),
(444,323,c),
(188,323,l)
);
},
{
closed = 1;
nodes = (
(382,926,o),
(367,948,o),
(367,990,cs),
(367,1027,o),
(378,1099,o),
(419,1099,cs,{
name = hr00;
}),
(446,1099,o),
(461,1077,o),
(461,1034,cs),
(461,998,o),
(450,926,o),
(409,926,cs)
);
}
);
};
layerId = master01;
shapes = (
{
closed = 1;
nodes = (
(479,879,o),
(537,949,o),
(537,1032,cs),
(537,1129,o),
(456,1145,o),
(434,1145,cs),
(367,1145,o),
(294,1089,o),
(294,993,cs),
(294,928,o),
(339,879,o),
(396,879,cs)
);
},
{
ref = A;
},
{
closed = 1;
nodes = (
(382,926,o),
(367,948,o),
(367,990,cs),
(367,1027,o),
(378,1099,o),
(419,1099,cs,{
name = hr00;
}),
(446,1099,o),
(461,1077,o),
(461,1034,cs),
(461,998,o),
(450,926,o),
(409,926,cs)
);
}
);
width = 657;
}
);
unicode = 197;
},
{
glyphname = Aringacute;
lastChange = "2022-03-30 08:26:38 +0000";
layers = (
{
background = {
shapes = (
{
closed = 1;
nodes = (
(527,344,o),
(528,671,o),
(490,793,cs),
(466,871,o),
(439,889,o),
(378,889,cs),
(356,889,o),
(327,875,o),
(314,866,c),
(316,858,o),
(317,850,o),
(317,841,cs),
(317,808,o),
(305,770,o),
(292,731,cs),
(236,563,o),
(62,246,o),
(22,125,cs),
(11,90,o),
(5,63,o),
(5,43,cs),
(5,6,o),
(23,-7,o),
(51,-7,cs),
(68,-7,o),
(100,0,o),
(119,29,c),
(110,43,o),
(107,60,o),
(107,77,cs),
(107,138,o),
(135,203,o),
(158,255,c),
(451,255,l),
(458,197,o),
(466,148,o),
(476,115,cs),
(507,14,o),
(542,-7,o),
(604,-7,cs),
(620,-7,o),
(654,0,o),
(667,29,c),
(623,65,o),
(596,104,o),
(581,156,cs,{
name = hr00;
})
);
},
{
closed = 1;
nodes = (
(417,632,o),
(430,464,o),
(444,323,c),
(188,323,l),
(255,470,o),
(343,635,o),
(386,737,c)
);
},
{
closed = 1;
nodes = (
(368,1145,o),
(295,1093,o),
(295,1004,cs),
(295,915,o),
(376,899,o),
(399,899,cs),
(466,899,o),
(538,951,o),
(538,1040,cs),
(538,1071,o),
(528,1093,o),
(515,1108,c),
(544,1125,o),
(575,1144,o),
(601,1163,cs),
(628,1183,o),
(634,1188,o),
(634,1200,cs),
(634,1211,o),
(622,1225,o),
(583,1225,cs),
(571,1225,o),
(557,1224,o),
(540,1221,c),
(529,1200,o),
(509,1179,o),
(462,1141,c),
(451,1144,o),
(441,1145,o),
(435,1145,cs)
);
},
{
closed = 1;
nodes = (
(447,1099,o),
(462,1080,o),
(462,1042,cs),
(462,1010,o),
(451,946,o),
(410,946,cs),
(383,946,o),
(368,965,o),
(368,1003,cs),
(368,1035,o),
(379,1099,o),
(420,1099,cs)
);
}
);
};
layerId = master01;
shapes = (
{
closed = 1;
nodes = (
(466,899,o),
(538,951,o),
(538,1040,cs),
(538,1071,o),
(528,1093,o),
(515,1108,c),
(544,1125,o),
(575,1144,o),
(601,1163,cs),
(628,1183,o),
(634,1188,o),
(634,1200,cs),
(634,1211,o),
(622,1225,o),
(583,1225,cs),
(571,1225,o),
(557,1224,o),
(540,1221,c),
(529,1200,o),
(509,1179,o),
(462,1141,c),
(451,1144,o),
(441,1145,o),
(435,1145,cs),
(368,1145,o),
(295,1093,o),
(295,1004,cs),
(295,915,o),
(376,899,o),
(399,899,cs)
);
},
{
ref = A;
},
{
closed = 1;
nodes = (
(383,946,o),
(368,965,o),
(368,1003,cs),
(368,1035,o),
(379,1099,o),
(420,1099,cs),
(447,1099,o),
(462,1080,o),
(462,1042,cs),
(462,1010,o),
(451,946,o),
(410,946,cs)
);
}
);
width = 657;
}
);
unicode = 506;
},
{
glyphname = Atilde;
lastChange = "2022-03-30 08:12:59 +0000";
layers = (
{
background = {
shapes = (
{
closed = 1;
nodes = (
(417,632,o),
(430,464,o),
(444,323,c),
(188,323,l),
(255,470,o),
(343,635,o),
(386,737,c)
);
},
{
closed = 1;
nodes = (
(532,1027,o),
(510,1007,o),
(488,1007,cs),
(439,1007,o),
(421,1073,o),
(345,1073,cs),
(289,1073,o),
(246,1013,o),
(246,958,cs),
(246,931,o),
(268,926,o),
(290,926,c),
(297,973,o),
(319,993,o),
(341,993,cs),
(390,993,o),
(408,927,o),
(484,927,cs),
(540,927,o),
(583,987,o),
(583,1042,cs),
(583,1069,o),
(561,1074,o),
(539,1074,c)
);
},
{
closed = 1;
nodes = (
(527,344,o),
(528,671,o),
(490,793,cs),
(466,871,o),
(439,889,o),
(378,889,cs),
(356,889,o),
(327,875,o),
(314,866,c),
(316,858,o),
(317,850,o),
(317,841,cs),
(317,808,o),
(305,770,o),
(292,731,cs),
(236,563,o),
(62,246,o),
(22,125,cs),
(11,90,o),
(5,63,o),
(5,43,cs),
(5,6,o),
(23,-7,o),
(51,-7,cs),
(68,-7,o),
(100,0,o),
(119,29,c),
(110,43,o),
(107,60,o),
(107,77,cs),
(107,138,o),
(135,203,o),
(158,255,c),
(451,255,l),
(458,197,o),
(466,148,o),
(476,115,cs),
(507,14,o),
(542,-7,o),
(604,-7,cs),
(620,-7,o),
(654,0,o),
(667,29,c),
(623,65,o),
(596,104,o),
(581,156,cs)
);
},
{
closed = 1;
nodes = (
(527,344,o),
(528,671,o),
(490,793,cs),
(466,871,o),
(439,889,o),
(378,889,cs),
(356,889,o),
(327,875,o),
(314,866,c),
(316,858,o),
(317,850,o),
(317,841,cs),
(317,808,o),
(305,770,o),
(292,731,cs),
(236,563,o),
(62,246,o),
(22,125,cs),
(11,90,o),
(5,63,o),
(5,43,cs),
(5,6,o),
(23,-7,o),
(51,-7,cs),
(68,-7,o),
(100,0,o),
(119,29,c),
(110,43,o),
(107,60,o),
(107,77,cs),
(107,138,o),
(135,203,o),
(158,255,c),
(451,255,l),
(458,197,o),
(466,148,o),
(476,115,cs),
(507,14,o),
(542,-7,o),
(604,-7,cs),
(620,-7,o),
(654,0,o),
(667,29,c),
(623,65,o),
(596,104,o),
(581,156,cs,{
name = hr00;
})
);
},
{
closed = 1;
nodes = (
(417,632,o),
(430,464,o),
(444,323,c),
(188,323,l),
(255,470,o),
(343,635,o),
(386,737,c)
);
},
{
closed = 1;
nodes = (
(532,1027,o),
(510,1007,o),
(488,1007,cs),
(439,1007,o),
(421,1073,o),
(345,1073,cs,{
name = hr01;
}),
(289,1073,o),
(246,1013,o),
(246,958,cs),
(246,931,o),
(268,926,o),
(290,926,c),
(297,973,o),
(319,993,o),
(341,993,cs),
(390,993,o),
(408,927,o),
(484,927,cs,{
name = hr02;
}),
(540,927,o),
(583,987,o),
(583,1042,cs),
(583,1069,o),
(561,1074,o),
(539,1074,c)
);
}
);
};
layerId = master01;
shapes = (
{
ref = A;
},
{
pos = (112,0);
ref = tildecomb.case;
}
);
width = 657;
}
);
unicode = 195;
},
{
glyphname = AE;
lastChange = "2022-03-30 08:26:38 +0000";
layers = (
{
anchors = (
{
name = bottom;
pos = (437,0);
},
{
name = top;
pos = (635,889);
}
);
background = {
shapes = (
{
closed = 1;
nodes = (
(642,786,o),
(725,776,o),
(800,776,cs),
(870,776,o),
(908,793,o),
(915,884,c,{
name = hr01;
}),
(881,868,o),
(822,865,o),
(755,865,cs,{
name = hr02;
}),
(672,865,o),
(601,867,o),
(530,867,cs),
(462,867,o),
(386,864,o),
(344,836,c),
(344,790,o),
(325,742,o),
(308,702,cs),
(222,506,o),
(-49,194,o),
(-49,49,cs),
(-49,4,o),
(-33,-7,o),
(-8,-7,cs),
(9,-7,o),
(42,0,o),
(63,29,c),
(58,40,o),
(56,52,o),
(56,64,cs),
(56,131,o),
(112,238,o),
(182,353,c),
(402,353,l),
(384,248,o),
(368,151,o),
(368,89,cs),
(368,20,o),
(397,-8,o),
(440,-8,cs,{
name = hr03;
}),
(454,-8,o),
(474,-3,o),
(495,11,c,{
name = hr04;
}),
(564,1,o),
(651,-10,o),
(696,-10,cs),
(794,-10,o),
(849,-5,o),
(857,105,c),
(819,85,o),
(723,79,o),
(619,79,cs,{
name = hr05;
}),
(570,79,o),
(522,81,o),
(482,83,c),
(481,92,o),
(480,102,o),
(480,112,cs),
(480,178,o),
(490,263,o),
(503,353,c),
(641,353,ls),
(716,353,o),
(771,357,o),
(779,466,c),
(728,440,o),
(632,426,o),
(514,422,c),
(538,571,o),
(565,720,o),
(565,798,c)
);
},
{
closed = 1;
nodes = (
(449,794,o),
(452,772,o),
(452,741,cs),
(452,651,o),
(434,535,o),
(414,421,c),
(224,421,l),
(322,575,o),
(429,731,o),
(443,810,c)
);
}
);
};
layerId = master01;
shapes = (
{
closed = 1;
nodes = (
(794,-10,o),
(849,-5,o),
(857,105,c),
(819,85,o),
(723,79,o),
(619,79,cs,{
name = hr05;
}),
(570,79,o),
(522,81,o),
(482,83,c),
(481,92,o),
(480,102,o),
(480,112,cs),
(480,178,o),
(490,263,o),
(503,353,c),
(641,353,ls),
(716,353,o),
(771,357,o),
(779,466,c),
(728,440,o),
(632,426,o),
(514,422,c),
(538,571,o),
(565,720,o),
(565,798,c),
(642,786,o),
(725,776,o),
(800,776,cs),
(870,776,o),
(908,793,o),
(915,884,c,{
name = hr01;
}),
(881,868,o),
(822,865,o),
(755,865,cs,{
name = hr02;
}),
(672,865,o),
(601,867,o),
(530,867,cs),
(462,867,o),
(386,864,o),
(344,836,c),
(344,790,o),
(325,742,o),
(308,702,cs),
(222,506,o),
(-49,194,o),
(-49,49,cs),
(-49,4,o),
(-33,-7,o),
(-8,-7,cs),
(9,-7,o),
(42,0,o),
(63,29,c),
(58,40,o),
(56,52,o),
(56,64,cs),
(56,131,o),
(112,238,o),
(182,353,c),
(402,353,l),
(384,248,o),
(368,151,o),
(368,89,cs),
(368,20,o),
(397,-8,o),
(440,-8,cs,{
name = hr03;
}),
(454,-8,o),
(474,-3,o),
(495,11,c,{
name = hr04;
}),
(564,1,o),
(651,-10,o),
(696,-10,cs)
);
},
{
closed = 1;
nodes = (
(322,575,o),
(429,731,o),
(443,810,c),
(449,794,o),
(452,772,o),
(452,741,cs),
(452,651,o),
(434,535,o),
(414,421,c),
(224,421,l)
);
}
);
width = 874;
}
);
unicode = 198;
},
{
glyphname = AEacute;
lastChange = "2022-03-30 08:26:26 +0000";
layers = (
{
background = {
shapes = (
{
closed = 1;
nodes = (
(642,786,o),
(725,776,o),
(800,776,cs),
(870,776,o),
(908,793,o),
(915,884,c,{
name = hr01;
}),
(881,868,o),
(822,865,o),
(755,865,cs,{
name = hr02;
}),
(672,865,o),
(601,867,o),
(530,867,cs),
(462,867,o),
(386,864,o),
(344,836,c),
(344,790,o),
(325,742,o),
(308,702,cs),
(222,506,o),
(-49,194,o),
(-49,49,cs),
(-49,4,o),
(-33,-7,o),
(-8,-7,cs),
(9,-7,o),
(42,0,o),
(63,29,c),
(58,40,o),
(56,52,o),
(56,64,cs),
(56,131,o),
(112,238,o),
(182,353,c),
(402,353,l),
(384,248,o),
(368,151,o),
(368,89,cs),
(368,20,o),
(397,-8,o),
(440,-8,cs,{
name = hr03;
}),
(454,-8,o),
(474,-3,o),
(495,11,c,{
name = hr04;
}),
(564,1,o),
(651,-10,o),
(696,-10,cs),
(794,-10,o),
(849,-5,o),
(857,105,c),
(819,85,o),
(723,79,o),
(619,79,cs,{
name = hr05;
}),
(570,79,o),
(522,81,o),
(482,83,c),
(481,92,o),
(480,102,o),
(480,112,cs),
(480,178,o),
(490,263,o),
(503,353,c),
(641,353,ls),
(716,353,o),
(771,357,o),
(779,466,c),
(728,440,o),
(632,426,o),
(514,422,c),
(538,571,o),
(565,720,o),
(565,798,c)
);
},
{
closed = 1;
nodes = (
(449,794,o),
(452,772,o),
(452,741,cs),
(452,651,o),
(434,535,o),
(414,421,c),
(224,421,l),
(322,575,o),
(429,731,o),
(443,810,c)
);
},
{
closed = 1;
nodes = (
(761,1042,o),
(767,1048,o),
(767,1061,cs),
(767,1073,o),
(754,1089,o),
(710,1089,cs),
(697,1089,o),
(682,1088,o),
(663,1084,c),
(646,1053,o),
(612,1021,o),
(503,939,c),
(512,921,o),
(522,911,o),
(530,911,cs),
(550,911,o),
(658,969,o),
(730,1020,cs,{
name = hr00;
})
);
}
);
};
layerId = master01;
shapes = (
{
ref = AE;
},
{
pos = (386,0);
ref = acutecomb.case;
}
);
width = 874;
}
);
unicode = 508;
},
{
glyphname = B;
lastChange = "2022-03-30 08:26:38 +0000";
layers = (
{
anchors = (
{
name = bottom;
pos = (332,0);
},
{
name = center;
pos = (332,445);
},
{
name = top;
pos = (332,889);
}
);
background = {
shapes = (
{
closed = 1;
nodes = (
(612,805,o),
(531,887,o),
(361,887,cs),
(294,887,o),
(223,876,o),
(159,864,c),
(167,839,o),
(174,793,o),
(174,765,cs),
(174,598,o),
(98,237,o),
(98,116,cs,{
name = hr01;
}),
(98,27,o),
(150,-11,o),
(283,-11,cs),
(533,-11,o),
(626,178,o),
(626,290,cs),
(626,395,o),
(563,459,o),
(432,479,c),
(550,536,o),
(612,627,o),
(612,711,cs)
);
},
{
closed = 1;
nodes = (
(207,231,o),
(219,328,o),
(234,427,c),
(264,430,o),
(293,435,o),
(320,441,c),
(465,437,o),
(519,354,o),
(519,267,cs,{
name = hr03;
}),
(519,166,o),
(444,59,o),
(310,59,cs),
(268,59,o),
(238,69,o),
(215,84,c),
(210,103,o),
(207,127,o),
(207,160,cs)
);
},
{
closed = 1;
nodes = (
(309,826,o),
(330,829,o),
(350,829,cs),
(464,829,o),
(507,757,o),
(507,678,cs),
(507,589,o),
(430,493,o),
(242,482,c),
(263,616,o),
(286,748,o),
(287,822,c,{
name = hr04;
})
);
}
);
};
layerId = master01;
shapes = (
{
closed = 1;
nodes = (
(533,-11,o),
(626,178,o),
(626,290,cs),
(626,395,o),
(563,459,o),
(432,479,c),
(550,536,o),
(612,627,o),
(612,711,cs),
(612,805,o),
(531,887,o),
(361,887,cs),
(294,887,o),
(223,876,o),
(159,864,c),
(167,839,o),
(174,793,o),
(174,765,cs),
(174,598,o),
(98,237,o),
(98,116,cs,{
name = hr01;
}),
(98,27,o),
(150,-11,o),
(283,-11,cs)
);
},
{
closed = 1;
nodes = (
(268,59,o),
(238,69,o),
(215,84,c),
(210,103,o),
(207,127,o),
(207,160,cs),
(207,231,o),
(219,328,o),
(234,427,c),
(264,430,o),
(293,435,o),
(320,441,c),
(465,437,o),
(519,354,o),
(519,267,cs,{
name = hr03;
}),
(519,166,o),
(444,59,o),
(310,59,cs)
);
},
{
closed = 1;
nodes = (
(263,616,o),
(286,748,o),
(287,822,c,{
name = hr04;
}),
(309,826,o),
(330,829,o),
(350,829,cs),
(464,829,o),
(507,757,o),
(507,678,cs),
(507,589,o),
(430,493,o),
(242,482,c)
);
}
);
width = 663;
}
);
unicode = 66;
},
{
glyphname = C;
lastChange = "2022-03-30 08:29:39 +0000";
layers = (
{
anchors = (
{
name = bottom;
pos = (334,0);
},
{
name = top;
pos = (423,889);
}
);
background = {
shapes = (
{
closed = 1;
nodes = (
(208,887,o),
(78,586,o),
(78,336,cs),
(78,138,o),
(161,-21,o),
(365,-21,cs),
(478,-21,o),
(584,48,o),
(584,117,cs),
(584,142,o),
(576,167,o),
(559,186,c),
(528,96,o),
(467,49,o),
(393,49,cs),
(253,49,o),
(186,170,o),
(186,382,cs),
(186,504,o),
(228,810,o),
(411,810,cs),
(493,810,o),
(536,762,o),
(567,693,c),
(588,712,o),
(618,738,o),
(618,793,cs),
(618,855,o),
(550,887,o),
(463,887,cs,{
name = hr00;
})
);
}
);
};
layerId = master01;
shapes = (
{
closed = 1;
nodes = (
(478,-21,o),
(584,48,o),
(584,117,cs),
(584,142,o),
(576,167,o),
(559,186,c),
(528,96,o),
(467,49,o),
(393,49,cs),
(253,49,o),
(186,170,o),
(186,382,cs),
(186,504,o),
(228,810,o),
(411,810,cs),
(493,810,o),
(536,762,o),
(567,693,c),
(588,712,o),
(618,738,o),
(618,793,cs),
(618,855,o),
(550,887,o),
(463,887,cs,{
name = hr00;
}),
(208,887,o),
(78,586,o),
(78,336,cs),
(78,138,o),
(161,-21,o),
(365,-21,cs)
);
}
);
width = 608;
}
);
unicode = 67;
},
{
glyphname = Cacute;
lastChange = "2022-03-30 08:17:20 +0000";
layers = (
{
background = {
shapes = (
{
closed = 1;
nodes = (
(208,887,o),
(78,586,o),
(78,336,cs),
(78,138,o),
(161,-21,o),
(365,-21,cs),
(478,-21,o),
(584,48,o),
(584,117,cs),
(584,142,o),
(576,167,o),
(559,186,c),
(528,96,o),
(467,49,o),
(393,49,cs),
(253,49,o),
(186,170,o),
(186,382,cs),
(186,504,o),
(228,810,o),
(411,810,cs),
(493,810,o),
(536,762,o),
(567,693,c),
(588,712,o),
(618,738,o),
(618,793,cs),
(618,855,o),
(550,887,o),
(463,887,cs,{
name = hr00;
})
);
},
{
closed = 1;
nodes = (
(549,1042,o),
(555,1048,o),
(555,1061,cs),
(555,1073,o),
(542,1089,o),
(498,1089,cs),
(485,1089,o),
(470,1088,o),
(451,1084,c),
(434,1053,o),
(400,1021,o),
(291,939,c),
(300,921,o),
(310,911,o),
(318,911,cs),
(338,911,o),
(446,969,o),
(518,1020,cs,{
name = hr00;
})
);
}
);
};
layerId = master01;
shapes = (
{
ref = C;
},
{
pos = (174,0);
ref = acutecomb.case;
}
);
width = 608;
}
);
unicode = 262;
},
{
glyphname = Ccaron;
lastChange = "2022-03-30 08:27:16 +0000";
layers = (
{
background = {
shapes = (
{
closed = 1;
nodes = (
(208,887,o),
(78,586,o),
(78,336,cs),
(78,138,o),
(161,-21,o),
(365,-21,cs),
(478,-21,o),
(584,48,o),
(584,117,cs),
(584,142,o),
(576,167,o),
(559,186,c),
(528,96,o),
(467,49,o),
(393,49,cs),
(253,49,o),
(186,170,o),
(186,382,cs),
(186,504,o),
(228,810,o),
(411,810,cs),
(493,810,o),
(536,762,o),
(567,693,c),
(588,712,o),
(618,738,o),
(618,793,cs),
(618,855,o),
(550,887,o),
(463,887,cs,{
name = hr00;
})
);
},
{
closed = 1;
nodes = (
(272,1118,o),
(262,1108,o),
(252,1090,c),
(315,1028,o),
(352,964,o),
(362,951,c),
(373,943,o),
(393,940,o),
(413,940,cs),
(429,940,o),
(446,942,o),
(456,945,c),
(473,976,o),
(492,1008,o),
(601,1090,c),
(592,1108,o),
(582,1118,o),
(574,1118,cs),
(557,1118,o),
(481,1072,o),
(415,1028,c),
(346,1083,o),
(299,1118,o),
(279,1118,cs,{
name = hr00;
})
);
}
);
};
layerId = master01;
shapes = (
{
ref = C;
},
{
pos = (232,0);
ref = caroncomb.case;
}
);
width = 608;
}
);
unicode = 268;
},
{
glyphname = Ccedilla;
lastChange = "2022-03-30 08:29:39 +0000";
layers = (
{
background = {
shapes = (
{
closed = 1;
nodes = (
(208,887,o),
(78,586,o),
(78,336,cs),
(78,160,o),
(143,15,o),
(300,-15,c),
(269,-91,o),
(269,-94,o),
(269,-97,cs),
(269,-101,o),
(271,-103,o),
(282,-105,cs),
(334,-113,ls),
(361,-117,o),
(374,-134,o),
(374,-158,cs),
(374,-189,o),
(353,-223,o),
(315,-223,cs),
(289,-223,o),
(269,-201,o),
(267,-172,c),
(229,-186,o),
(216,-199,o),
(216,-216,cs),
(216,-244,o),
(250,-272,o),
(304,-272,cs),
(415,-272,o),
(451,-202,o),
(451,-152,cs),
(451,-102,o),
(419,-79,o),
(332,-69,c),
(351,-20,l),
(355,-20,o),
(360,-21,o),
(365,-21,cs),
(478,-21,o),
(584,48,o),
(584,117,cs),
(584,142,o),
(576,167,o),
(559,186,c),
(528,96,o),
(467,49,o),
(393,49,cs),
(253,49,o),
(186,170,o),
(186,382,cs),
(186,504,o),
(228,810,o),
(411,810,cs),
(493,810,o),
(536,762,o),
(567,693,c),
(588,712,o),
(618,738,o),
(618,793,cs),
(618,855,o),
(550,887,o),
(463,887,cs)
);
},
{
closed = 1;
nodes = (
(208,887,o),
(78,586,o),
(78,336,cs),
(78,138,o),
(161,-21,o),
(365,-21,cs),
(478,-21,o),
(584,48,o),
(584,117,cs),
(584,142,o),
(576,167,o),
(559,186,c),
(528,96,o),
(467,49,o),
(393,49,cs),
(253,49,o),
(186,170,o),
(186,382,cs),
(186,504,o),
(228,810,o),
(411,810,cs),
(493,810,o),
(536,762,o),
(567,693,c),
(588,712,o),
(618,738,o),
(618,793,cs),
(618,855,o),
(550,887,o),
(463,887,cs,{
name = hr00;
})
);
},
{
closed = 1;
nodes = (
(304,-6,o),
(269,-94,o),
(269,-97,cs),
(269,-101,o),
(271,-103,o),
(282,-105,cs),
(334,-113,ls),
(361,-117,o),
(374,-134,o),
(374,-158,cs),
(374,-189,o),
(353,-223,o),
(315,-223,cs),
(289,-223,o),
(269,-201,o),
(267,-172,c),
(228,-180,o),
(216,-199,o),
(216,-216,cs),
(216,-244,o),
(250,-272,o),
(304,-272,cs),
(415,-272,o),
(451,-202,o),
(451,-152,cs),
(451,-102,o),
(419,-79,o),
(332,-69,c),
(370,34,l),
(321,34,l,{
name = hr00;
})
);
}
);
};
layerId = master01;
shapes = (
{
ref = C;
},
{
pos = (130,0);
ref = cedillacomb;
}
);
width = 608;
}
);
unicode = 199;
},
{
glyphname = Ccircumflex;
lastChange = "2022-03-30 08:17:20 +0000";
layers = (
{
background = {
shapes = (
{
closed = 1;
nodes = (
(208,887,o),
(78,586,o),
(78,336,cs),
(78,138,o),
(161,-21,o),
(365,-21,cs),
(478,-21,o),
(584,48,o),
(584,117,cs),
(584,142,o),
(576,167,o),
(559,186,c),
(528,96,o),
(467,49,o),
(393,49,cs),
(253,49,o),
(186,170,o),
(186,382,cs),
(186,504,o),
(228,810,o),
(411,810,cs),
(493,810,o),
(536,762,o),
(567,693,c),
(588,712,o),
(618,738,o),
(618,793,cs),
(618,855,o),
(550,887,o),
(463,887,cs,{
name = hr00;
})
);
},
{
closed = 1;
nodes = (
(577,911,o),
(587,921,o),
(596,939,c),
(533,1001,o),
(496,1065,o),
(487,1078,c),
(476,1086,o),
(456,1089,o),
(436,1089,cs),
(419,1089,o),
(403,1087,o),
(393,1084,c),
(376,1053,o),
(356,1021,o),
(247,939,c),
(257,921,o),
(267,911,o),
(274,911,cs),
(291,911,o),
(368,957,o),
(433,1002,c),
(503,946,o),
(550,911,o),
(569,911,cs,{
name = hr00;
})
);
}
);
};
layerId = master01;
shapes = (
{
ref = C;
},
{
pos = (200,0);
ref = circumflexcomb.case;
}
);
width = 608;
}
);
unicode = 264;
},
{
glyphname = Cdotaccent;
lastChange = "2022-03-30 08:17:20 +0000";
layers = (
{
background = {
shapes = (
{
closed = 1;
nodes = (
(208,887,o),
(78,586,o),
(78,336,cs),
(78,138,o),
(161,-21,o),
(365,-21,cs),
(478,-21,o),
(584,48,o),
(584,117,cs),
(584,142,o),
(576,167,o),
(559,186,c),
(528,96,o),
(467,49,o),
(393,49,cs),
(253,49,o),
(186,170,o),
(186,382,cs),
(186,504,o),
(228,810,o),
(411,810,cs),
(493,810,o),
(536,762,o),
(567,693,c),
(588,712,o),
(618,738,o),
(618,793,cs),
(618,855,o),
(550,887,o),
(463,887,cs,{
name = hr00;
})
);
},
{
closed = 1;
nodes = (
(499,1051,o),
(468,1065,o),
(433,1065,cs),
(407,1065,o),
(381,1056,o),
(353,1038,c),
(348,1011,o),
(345,989,o),
(345,972,cs),
(345,936,o),
(362,918,o),
(407,918,cs),
(432,918,o),
(459,927,o),
(487,945,c),
(495,974,o),
(499,998,o),
(499,1015,cs,{
name = hr00;
})
);
}
);
};
layerId = master01;
shapes = (
{
ref = C;
},
{
pos = (219,0);
ref = dotaccentcomb.case;
}
);
width = 608;
}
);
unicode = 266;
},
{
glyphname = D;
lastChange = "2022-03-30 08:27:41 +0000";
layers = (
{
anchors = (
{
name = bottom;
pos = (365,0);
},
{
name = center;
pos = (365,445);
},
{
name = top;
pos = (423,889);
}
);
background = {
shapes = (
{
closed = 1;
nodes = (
(533,-11,o),
(691,253,o),
(691,559,cs),
(691,802,o),
(568,880,o),
(373,880,cs),
(309,880,o),
(237,871,o),
(159,854,c),
(167,830,o),
(174,778,o),
(174,750,cs),
(174,575,o),
(98,256,o),
(98,116,cs,{
name = hr01;
}),
(98,27,o),
(150,-11,o),
(283,-11,cs)
);
},
{
closed = 1;
nodes = (
(207,350,o),
(288,692,o),
(288,812,c,{
name = hr02;
}),
(315,817,o),
(340,819,o),
(364,819,cs),
(528,819,o),
(586,746,o),
(586,505,cs),
(586,331,o),
(516,59,o),
(312,59,cs),
(269,59,o),
(239,70,o),
(215,85,c),
(210,104,o),
(207,127,o),
(207,160,cs)
);
}
);
};
layerId = master01;
shapes = (
{
closed = 1;
nodes = (
(533,-11,o),
(691,253,o),
(691,559,cs),
(691,802,o),
(568,880,o),
(373,880,cs),
(309,880,o),
(237,871,o),
(159,854,c),
(167,830,o),
(174,778,o),
(174,750,cs),
(174,575,o),
(98,256,o),
(98,116,cs,{
name = hr01;
}),
(98,27,o),
(150,-11,o),
(283,-11,cs)
);
},
{
closed = 1;
nodes = (
(269,59,o),
(239,70,o),
(215,85,c),
(210,104,o),
(207,127,o),
(207,160,cs),
(207,350,o),
(288,692,o),
(288,812,c,{
name = hr02;
}),
(315,817,o),
(340,819,o),
(364,819,cs),
(528,819,o),
(586,746,o),
(586,505,cs),
(586,331,o),
(516,59,o),
(312,59,cs)
);
}
);
width = 730;
}
);
unicode = 68;
},
{
glyphname = Eth;
lastChange = "2022-03-30 08:31:00 +0000";
layers = (
{
background = {
shapes = (
{
closed = 1;
nodes = (
(44,411,o),
(53,392,o),
(63,376,c),
(78,385,o),
(107,391,o),
(132,393,c),
(114,283,o),
(98,180,o),
(98,116,cs),
(98,27,o),
(150,-11,o),
(283,-11,cs),
(533,-11,o),
(691,253,o),
(691,559,cs),
(691,802,o),
(568,880,o),
(373,880,cs),
(309,880,o),
(237,871,o),
(159,854,c),
(167,830,o),
(174,778,o),
(174,750,cs),
(174,676,o),
(160,577,o),
(145,476,c),
(125,477,o),
(109,478,o),
(100,478,cs),
(68,478,o),
(44,464,o),
(44,437,cs)
);
},
{
closed = 1;
nodes = (
(207,225,o),
(216,307,o),
(229,393,c),
(273,392,o),
(324,391,o),
(342,391,cs),
(420,391,o),
(448,412,o),
(448,442,cs),
(448,458,o),
(445,473,o),
(433,488,c),
(410,474,o),
(335,467,o),
(305,467,cs),
(291,467,o),
(267,468,o),
(240,469,c),
(263,609,o),
(288,745,o),
(288,812,c),
(315,817,o),
(340,819,o),
(364,819,cs),
(528,819,o),
(586,746,o),
(586,505,cs),
(586,331,o),
(516,59,o),
(312,59,cs),
(269,59,o),
(239,70,o),
(215,85,c),
(210,104,o),
(207,127,o),
(207,160,cs)
);
},
{
closed = 1;
nodes = (
(533,-11,o),
(691,253,o),
(691,559,cs),
(691,802,o),
(568,880,o),
(373,880,cs),
(309,880,o),
(237,871,o),
(159,854,c),
(167,830,o),
(174,778,o),
(174,750,cs),
(174,575,o),
(98,256,o),
(98,116,cs,{
name = hr01;
}),
(98,27,o),
(150,-11,o),
(283,-11,cs)
);
},
{
closed = 1;
nodes = (
(207,350,o),
(288,692,o),
(288,812,c,{
name = hr02;
}),
(315,817,o),
(340,819,o),
(364,819,cs),
(528,819,o),
(586,746,o),
(586,505,cs),
(586,331,o),
(516,59,o),
(312,59,cs),
(269,59,o),
(239,70,o),
(215,85,c),
(210,104,o),
(207,127,o),
(207,160,cs)
);
},
{
closed = 1;
nodes = (
(44,411,o),
(53,392,o),
(63,376,c),
(84,389,o),
(132,394,o),
(157,394,cs,{
name = hr01;
}),
(183,394,o),
(311,391,o),
(342,391,cs),
(420,391,o),
(448,412,o),
(448,442,cs),
(448,458,o),
(445,473,o),
(433,488,c),
(410,474,o),
(335,467,o),
(305,467,cs),
(265,467,o),
(136,478,o),
(100,478,cs),
(68,478,o),
(44,464,o),
(44,437,cs)
);
}
);
};
layerId = master01;
shapes = (
{
closed = 1;
nodes = (
(84,389,o),
(132,394,o),
(157,394,cs,{
name = hr01;
}),
(183,394,o),
(311,391,o),
(342,391,cs),
(420,391,o),
(448,412,o),
(448,442,cs),
(448,458,o),
(445,473,o),
(433,488,c),
(410,474,o),
(335,467,o),
(305,467,cs),
(265,467,o),
(136,478,o),
(100,478,cs),
(68,478,o),
(44,464,o),
(44,437,cs),
(44,411,o),
(53,392,o),
(63,376,c)
);
},
{
ref = D;
}
);
width = 730;
}
);
metricRight = D;
unicode = 208;
},
{
glyphname = Dcaron;
lastChange = "2022-03-30 08:27:41 +0000";
layers = (
{
background = {
shapes = (
{
closed = 1;
nodes = (
(533,-11,o),
(691,253,o),
(691,559,cs),
(691,802,o),
(568,880,o),
(373,880,cs),
(309,880,o),
(237,871,o),
(159,854,c),
(167,830,o),
(174,778,o),
(174,750,cs),
(174,575,o),
(98,256,o),
(98,116,cs,{
name = hr01;
}),
(98,27,o),
(150,-11,o),
(283,-11,cs)
);
},
{
closed = 1;
nodes = (
(207,350,o),
(288,692,o),
(288,812,c,{
name = hr02;
}),
(315,817,o),
(340,819,o),
(364,819,cs),
(528,819,o),
(586,746,o),
(586,505,cs),
(586,331,o),
(516,59,o),
(312,59,cs),
(269,59,o),
(239,70,o),
(215,85,c),
(210,104,o),
(207,127,o),
(207,160,cs)
);
},
{
closed = 1;
nodes = (
(272,1118,o),
(262,1108,o),
(252,1090,c),
(315,1028,o),
(352,964,o),
(362,951,c),
(373,943,o),
(393,940,o),
(413,940,cs),
(429,940,o),
(446,942,o),
(456,945,c),
(473,976,o),
(492,1008,o),
(601,1090,c),
(592,1108,o),
(582,1118,o),
(574,1118,cs),
(557,1118,o),
(481,1072,o),
(415,1028,c),
(346,1083,o),
(299,1118,o),
(279,1118,cs,{
name = hr00;
})
);
}
);
};
layerId = master01;
shapes = (
{
ref = D;
},
{
pos = (232,0);
ref = caroncomb.case;
}
);
width = 730;
}
);
unicode = 270;
},
{
glyphname = Dcroat;
lastChange = "2022-03-30 08:31:25 +0000";
layers = (
{
background = {
shapes = (
{
closed = 1;
nodes = (
(533,-11,o),
(691,253,o),
(691,559,cs),
(691,802,o),
(568,880,o),
(373,880,cs),
(309,880,o),
(237,871,o),
(159,854,c),
(167,830,o),
(174,778,o),
(174,750,cs),
(174,575,o),
(98,256,o),
(98,116,cs,{
name = hr01;
}),
(98,27,o),
(150,-11,o),
(283,-11,cs)
);
},
{
closed = 1;
nodes = (
(207,350,o),
(288,692,o),
(288,812,c,{
name = hr02;
}),
(315,817,o),
(340,819,o),
(364,819,cs),
(528,819,o),
(586,746,o),
(586,505,cs),
(586,331,o),
(516,59,o),
(312,59,cs),
(269,59,o),
(239,70,o),
(215,85,c),
(210,104,o),
(207,127,o),
(207,160,cs)
);
},
{
closed = 1;
nodes = (
(44,411,o),
(53,392,o),
(63,376,c),
(84,389,o),
(132,394,o),
(157,394,cs,{
name = hr01;
}),
(183,394,o),
(311,391,o),
(342,391,cs),
(420,391,o),
(448,412,o),
(448,442,cs),
(448,458,o),
(445,473,o),
(433,488,c),
(410,474,o),
(335,467,o),
(305,467,cs),
(265,467,o),
(136,478,o),
(100,478,cs),
(68,478,o),
(44,464,o),
(44,437,cs)
);
}
);
};
layerId = master01;
shapes = (
{
closed = 1;
nodes = (
(84,389,o),
(132,394,o),
(157,394,cs,{
name = hr01;
}),
(183,394,o),
(311,391,o),
(342,391,cs),
(420,391,o),
(448,412,o),
(448,442,cs),
(448,458,o),
(445,473,o),
(433,488,c),
(410,474,o),
(335,467,o),
(305,467,cs),
(265,467,o),
(136,478,o),
(100,478,cs),
(68,478,o),
(44,464,o),
(44,437,cs),
(44,411,o),
(53,392,o),
(63,376,c)
);
},
{
ref = D;
}
);
width = 730;
}
);
unicode = 272;
},
{
glyphname = E;
lastChange = "2022-03-30 08:26:38 +0000";
layers = (
{
anchors = (
{
name = bottom;
pos = (301,0);
},
{
name = ogonek;
pos = (542,10);
},
{
name = top;
pos = (412,889);
},
{
name = topleft;
pos = (20,889);
}
);
background = {
shapes = (
{
closed = 1;
nodes = (
(444,398,o),
(499,403,o),
(507,512,c),
(457,486,o),
(352,480,o),
(251,479,c),
(272,605,o),
(293,730,o),
(293,798,c),
(370,786,o),
(453,776,o),
(528,776,cs),
(598,776,o),
(636,793,o),
(643,884,c,{
name = hr01;
}),
(609,868,o),
(550,865,o),
(483,865,cs,{
name = hr02;
}),
(430,865,o),
(373,867,o),
(321,867,cs),
(262,867,o),
(196,864,o),
(165,839,c),
(173,815,o),
(180,769,o),
(180,741,cs),
(180,666,o),
(167,573,o),
(152,478,c),
(104,474,o),
(96,460,o),
(90,413,c),
(108,413,o),
(125,413,o),
(141,412,c),
(119,285,o),
(96,162,o),
(96,89,cs,{
name = hr03;
}),
(96,20,o),
(125,-8,o),
(168,-8,cs),
(182,-8,o),
(202,-3,o),
(222,11,c,{
name = hr04;
}),
(292,1,o),
(379,-10,o),
(424,-10,cs),
(522,-10,o),
(577,-5,o),
(585,105,c),
(547,85,o),
(451,79,o),
(347,79,cs,{
name = hr05;
}),
(298,79,o),
(250,81,o),
(209,83,c),
(208,92,o),
(208,102,o),
(208,112,cs),
(208,191,o),
(222,298,o),
(239,407,c),
(288,403,o),
(327,398,o),
(369,398,cs)
);
}
);
};
layerId = master01;
shapes = (
{
closed = 1;
nodes = (
(522,-10,o),
(577,-5,o),
(585,105,c),
(547,85,o),
(451,79,o),
(347,79,cs,{
name = hr05;
}),
(298,79,o),
(250,81,o),
(209,83,c),
(208,92,o),
(208,102,o),
(208,112,cs),
(208,191,o),
(222,298,o),
(239,407,c),
(288,403,o),
(327,398,o),
(369,398,cs),
(444,398,o),
(499,403,o),
(507,512,c),
(457,486,o),
(352,480,o),
(251,479,c),
(272,605,o),
(293,730,o),
(293,798,c),
(370,786,o),
(453,776,o),
(528,776,cs),
(598,776,o),
(636,793,o),
(643,884,c,{
name = hr01;
}),
(609,868,o),
(550,865,o),
(483,865,cs,{
name = hr02;
}),
(430,865,o),
(373,867,o),
(321,867,cs),
(262,867,o),
(196,864,o),
(165,839,c),
(173,815,o),
(180,769,o),
(180,741,cs),
(180,666,o),
(167,573,o),
(152,478,c),
(104,474,o),
(96,460,o),
(90,413,c),
(108,413,o),
(125,413,o),
(141,412,c),
(119,285,o),
(96,162,o),
(96,89,cs,{
name = hr03;
}),
(96,20,o),
(125,-8,o),
(168,-8,cs),
(182,-8,o),
(202,-3,o),
(222,11,c,{
name = hr04;
}),
(292,1,o),
(379,-10,o),
(424,-10,cs)
);
}
);
width = 602;
}
);
unicode = 69;
},
{
glyphname = Eacute;
lastChange = "2022-03-30 08:14:18 +0000";
layers = (
{
background = {
shapes = (
{
closed = 1;
nodes = (
(444,398,o),
(499,403,o),
(507,512,c),
(457,486,o),
(352,480,o),
(251,479,c),
(272,605,o),
(293,730,o),
(293,798,c),
(370,786,o),
(453,776,o),
(528,776,cs),
(598,776,o),
(636,793,o),
(643,884,c),
(609,868,o),
(550,865,o),
(483,865,cs),
(430,865,o),
(373,867,o),
(321,867,cs),
(262,867,o),
(196,864,o),
(165,839,c),
(173,815,o),
(180,769,o),
(180,741,cs),
(180,666,o),
(167,573,o),
(152,478,c),
(104,474,o),
(96,460,o),
(90,413,c),
(108,413,o),
(125,413,o),
(141,412,c),
(119,285,o),
(96,162,o),
(96,89,cs),
(96,20,o),
(125,-8,o),
(168,-8,cs),
(182,-8,o),
(202,-3,o),
(222,11,c),
(292,1,o),
(379,-10,o),
(424,-10,cs),
(522,-10,o),
(577,-5,o),
(585,105,c),
(547,85,o),
(451,79,o),
(347,79,cs),
(298,79,o),
(250,81,o),
(209,83,c),
(208,92,o),
(208,102,o),
(208,112,cs),
(208,191,o),
(222,298,o),
(239,407,c),
(288,403,o),
(327,398,o),
(369,398,cs)
);
},
{
closed = 1;
nodes = (
(537,1042,o),
(543,1048,o),
(543,1061,cs),
(543,1073,o),
(530,1089,o),
(486,1089,cs),
(473,1089,o),
(458,1088,o),
(439,1084,c),
(422,1053,o),
(388,1021,o),
(279,939,c),
(288,921,o),
(298,911,o),
(306,911,cs),
(326,911,o),
(434,969,o),
(506,1020,cs)
);
},
{
closed = 1;
nodes = (
(444,398,o),
(499,403,o),
(507,512,c),
(457,486,o),
(352,480,o),
(251,479,c),
(272,605,o),
(293,730,o),
(293,798,c),
(370,786,o),
(453,776,o),
(528,776,cs),
(598,776,o),
(636,793,o),
(643,884,c,{
name = hr01;
}),
(609,868,o),
(550,865,o),
(483,865,cs,{
name = hr02;
}),
(430,865,o),
(373,867,o),
(321,867,cs),
(262,867,o),
(196,864,o),
(165,839,c),
(173,815,o),
(180,769,o),
(180,741,cs),
(180,666,o),
(167,573,o),
(152,478,c),
(104,474,o),
(96,460,o),
(90,413,c),
(108,413,o),
(125,413,o),
(141,412,c),
(119,285,o),
(96,162,o),
(96,89,cs,{
name = hr03;
}),
(96,20,o),
(125,-8,o),
(168,-8,cs),
(182,-8,o),
(202,-3,o),
(222,11,c,{
name = hr04;
}),
(292,1,o),
(379,-10,o),
(424,-10,cs),
(522,-10,o),
(577,-5,o),
(585,105,c),
(547,85,o),
(451,79,o),
(347,79,cs,{
name = hr05;
}),
(298,79,o),
(250,81,o),
(209,83,c),
(208,92,o),
(208,102,o),
(208,112,cs),
(208,191,o),
(222,298,o),
(239,407,c),
(288,403,o),
(327,398,o),
(369,398,cs)
);
},
{
closed = 1;
nodes = (
(537,1042,o),
(543,1048,o),
(543,1061,cs),
(543,1073,o),
(530,1089,o),
(486,1089,cs),
(473,1089,o),
(458,1088,o),
(439,1084,c),
(422,1053,o),
(388,1021,o),
(279,939,c),
(288,921,o),
(298,911,o),
(306,911,cs),
(326,911,o),
(434,969,o),
(506,1020,cs,{
name = hr00;
})
);
}
);
};
layerId = master01;
shapes = (
{
ref = E;
},
{
pos = (163,0);
ref = acutecomb.case;
}
);
width = 602;
}
);
unicode = 201;
},
{
glyphname = Ebreve;
lastChange = "2022-03-30 08:37:26 +0000";
layers = (
{
background = {
shapes = (
{
closed = 1;
nodes = (
(444,398,o),
(499,403,o),
(507,512,c),
(457,486,o),
(352,480,o),
(251,479,c),
(272,605,o),
(293,730,o),
(293,798,c),
(370,786,o),
(453,776,o),
(528,776,cs),
(598,776,o),
(636,793,o),
(643,884,c,{
name = hr01;
}),
(609,868,o),
(550,865,o),
(483,865,cs,{
name = hr02;
}),
(430,865,o),
(373,867,o),
(321,867,cs),
(262,867,o),
(196,864,o),
(165,839,c),
(173,815,o),
(180,769,o),
(180,741,cs),
(180,666,o),
(167,573,o),
(152,478,c),
(104,474,o),
(96,460,o),
(90,413,c),
(108,413,o),
(125,413,o),
(141,412,c),
(119,285,o),
(96,162,o),
(96,89,cs,{
name = hr03;
}),
(96,20,o),
(125,-8,o),
(168,-8,cs),
(182,-8,o),
(202,-3,o),
(222,11,c,{
name = hr04;
}),
(292,1,o),
(379,-10,o),
(424,-10,cs),
(522,-10,o),
(577,-5,o),
(585,105,c),
(547,85,o),
(451,79,o),
(347,79,cs,{
name = hr05;
}),
(298,79,o),
(250,81,o),
(209,83,c),
(208,92,o),
(208,102,o),
(208,112,cs),
(208,191,o),
(222,298,o),
(239,407,c),
(288,403,o),
(327,398,o),
(369,398,cs)
);
},
{
closed = 1;
nodes = (
(285,1089,o),
(266,1079,o),
(256,1061,c),
(297,969,o),
(330,911,o),
(407,911,cs),
(484,911,o),
(522,961,o),
(586,1061,c),
(576,1079,o),
(556,1089,o),
(549,1089,cs),
(532,1089,o),
(481,987,o),
(409,987,cs),
(342,987,o),
(312,1089,o),
(293,1089,cs,{
name = hr00;
})
);
}
);
};
layerId = master01;
shapes = (
{
ref = E;
},
{
pos = (227,0);
ref = brevecomb.case;
}
);
width = 602;
}
);
unicode = 276;
},
{
glyphname = Ecaron;
lastChange = "2022-03-30 08:27:26 +0000";
layers = (
{
background = {
shapes = (
{
closed = 1;
nodes = (
(444,398,o),
(499,403,o),
(507,512,c),
(457,486,o),
(352,480,o),
(251,479,c),
(272,605,o),
(293,730,o),
(293,798,c),
(370,786,o),
(453,776,o),
(528,776,cs),
(598,776,o),
(636,793,o),
(643,884,c,{
name = hr01;
}),
(609,868,o),
(550,865,o),
(483,865,cs,{
name = hr02;
}),
(430,865,o),
(373,867,o),
(321,867,cs),
(262,867,o),
(196,864,o),
(165,839,c),
(173,815,o),
(180,769,o),
(180,741,cs),
(180,666,o),
(167,573,o),
(152,478,c),
(104,474,o),
(96,460,o),
(90,413,c),
(108,413,o),
(125,413,o),
(141,412,c),
(119,285,o),
(96,162,o),
(96,89,cs,{
name = hr03;
}),
(96,20,o),
(125,-8,o),
(168,-8,cs),
(182,-8,o),
(202,-3,o),
(222,11,c,{
name = hr04;
}),
(292,1,o),
(379,-10,o),
(424,-10,cs),
(522,-10,o),
(577,-5,o),
(585,105,c),
(547,85,o),
(451,79,o),
(347,79,cs,{
name = hr05;
}),
(298,79,o),
(250,81,o),
(209,83,c),
(208,92,o),
(208,102,o),
(208,112,cs),
(208,191,o),
(222,298,o),
(239,407,c),
(288,403,o),
(327,398,o),
(369,398,cs)
);
},
{
closed = 1;
nodes = (
(267,1089,o),
(257,1079,o),
(247,1061,c),
(310,999,o),
(347,935,o),
(357,922,c),
(368,914,o),
(388,911,o),
(408,911,cs),
(424,911,o),
(441,913,o),
(451,916,c),
(468,947,o),
(487,979,o),
(596,1061,c),
(587,1079,o),
(577,1089,o),
(569,1089,cs),
(552,1089,o),
(476,1043,o),
(410,999,c),
(341,1054,o),
(294,1089,o),
(274,1089,cs,{
name = hr00;
})
);
}
);
};
layerId = master01;
shapes = (
{
ref = E;
},
{
pos = (221,0);
ref = caroncomb.case;
}
);
width = 602;
}
);
unicode = 282;
},
{
glyphname = Ecircumflex;
lastChange = "2022-03-30 08:16:42 +0000";
layers = (
{
background = {
shapes = (
{
closed = 1;
nodes = (
(444,398,o),
(499,403,o),
(507,512,c),
(457,486,o),
(352,480,o),
(251,479,c),
(272,605,o),
(293,730,o),
(293,798,c),
(370,786,o),
(453,776,o),
(528,776,cs),
(598,776,o),
(636,793,o),
(643,884,c),
(609,868,o),
(550,865,o),
(483,865,cs),
(430,865,o),
(373,867,o),
(321,867,cs),
(262,867,o),
(196,864,o),
(165,839,c),
(173,815,o),
(180,769,o),
(180,741,cs),
(180,666,o),
(167,573,o),
(152,478,c),
(104,474,o),
(96,460,o),
(90,413,c),
(108,413,o),
(125,413,o),
(141,412,c),
(119,285,o),
(96,162,o),
(96,89,cs),
(96,20,o),
(125,-8,o),
(168,-8,cs),
(182,-8,o),
(202,-3,o),
(222,11,c),
(292,1,o),
(379,-10,o),
(424,-10,cs),
(522,-10,o),
(577,-5,o),
(585,105,c),
(547,85,o),
(451,79,o),
(347,79,cs),
(298,79,o),
(250,81,o),
(209,83,c),
(208,92,o),
(208,102,o),
(208,112,cs),
(208,191,o),
(222,298,o),
(239,407,c),
(288,403,o),
(327,398,o),
(369,398,cs)
);
},
{
closed = 1;
nodes = (
(552,911,o),
(562,921,o),
(571,939,c),
(508,1001,o),
(471,1065,o),
(462,1078,c),
(451,1086,o),
(431,1089,o),
(411,1089,cs),
(394,1089,o),
(378,1087,o),
(368,1084,c),
(351,1053,o),
(331,1021,o),
(222,939,c),
(232,921,o),
(242,911,o),
(249,911,cs),
(266,911,o),
(343,957,o),
(408,1002,c),
(478,946,o),
(525,911,o),
(544,911,cs)
);
},
{
closed = 1;
nodes = (
(444,398,o),
(499,403,o),
(507,512,c),
(457,486,o),
(352,480,o),
(251,479,c),
(272,605,o),
(293,730,o),
(293,798,c),
(370,786,o),
(453,776,o),
(528,776,cs),
(598,776,o),
(636,793,o),
(643,884,c,{
name = hr01;
}),
(609,868,o),
(550,865,o),
(483,865,cs,{
name = hr02;
}),
(430,865,o),
(373,867,o),
(321,867,cs),
(262,867,o),
(196,864,o),
(165,839,c),
(173,815,o),
(180,769,o),
(180,741,cs),
(180,666,o),
(167,573,o),
(152,478,c),
(104,474,o),
(96,460,o),
(90,413,c),
(108,413,o),
(125,413,o),
(141,412,c),
(119,285,o),
(96,162,o),
(96,89,cs,{
name = hr03;
}),
(96,20,o),
(125,-8,o),
(168,-8,cs),
(182,-8,o),
(202,-3,o),
(222,11,c,{
name = hr04;
}),
(292,1,o),
(379,-10,o),
(424,-10,cs),
(522,-10,o),
(577,-5,o),
(585,105,c),
(547,85,o),
(451,79,o),
(347,79,cs,{
name = hr05;
}),
(298,79,o),
(250,81,o),
(209,83,c),
(208,92,o),
(208,102,o),
(208,112,cs),
(208,191,o),
(222,298,o),
(239,407,c),
(288,403,o),
(327,398,o),
(369,398,cs)
);
},
{
closed = 1;
nodes = (
(552,911,o),
(562,921,o),
(571,939,c),
(508,1001,o),
(471,1065,o),
(462,1078,c),
(451,1086,o),
(431,1089,o),
(411,1089,cs),
(394,1089,o),
(378,1087,o),
(368,1084,c),
(351,1053,o),
(331,1021,o),
(222,939,c),
(232,921,o),
(242,911,o),
(249,911,cs),
(266,911,o),
(343,957,o),
(408,1002,c),
(478,946,o),
(525,911,o),
(544,911,cs,{
name = hr00;
})
);
}
);
};
layerId = master01;
shapes = (
{
ref = E;
},
{
pos = (189,0);
ref = circumflexcomb.case;
}
);
width = 602;
}
);
unicode = 202;
},
{
glyphname = Edieresis;
lastChange = "2022-03-30 08:24:07 +0000";
layers = (
{
background = {
shapes = (
{
closed = 1;
nodes = (
(444,398,o),
(499,403,o),
(507,512,c),
(457,486,o),
(352,480,o),
(251,479,c),
(272,605,o),
(293,730,o),
(293,798,c),
(370,786,o),
(453,776,o),
(528,776,cs),
(598,776,o),
(636,793,o),
(643,884,c),
(609,868,o),
(550,865,o),
(483,865,cs),
(430,865,o),
(373,867,o),
(321,867,cs),
(262,867,o),
(196,864,o),
(165,839,c),
(173,815,o),
(180,769,o),
(180,741,cs),
(180,666,o),
(167,573,o),
(152,478,c),
(104,474,o),
(96,460,o),
(90,413,c),
(108,413,o),
(125,413,o),
(141,412,c),
(119,285,o),
(96,162,o),
(96,89,cs),
(96,20,o),
(125,-8,o),
(168,-8,cs),
(182,-8,o),
(202,-3,o),
(222,11,c),
(292,1,o),
(379,-10,o),
(424,-10,cs),
(522,-10,o),
(577,-5,o),
(585,105,c),
(547,85,o),
(451,79,o),
(347,79,cs),
(298,79,o),
(250,81,o),
(209,83,c),
(208,92,o),
(208,102,o),
(208,112,cs),
(208,191,o),
(222,298,o),
(239,407,c),
(288,403,o),
(327,398,o),
(369,398,cs)
);
},
{
closed = 1;
nodes = (
(373,1043,o),
(346,1055,o),
(315,1055,cs),
(293,1055,o),
(270,1047,o),
(246,1032,c),
(241,1008,o),
(239,989,o),
(239,975,cs),
(239,943,o),
(253,928,o),
(293,928,cs),
(314,928,o),
(338,936,o),
(362,951,c),
(369,977,o),
(373,997,o),
(373,1012,cs)
);
},
{
closed = 1;
nodes = (
(607,1043,o),
(580,1055,o),
(549,1055,cs),
(527,1055,o),
(505,1047,o),
(480,1032,c),
(476,1008,o),
(473,989,o),
(473,975,cs),
(473,943,o),
(487,928,o),
(527,928,cs),
(548,928,o),
(572,936,o),
(596,951,c),
(604,977,o),
(607,997,o),
(607,1012,cs)
);
},
{
closed = 1;
nodes = (
(444,398,o),
(499,403,o),
(507,512,c),
(457,486,o),
(352,480,o),
(251,479,c),
(272,605,o),
(293,730,o),
(293,798,c),
(370,786,o),
(453,776,o),
(528,776,cs),
(598,776,o),
(636,793,o),
(643,884,c,{
name = hr01;
}),
(609,868,o),
(550,865,o),
(483,865,cs,{
name = hr02;
}),
(430,865,o),
(373,867,o),
(321,867,cs),
(262,867,o),
(196,864,o),
(165,839,c),
(173,815,o),
(180,769,o),
(180,741,cs),
(180,666,o),
(167,573,o),
(152,478,c),
(104,474,o),
(96,460,o),
(90,413,c),
(108,413,o),
(125,413,o),
(141,412,c),
(119,285,o),
(96,162,o),
(96,89,cs,{
name = hr03;
}),
(96,20,o),
(125,-8,o),
(168,-8,cs),
(182,-8,o),
(202,-3,o),
(222,11,c,{
name = hr04;
}),
(292,1,o),
(379,-10,o),
(424,-10,cs),
(522,-10,o),
(577,-5,o),
(585,105,c),
(547,85,o),
(451,79,o),
(347,79,cs,{
name = hr05;
}),
(298,79,o),
(250,81,o),
(209,83,c),
(208,92,o),
(208,102,o),
(208,112,cs),
(208,191,o),
(222,298,o),
(239,407,c),
(288,403,o),
(327,398,o),
(369,398,cs)
);
},
{
closed = 1;
nodes = (
(373,1043,o),
(346,1055,o),
(315,1055,cs),
(293,1055,o),
(270,1047,o),
(246,1032,c),
(241,1008,o),
(239,989,o),
(239,975,cs),
(239,943,o),
(253,928,o),
(293,928,cs),
(314,928,o),
(338,936,o),
(362,951,c),
(369,977,o),
(373,997,o),
(373,1012,cs,{
name = hr00;
})
);
},
{
closed = 1;
nodes = (
(607,1043,o),
(580,1055,o),
(549,1055,cs),
(527,1055,o),
(505,1047,o),
(480,1032,c),
(476,1008,o),
(473,989,o),
(473,975,cs),
(473,943,o),
(487,928,o),
(527,928,cs),
(548,928,o),
(572,936,o),
(596,951,c),
(604,977,o),
(607,997,o),
(607,1012,cs)
);
}
);
};
layerId = master01;
shapes = (
{
ref = E;
},
{
pos = (223,0);
ref = dieresiscomb.case;
}
);
width = 602;
}
);
unicode = 203;
},
{
glyphname = Edotaccent;
lastChange = "2022-03-30 08:14:18 +0000";
layers = (
{
background = {
shapes = (
{
closed = 1;
nodes = (
(444,398,o),
(499,403,o),
(507,512,c),
(457,486,o),
(352,480,o),
(251,479,c),
(272,605,o),
(293,730,o),
(293,798,c),
(370,786,o),
(453,776,o),
(528,776,cs),
(598,776,o),
(636,793,o),
(643,884,c,{
name = hr01;
}),
(609,868,o),
(550,865,o),
(483,865,cs,{
name = hr02;
}),
(430,865,o),
(373,867,o),
(321,867,cs),
(262,867,o),
(196,864,o),
(165,839,c),
(173,815,o),
(180,769,o),
(180,741,cs),
(180,666,o),
(167,573,o),
(152,478,c),
(104,474,o),
(96,460,o),
(90,413,c),
(108,413,o),
(125,413,o),
(141,412,c),
(119,285,o),
(96,162,o),
(96,89,cs,{
name = hr03;
}),
(96,20,o),
(125,-8,o),
(168,-8,cs),
(182,-8,o),
(202,-3,o),
(222,11,c,{
name = hr04;
}),
(292,1,o),
(379,-10,o),
(424,-10,cs),
(522,-10,o),
(577,-5,o),
(585,105,c),
(547,85,o),
(451,79,o),
(347,79,cs,{
name = hr05;
}),
(298,79,o),
(250,81,o),
(209,83,c),
(208,92,o),
(208,102,o),
(208,112,cs),
(208,191,o),
(222,298,o),
(239,407,c),
(288,403,o),
(327,398,o),
(369,398,cs)
);
},
{
closed = 1;
nodes = (
(498,1051,o),
(467,1065,o),
(432,1065,cs),
(406,1065,o),
(380,1056,o),
(352,1038,c),
(347,1011,o),
(344,989,o),
(344,972,cs),
(344,936,o),
(361,918,o),
(406,918,cs),
(431,918,o),
(458,927,o),
(486,945,c),
(494,974,o),
(498,998,o),
(498,1015,cs,{
name = hr00;
})
);
}
);
};
layerId = master01;
shapes = (
{
ref = E;
},
{
pos = (208,0);
ref = dotaccentcomb.case;
}
);
width = 602;
}
);
unicode = 278;
},
{
glyphname = Egrave;
lastChange = "2022-03-30 08:14:18 +0000";
layers = (
{
background = {
shapes = (
{
closed = 1;
nodes = (
(444,398,o),
(499,403,o),
(507,512,c),
(457,486,o),
(352,480,o),
(251,479,c),
(272,605,o),
(293,730,o),
(293,798,c),
(370,786,o),
(453,776,o),
(528,776,cs),
(598,776,o),
(636,793,o),
(643,884,c),
(609,868,o),
(550,865,o),
(483,865,cs),
(430,865,o),
(373,867,o),
(321,867,cs),
(262,867,o),
(196,864,o),
(165,839,c),
(173,815,o),
(180,769,o),
(180,741,cs),
(180,666,o),
(167,573,o),
(152,478,c),
(104,474,o),
(96,460,o),
(90,413,c),
(108,413,o),
(125,413,o),
(141,412,c),
(119,285,o),
(96,162,o),
(96,89,cs),
(96,20,o),
(125,-8,o),
(168,-8,cs),
(182,-8,o),
(202,-3,o),
(222,11,c),
(292,1,o),
(379,-10,o),
(424,-10,cs),
(522,-10,o),
(577,-5,o),
(585,105,c),
(547,85,o),
(451,79,o),
(347,79,cs),
(298,79,o),
(250,81,o),
(209,83,c),
(208,92,o),
(208,102,o),
(208,112,cs),
(208,191,o),
(222,298,o),
(239,407,c),
(288,403,o),
(327,398,o),
(369,398,cs)
);
},
{
closed = 1;
nodes = (
(388,969,o),
(497,911,o),
(517,911,cs),
(524,911,o),
(534,921,o),
(544,939,c),
(435,1021,o),
(400,1053,o),
(383,1084,c),
(364,1088,o),
(349,1089,o),
(336,1089,cs),
(292,1089,o),
(279,1073,o),
(279,1061,cs),
(279,1048,o),
(285,1042,o),
(316,1020,cs)
);
},
{
closed = 1;
nodes = (
(444,398,o),
(499,403,o),
(507,512,c),
(457,486,o),
(352,480,o),
(251,479,c),
(272,605,o),
(293,730,o),
(293,798,c),
(370,786,o),
(453,776,o),
(528,776,cs),
(598,776,o),
(636,793,o),
(643,884,c,{
name = hr01;
}),
(609,868,o),
(550,865,o),
(483,865,cs,{
name = hr02;
}),
(430,865,o),
(373,867,o),
(321,867,cs),
(262,867,o),
(196,864,o),
(165,839,c),
(173,815,o),
(180,769,o),
(180,741,cs),
(180,666,o),
(167,573,o),
(152,478,c),
(104,474,o),
(96,460,o),
(90,413,c),
(108,413,o),
(125,413,o),
(141,412,c),
(119,285,o),
(96,162,o),
(96,89,cs,{
name = hr03;
}),
(96,20,o),
(125,-8,o),
(168,-8,cs),
(182,-8,o),
(202,-3,o),
(222,11,c,{
name = hr04;
}),
(292,1,o),
(379,-10,o),
(424,-10,cs),
(522,-10,o),
(577,-5,o),
(585,105,c),
(547,85,o),
(451,79,o),
(347,79,cs,{
name = hr05;
}),
(298,79,o),
(250,81,o),
(209,83,c),
(208,92,o),
(208,102,o),
(208,112,cs),
(208,191,o),
(222,298,o),
(239,407,c),
(288,403,o),
(327,398,o),
(369,398,cs)
);
},
{
closed = 1;
nodes = (
(387,969,o),
(496,911,o),
(516,911,cs),
(523,911,o),
(533,921,o),
(543,939,c),
(434,1021,o),
(399,1053,o),
(382,1084,c),
(363,1088,o),
(348,1089,o),
(335,1089,cs),
(291,1089,o),
(278,1073,o),
(278,1061,cs),
(278,1048,o),
(284,1042,o),
(315,1020,cs,{
name = hr00;
})
);
}
);
};
layerId = master01;
shapes = (
{
ref = E;
},
{
pos = (127,0);
ref = gravecomb.case;
}
);
width = 602;
}
);
unicode = 200;
},
{
glyphname = Emacron;
lastChange = "2022-03-30 08:14:18 +0000";
layers = (
{
background = {
shapes = (
{
closed = 1;
nodes = (
(444,398,o),
(499,403,o),
(507,512,c),
(457,486,o),
(352,480,o),
(251,479,c),
(272,605,o),
(293,730,o),
(293,798,c),
(370,786,o),
(453,776,o),
(528,776,cs),
(598,776,o),
(636,793,o),
(643,884,c,{
name = hr01;
}),
(609,868,o),
(550,865,o),
(483,865,cs,{
name = hr02;
}),
(430,865,o),
(373,867,o),
(321,867,cs),
(262,867,o),
(196,864,o),
(165,839,c),
(173,815,o),
(180,769,o),
(180,741,cs),
(180,666,o),
(167,573,o),
(152,478,c),
(104,474,o),
(96,460,o),
(90,413,c),
(108,413,o),
(125,413,o),
(141,412,c),
(119,285,o),
(96,162,o),
(96,89,cs,{
name = hr03;
}),
(96,20,o),
(125,-8,o),
(168,-8,cs),
(182,-8,o),
(202,-3,o),
(222,11,c,{
name = hr04;
}),
(292,1,o),
(379,-10,o),
(424,-10,cs),
(522,-10,o),
(577,-5,o),
(585,105,c),
(547,85,o),
(451,79,o),
(347,79,cs,{
name = hr05;
}),
(298,79,o),
(250,81,o),
(209,83,c),
(208,92,o),
(208,102,o),
(208,112,cs),
(208,191,o),
(222,298,o),
(239,407,c),
(288,403,o),
(327,398,o),
(369,398,cs)
);
},
{
closed = 1;
nodes = (
(278,978,o),
(289,950,o),
(299,937,c),
(318,947,o),
(357,952,o),
(380,952,cs,{
name = hr01;
}),
(404,952,o),
(440,948,o),
(470,948,cs),
(540,948,o),
(564,970,o),
(564,1000,cs),
(564,1017,o),
(561,1032,o),
(550,1045,c,{
name = hr02;
}),
(530,1033,o),
(507,1026,o),
(479,1026,cs,{
name = hr03;
}),
(443,1026,o),
(368,1036,o),
(334,1036,cs),
(306,1036,o),
(278,1026,o),
(278,1000,cs)
);
}
);
};
layerId = master01;
shapes = (
{
ref = E;
},
{
pos = (205,0);
ref = macroncomb.case;
}
);
width = 602;
}
);
unicode = 274;
},
{
glyphname = Eogonek;
lastChange = "2022-03-30 08:31:43 +0000";
layers = (
{
background = {
shapes = (
{
closed = 1;
nodes = (
(390,1,o),
(323,-66,o),
(323,-152,cs),
(323,-208,o),
(359,-264,o),
(436,-264,cs),
(515,-264,o),
(565,-215,o),
(565,-178,cs),
(565,-150,o),
(558,-136,o),
(543,-125,c),
(532,-172,o),
(487,-200,o),
(450,-200,cs),
(423,-200,o),
(401,-180,o),
(401,-145,cs),
(401,-118,o),
(404,-52,o),
(514,-3,c),
(514,48,l)
);
},
{
closed = 1;
nodes = (
(444,398,o),
(499,403,o),
(507,512,c),
(457,486,o),
(352,480,o),
(251,479,c),
(272,605,o),
(293,730,o),
(293,798,c),
(370,786,o),
(453,776,o),
(528,776,cs),
(598,776,o),
(636,793,o),
(643,884,c,{
name = hr01;
}),
(609,868,o),
(550,865,o),
(483,865,cs,{
name = hr02;
}),
(430,865,o),
(373,867,o),
(321,867,cs),
(262,867,o),
(196,864,o),
(165,839,c),
(173,815,o),
(180,769,o),
(180,741,cs),
(180,666,o),
(167,573,o),
(152,478,c),
(104,474,o),
(96,460,o),
(90,413,c),
(108,413,o),
(125,413,o),
(141,412,c),
(119,285,o),
(96,162,o),
(96,89,cs,{
name = hr03;
}),
(96,20,o),
(125,-8,o),
(168,-8,cs),
(182,-8,o),
(202,-3,o),
(222,11,c,{
name = hr04;
}),
(292,1,o),
(379,-10,o),
(424,-10,cs),
(522,-10,o),
(577,-5,o),
(585,105,c),
(547,85,o),
(451,79,o),
(347,79,cs,{
name = hr05;
}),
(298,79,o),
(250,81,o),
(209,83,c),
(208,92,o),
(208,102,o),
(208,112,cs),
(208,191,o),
(222,298,o),
(239,407,c),
(288,403,o),
(327,398,o),
(369,398,cs)
);
}
);
};
layerId = master01;
shapes = (
{
ref = E;
},
{
closed = 1;
nodes = (
(390,1,o),
(323,-66,o),
(323,-152,cs),
(323,-208,o),
(359,-264,o),
(436,-264,cs),
(515,-264,o),
(565,-215,o),
(565,-178,cs),
(565,-150,o),
(558,-136,o),
(543,-125,c),
(532,-172,o),
(487,-200,o),
(450,-200,cs),
(423,-200,o),
(401,-180,o),
(401,-145,cs),
(401,-118,o),
(404,-52,o),
(514,-3,c),
(514,48,l)
);
}
);
width = 602;
}
);
unicode = 280;
},
{
glyphname = F;
lastChange = "2022-03-30 08:26:38 +0000";
layers = (
{
anchors = (
{
name = bottom;
pos = (285,0);
},
{
name = top;
pos = (285,889);
}
);
background = {
shapes = (
{
closed = 1;
nodes = (
(362,786,o),
(436,776,o),
(504,776,cs),
(573,776,o),
(612,793,o),
(619,884,c,{
name = hr01;
}),
(587,868,o),
(532,865,o),
(470,865,cs,{
name = hr02;
}),
(420,865,o),
(368,867,o),
(319,867,cs),
(262,867,o),
(196,864,o),
(165,839,c),
(173,815,o),
(180,769,o),
(180,741,cs),
(180,672,o),
(167,575,o),
(153,478,c),
(104,474,o),
(96,460,o),
(90,413,c),
(109,413,o),
(126,413,o),
(142,412,c),
(124,299,o),
(106,185,o),
(106,125,cs,{
name = hr03;
}),
(106,24,o),
(137,-7,o),
(184,-7,cs),
(200,-7,o),
(228,0,o),
(253,29,c),
(220,65,o),
(214,114,o),
(214,166,cs),
(214,233,o),
(225,319,o),
(238,407,c),
(288,403,o),
(327,398,o),
(369,398,cs),
(444,398,o),
(499,403,o),
(507,512,c),
(456,486,o),
(351,480,o),
(250,479,c),
(270,603,o),
(292,724,o),
(293,798,c)
);
}
);
};
layerId = master01;
shapes = (
{
closed = 1;
nodes = (
(200,-7,o),
(228,0,o),
(253,29,c),
(220,65,o),
(214,114,o),
(214,166,cs),
(214,233,o),
(225,319,o),
(238,407,c),
(288,403,o),
(327,398,o),
(369,398,cs),
(444,398,o),
(499,403,o),
(507,512,c),
(456,486,o),
(351,480,o),
(250,479,c),
(270,603,o),
(292,724,o),
(293,798,c),
(362,786,o),
(436,776,o),
(504,776,cs),
(573,776,o),
(612,793,o),
(619,884,c,{
name = hr01;
}),
(587,868,o),
(532,865,o),
(470,865,cs,{
name = hr02;
}),
(420,865,o),
(368,867,o),
(319,867,cs),
(262,867,o),
(196,864,o),
(165,839,c),
(173,815,o),
(180,769,o),
(180,741,cs),
(180,672,o),
(167,575,o),
(153,478,c),
(104,474,o),
(96,460,o),
(90,413,c),
(109,413,o),
(126,413,o),
(142,412,c),
(124,299,o),
(106,185,o),
(106,125,cs,{
name = hr03;
}),
(106,24,o),
(137,-7,o),
(184,-7,cs)
);
}
);
width = 570;
}
);
unicode = 70;
},
{
glyphname = G;
lastChange = "2022-03-30 08:31:59 +0000";
layers = (
{
anchors = (
{
name = bottom;
pos = (345,0);
},
{
name = top;
pos = (434,889);
}
);
background = {
shapes = (
{
closed = 1;
nodes = (
(208,887,o),
(78,586,o),
(78,336,cs),
(78,138,o),
(161,-21,o),
(319,-21,cs),
(399,-21,o),
(469,18,o),
(519,70,c),
(524,13,o),
(547,-6,o),
(581,-6,cs,{
name = hr01;
}),
(595,-6,o),
(620,0,o),
(641,24,c),
(618,51,o),
(611,75,o),
(611,109,cs),
(611,180,o),
(645,316,o),
(645,377,cs,{
name = hr02;
}),
(645,435,o),
(626,454,o),
(590,454,cs),
(574,454,o),
(545,446,o),
(532,435,c),
(544,409,o),
(547,380,o),
(547,349,cs),
(547,301,o),
(528,222,o),
(521,144,c),
(480,86,o),
(417,49,o),
(350,49,cs),
(253,49,o),
(186,170,o),
(186,382,cs),
(186,504,o),
(228,810,o),
(411,810,cs),
(493,810,o),
(536,762,o),
(567,693,c),
(588,712,o),
(618,738,o),
(618,793,cs),
(618,855,o),
(550,887,o),
(463,887,cs)
);
}
);
};
layerId = master01;
shapes = (
{
closed = 1;
nodes = (
(399,-21,o),
(469,18,o),
(519,70,c),
(524,13,o),
(547,-6,o),
(581,-6,cs,{
name = hr01;
}),
(595,-6,o),
(620,0,o),
(641,24,c),
(618,51,o),
(611,75,o),
(611,109,cs),
(611,180,o),
(645,316,o),
(645,377,cs,{
name = hr02;
}),
(645,435,o),
(626,454,o),
(590,454,cs),
(574,454,o),
(545,446,o),
(532,435,c),
(544,409,o),
(547,380,o),
(547,349,cs),
(547,301,o),
(528,222,o),
(521,144,c),
(480,86,o),
(417,49,o),
(350,49,cs),
(253,49,o),
(186,170,o),
(186,382,cs),
(186,504,o),
(228,810,o),
(411,810,cs),
(493,810,o),
(536,762,o),
(567,693,c),
(588,712,o),
(618,738,o),
(618,793,cs),
(618,855,o),
(550,887,o),
(463,887,cs),
(208,887,o),
(78,586,o),
(78,336,cs),
(78,138,o),
(161,-21,o),
(319,-21,cs)
);
}
);
width = 689;
}
);
unicode = 71;
},
{
glyphname = Gbreve;
lastChange = "2022-03-30 08:37:26 +0000";
layers = (
{
background = {
shapes = (
{
closed = 1;
nodes = (
(208,887,o),
(78,586,o),
(78,336,cs),
(78,138,o),
(161,-21,o),
(319,-21,cs),
(399,-21,o),
(469,18,o),
(519,70,c),
(524,13,o),
(547,-6,o),
(581,-6,cs,{
name = hr01;
}),
(595,-6,o),
(620,0,o),
(641,24,c),
(618,51,o),
(611,75,o),
(611,109,cs),
(611,180,o),
(645,316,o),
(645,377,cs,{
name = hr02;
}),
(645,435,o),
(626,454,o),
(590,454,cs),
(574,454,o),
(545,446,o),
(532,435,c),
(544,409,o),
(547,380,o),
(547,349,cs),
(547,301,o),
(528,222,o),
(521,144,c),
(480,86,o),
(417,49,o),
(350,49,cs),
(253,49,o),
(186,170,o),
(186,382,cs),
(186,504,o),
(228,810,o),
(411,810,cs),
(493,810,o),
(536,762,o),
(567,693,c),
(588,712,o),
(618,738,o),
(618,793,cs),
(618,855,o),
(550,887,o),
(463,887,cs)
);
},
{
closed = 1;
nodes = (
(298,1089,o),
(279,1079,o),
(269,1061,c),
(310,969,o),
(343,911,o),
(420,911,cs),
(497,911,o),
(535,961,o),
(599,1061,c),
(589,1079,o),
(569,1089,o),
(562,1089,cs),
(545,1089,o),
(494,987,o),
(422,987,cs),
(355,987,o),
(325,1089,o),
(306,1089,cs,{
name = hr00;
})
);
}
);
};
layerId = master01;
shapes = (
{
ref = G;
},
{
pos = (249,0);
ref = brevecomb.case;
}
);
width = 689;
}
);
unicode = 286;
},
{
glyphname = Gcircumflex;
lastChange = "2022-03-30 08:16:42 +0000";
layers = (
{
background = {
shapes = (
{
closed = 1;
nodes = (
(208,887,o),
(78,586,o),
(78,336,cs),
(78,138,o),
(161,-21,o),
(319,-21,cs),
(399,-21,o),
(469,18,o),
(519,70,c),
(524,13,o),
(547,-6,o),
(581,-6,cs,{
name = hr01;
}),
(595,-6,o),
(620,0,o),
(641,24,c),
(618,51,o),
(611,75,o),
(611,109,cs),
(611,180,o),
(645,316,o),
(645,377,cs,{
name = hr02;
}),
(645,435,o),
(626,454,o),
(590,454,cs),
(574,454,o),
(545,446,o),
(532,435,c),
(544,409,o),
(547,380,o),
(547,349,cs),
(547,301,o),
(528,222,o),
(521,144,c),
(480,86,o),
(417,49,o),
(350,49,cs),
(253,49,o),
(186,170,o),
(186,382,cs),
(186,504,o),
(228,810,o),
(411,810,cs),
(493,810,o),
(536,762,o),
(567,693,c),
(588,712,o),
(618,738,o),
(618,793,cs),
(618,855,o),
(550,887,o),
(463,887,cs)
);
},
{
closed = 1;
nodes = (
(590,911,o),
(600,921,o),
(609,939,c),
(546,1001,o),
(509,1065,o),
(500,1078,c),
(489,1086,o),
(469,1089,o),
(449,1089,cs),
(432,1089,o),
(416,1087,o),
(406,1084,c),
(389,1053,o),
(369,1021,o),
(260,939,c),
(270,921,o),
(280,911,o),
(287,911,cs),
(304,911,o),
(381,957,o),
(446,1002,c),
(516,946,o),
(563,911,o),
(582,911,cs,{
name = hr00;
})
);
}
);
};
layerId = master01;
shapes = (
{
ref = G;
},
{
pos = (211,0);
ref = circumflexcomb.case;
}
);
width = 689;
}
);
unicode = 284;
},
{
glyphname = Gcommaaccent;
lastChange = "2022-03-30 10:56:47 +0000";
layers = (
{
background = {
shapes = (
{
closed = 1;
nodes = (
(208,887,o),
(78,586,o),
(78,336,cs),
(78,138,o),
(161,-21,o),
(319,-21,cs),
(399,-21,o),
(469,18,o),
(519,70,c),
(524,13,o),
(547,-6,o),
(581,-6,cs,{
name = hr01;
}),
(595,-6,o),
(620,0,o),
(641,24,c),
(618,51,o),
(611,75,o),
(611,109,cs),
(611,180,o),
(645,316,o),
(645,377,cs,{
name = hr02;
}),
(645,435,o),
(626,454,o),
(590,454,cs),
(574,454,o),
(545,446,o),
(532,435,c),
(544,409,o),
(547,380,o),
(547,349,cs),
(547,301,o),
(528,222,o),
(521,144,c),
(480,86,o),
(417,49,o),
(350,49,cs),
(253,49,o),
(186,170,o),
(186,382,cs),
(186,504,o),
(228,810,o),
(411,810,cs),
(493,810,o),
(536,762,o),
(567,693,c),
(588,712,o),
(618,738,o),
(618,793,cs),
(618,855,o),
(550,887,o),
(463,887,cs)
);
},
{
closed = 1;
nodes = (
(329,-326,o),
(419,-235,o),
(419,-136,cs),
(419,-90,o),
(396,-67,o),
(349,-67,cs),
(324,-67,o),
(299,-75,o),
(272,-91,c),
(293,-111,o),
(304,-140,o),
(304,-170,cs),
(304,-228,o),
(264,-273,o),
(223,-281,c),
(225,-310,o),
(240,-326,o),
(268,-326,cs,{
name = hr00;
})
);
}
);
};
layerId = master01;
shapes = (
{
ref = G;
},
{
pos = (160,0);
ref = commaaccentcomb;
}
);
width = 689;
}
);
unicode = 290;
},
{
glyphname = Gdotaccent;
lastChange = "2022-03-30 08:14:32 +0000";
layers = (
{
background = {
shapes = (
{
closed = 1;
nodes = (
(208,887,o),
(78,586,o),
(78,336,cs),
(78,138,o),
(161,-21,o),
(319,-21,cs),
(399,-21,o),
(469,18,o),
(519,70,c),
(524,13,o),
(547,-6,o),
(581,-6,cs,{
name = hr01;
}),
(595,-6,o),
(620,0,o),
(641,24,c),
(618,51,o),
(611,75,o),
(611,109,cs),
(611,180,o),
(645,316,o),
(645,377,cs,{
name = hr02;
}),
(645,435,o),
(626,454,o),
(590,454,cs),
(574,454,o),
(545,446,o),
(532,435,c),
(544,409,o),
(547,380,o),
(547,349,cs),
(547,301,o),
(528,222,o),
(521,144,c),
(480,86,o),
(417,49,o),
(350,49,cs),
(253,49,o),
(186,170,o),
(186,382,cs),
(186,504,o),
(228,810,o),
(411,810,cs),
(493,810,o),
(536,762,o),
(567,693,c),
(588,712,o),
(618,738,o),
(618,793,cs),
(618,855,o),
(550,887,o),
(463,887,cs)
);
},
{
closed = 1;
nodes = (
(511,1051,o),
(480,1065,o),
(445,1065,cs),
(419,1065,o),
(393,1056,o),
(365,1038,c),
(360,1011,o),
(357,989,o),
(357,972,cs),
(357,936,o),
(374,918,o),
(419,918,cs),
(444,918,o),
(471,927,o),
(499,945,c),
(507,974,o),
(511,998,o),
(511,1015,cs,{
name = hr00;
})
);
}
);
};
layerId = master01;
shapes = (
{
ref = G;
},
{
pos = (230,0);
ref = dotaccentcomb.case;
}
);
width = 689;
}
);
unicode = 288;
},
{
glyphname = H;
lastChange = "2022-03-30 08:26:38 +0000";
layers = (
{
anchors = (
{
name = bottom;
pos = (391,0);
},
{
name = center;
pos = (391,445);
},
{
name = top;
pos = (462,889);
},
{
name = topleft;
pos = (20,889);
}
);
background = {
shapes = (
{
closed = 1;
nodes = (
(631,352,o),
(708,661,o),
(708,783,cs,{
name = hr01;
}),
(708,862,o),
(685,889,o),
(640,889,cs),
(620,889,o),
(587,879,o),
(573,866,c),
(593,826,o),
(594,779,o),
(594,731,cs),
(594,661,o),
(581,565,o),
(567,468,c),
(240,468,l),
(261,595,o),
(284,716,o),
(284,783,cs),
(284,862,o),
(260,889,o),
(215,889,cs),
(196,889,o),
(163,879,o),
(148,866,c),
(168,826,o),
(169,779,o),
(169,731,cs),
(169,563,o),
(98,246,o),
(98,125,cs,{
name = hr02;
}),
(98,24,o),
(129,-7,o),
(176,-7,cs),
(192,-7,o),
(220,0,o),
(245,29,c),
(212,65,o),
(207,114,o),
(207,166,cs),
(207,231,o),
(216,312,o),
(229,395,c),
(556,395,l),
(539,285,o),
(522,183,o),
(522,125,cs),
(522,24,o),
(553,-7,o),
(600,-7,cs),
(617,-7,o),
(645,0,o),
(669,29,c),
(637,65,o),
(631,114,o),
(631,166,cs)
);
}
);
};
layerId = master01;
shapes = (
{
closed = 1;
nodes = (
(192,-7,o),
(220,0,o),
(245,29,c),
(212,65,o),
(207,114,o),
(207,166,cs),
(207,231,o),
(216,312,o),
(229,395,c),
(556,395,l),
(539,285,o),
(522,183,o),
(522,125,cs),
(522,24,o),
(553,-7,o),
(600,-7,cs),
(617,-7,o),
(645,0,o),
(669,29,c),
(637,65,o),
(631,114,o),
(631,166,cs),
(631,352,o),
(708,661,o),
(708,783,cs,{
name = hr01;
}),
(708,862,o),
(685,889,o),
(640,889,cs),
(620,889,o),
(587,879,o),
(573,866,c),
(593,826,o),
(594,779,o),
(594,731,cs),
(594,661,o),
(581,565,o),
(567,468,c),
(240,468,l),
(261,595,o),
(284,716,o),
(284,783,cs),
(284,862,o),
(260,889,o),
(215,889,cs),
(196,889,o),
(163,879,o),
(148,866,c),
(168,826,o),
(169,779,o),
(169,731,cs),
(169,563,o),
(98,246,o),
(98,125,cs,{
name = hr02;
}),
(98,24,o),
(129,-7,o),
(176,-7,cs)
);
}
);
width = 782;
}
);
unicode = 72;
},
{
glyphname = Hbar;
lastChange = "2022-03-30 08:32:18 +0000";
layers = (
{
background = {
shapes = (
{
closed = 1;
nodes = (
(631,352,o),
(708,661,o),
(708,783,cs,{
name = hr01;
}),
(708,862,o),
(685,889,o),
(640,889,cs),
(620,889,o),
(587,879,o),
(573,866,c),
(593,826,o),
(594,779,o),
(594,731,cs),
(594,661,o),
(581,565,o),
(567,468,c),
(240,468,l),
(261,595,o),
(284,716,o),
(284,783,cs),
(284,862,o),
(260,889,o),
(215,889,cs),
(196,889,o),
(163,879,o),
(148,866,c),
(168,826,o),
(169,779,o),
(169,731,cs),
(169,563,o),
(98,246,o),
(98,125,cs,{
name = hr02;
}),
(98,24,o),
(129,-7,o),
(176,-7,cs),
(192,-7,o),
(220,0,o),
(245,29,c),
(212,65,o),
(207,114,o),
(207,166,cs),
(207,231,o),
(216,312,o),
(229,395,c),
(556,395,l),
(539,285,o),
(522,183,o),
(522,125,cs),
(522,24,o),
(553,-7,o),
(600,-7,cs),
(617,-7,o),
(645,0,o),
(669,29,c),
(637,65,o),
(631,114,o),
(631,166,cs)
);
},
{
closed = 1;
nodes = (
(71,623,o),
(87,604,o),
(104,588,c),
(141,601,o),
(225,606,o),
(269,606,cs,{
name = hr01;
}),
(314,606,o),
(538,603,o),
(593,603,cs),
(729,603,o),
(778,624,o),
(778,654,cs),
(778,670,o),
(773,685,o),
(752,700,c),
(712,686,o),
(580,679,o),
(528,679,cs),
(458,679,o),
(232,690,o),
(169,690,cs),
(113,690,o),
(71,676,o),
(71,649,cs)
);
}
);
};
layerId = master01;
shapes = (
{
alignment = -1;
ref = H;
},
{
closed = 1;
nodes = (
(141,601,o),
(225,606,o),
(269,606,cs,{
name = hr01;
}),
(314,606,o),
(538,603,o),
(593,603,cs),
(729,603,o),
(778,624,o),
(778,654,cs),
(778,670,o),
(773,685,o),
(752,700,c),
(712,686,o),
(580,679,o),
(528,679,cs),
(458,679,o),
(232,690,o),
(169,690,cs),
(113,690,o),
(71,676,o),
(71,649,cs),
(71,623,o),
(87,604,o),
(104,588,c)
);
}
);
width = 782;
}
);
unicode = 294;
},
{
glyphname = Hcircumflex;
lastChange = "2022-03-30 08:17:00 +0000";
layers = (
{
background = {
shapes = (
{
closed = 1;
nodes = (
(631,352,o),
(708,661,o),
(708,783,cs,{
name = hr01;
}),
(708,862,o),
(685,889,o),
(640,889,cs),
(620,889,o),
(587,879,o),
(573,866,c),
(593,826,o),
(594,779,o),
(594,731,cs),
(594,661,o),
(581,565,o),
(567,468,c),
(240,468,l),
(261,595,o),
(284,716,o),
(284,783,cs),
(284,862,o),
(260,889,o),
(215,889,cs),
(196,889,o),
(163,879,o),
(148,866,c),
(168,826,o),
(169,779,o),
(169,731,cs),
(169,563,o),
(98,246,o),
(98,125,cs,{
name = hr02;
}),
(98,24,o),
(129,-7,o),
(176,-7,cs),
(192,-7,o),
(220,0,o),
(245,29,c),
(212,65,o),
(207,114,o),
(207,166,cs),
(207,231,o),
(216,312,o),
(229,395,c),
(556,395,l),
(539,285,o),
(522,183,o),
(522,125,cs),
(522,24,o),
(553,-7,o),
(600,-7,cs),
(617,-7,o),
(645,0,o),
(669,29,c),
(637,65,o),
(631,114,o),
(631,166,cs)
);
},
{
closed = 1;
nodes = (
(585,911,o),
(595,921,o),
(604,939,c),
(541,1001,o),
(504,1065,o),
(495,1078,c),
(484,1086,o),
(464,1089,o),
(444,1089,cs),
(427,1089,o),
(411,1087,o),
(401,1084,c),
(384,1053,o),
(364,1021,o),
(255,939,c),
(265,921,o),
(275,911,o),
(282,911,cs),
(299,911,o),
(376,957,o),
(441,1002,c),
(511,946,o),
(558,911,o),
(577,911,cs,{
name = hr00;
})
);
}
);
};
layerId = master01;
shapes = (
{
ref = H;
},
{
pos = (239,0);
ref = circumflexcomb.case;
}
);
width = 782;
}
);
unicode = 292;
},
{
glyphname = I;
lastChange = "2022-03-30 08:26:38 +0000";
layers = (
{
anchors = (
{
name = bottom;
pos = (166,0);
},
{
name = ogonek;
pos = (299,10);
},
{
name = top;
pos = (221,889);
},
{
name = topleft;
pos = (20,889);
}
);
background = {
shapes = (
{
closed = 1;
nodes = (
(207,352,o),
(284,661,o),
(284,783,cs,{
name = hr01;
}),
(284,862,o),
(260,889,o),
(215,889,cs),
(196,889,o),
(163,879,o),
(148,866,c),
(168,826,o),
(169,779,o),
(169,731,cs),
(169,563,o),
(98,246,o),
(98,125,cs,{
name = hr02;
}),
(98,24,o),
(129,-7,o),
(176,-7,cs),
(192,-7,o),
(220,0,o),
(245,29,c),
(212,65,o),
(207,114,o),
(207,166,cs)
);
}
);
};
layerId = master01;
shapes = (
{
closed = 1;
nodes = (
(192,-7,o),
(220,0,o),
(245,29,c),
(212,65,o),
(207,114,o),
(207,166,cs),
(207,352,o),
(284,661,o),
(284,783,cs,{
name = hr01;
}),
(284,862,o),
(260,889,o),
(215,889,cs),
(196,889,o),
(163,879,o),
(148,866,c),
(168,826,o),
(169,779,o),
(169,731,cs),
(169,563,o),
(98,246,o),
(98,125,cs,{
name = hr02;
}),
(98,24,o),
(129,-7,o),
(176,-7,cs)
);
}
);
width = 332;
}
);
unicode = 73;
},
{
glyphname = IJ;
lastChange = "2022-03-30 08:12:42 +0000";
layers = (
{
background = {
shapes = (
{
closed = 1;
nodes = (
(207,352,o),
(284,661,o),
(284,783,cs,{
name = hr01;
}),
(284,862,o),
(260,889,o),
(215,889,cs),
(196,889,o),
(163,879,o),
(148,866,c),
(168,826,o),
(169,779,o),
(169,731,cs),
(169,563,o),
(98,246,o),
(98,125,cs,{
name = hr02;
}),
(98,24,o),
(129,-7,o),
(176,-7,cs),
(192,-7,o),
(220,0,o),
(245,29,c),
(212,65,o),
(207,114,o),
(207,166,cs)
);
},
{
closed = 1;
nodes = (
(608,862,o),
(584,889,o),
(540,889,cs),
(520,889,o),
(487,879,o),
(473,866,c),
(493,826,o),
(494,779,o),
(494,731,cs),
(494,438,o),
(455,-149,o),
(268,-149,cs),
(200,-149,o),
(176,-108,o),
(156,-51,c),
(141,-65,o),
(120,-91,o),
(120,-130,cs),
(120,-208,o),
(190,-229,o),
(240,-229,cs),
(534,-229,o),
(608,404,o),
(608,783,cs,{
name = hr00;
})
);
}
);
};
layerId = master01;
shapes = (
{
ref = I;
},
{
pos = (332,0);
ref = J;
}
);
width = 668;
}
);
unicode = 306;
},
{
glyphname = Iacute;
lastChange = "2022-03-30 08:14:50 +0000";
layers = (
{
background = {
shapes = (
{
closed = 1;
nodes = (
(207,352,o),
(284,661,o),
(284,783,cs),
(284,862,o),
(260,889,o),
(215,889,cs),
(196,889,o),
(163,879,o),
(148,866,c),
(168,826,o),
(169,779,o),
(169,731,cs),
(169,563,o),
(98,246,o),
(98,125,cs),
(98,24,o),
(129,-7,o),
(176,-7,cs),
(192,-7,o),
(220,0,o),
(245,29,c),
(212,65,o),
(207,114,o),
(207,166,cs)
);
},
{
closed = 1;
nodes = (
(347,1042,o),
(353,1048,o),
(353,1061,cs),
(353,1073,o),
(340,1089,o),
(296,1089,cs),
(283,1089,o),
(268,1088,o),
(249,1084,c),
(232,1053,o),
(198,1021,o),
(89,939,c),
(98,921,o),
(108,911,o),
(116,911,cs),
(136,911,o),
(244,969,o),
(316,1020,cs)
);
},
{
closed = 1;
nodes = (
(207,352,o),
(284,661,o),
(284,783,cs,{
name = hr01;
}),
(284,862,o),
(260,889,o),
(215,889,cs),
(196,889,o),
(163,879,o),
(148,866,c),
(168,826,o),
(169,779,o),
(169,731,cs),
(169,563,o),
(98,246,o),
(98,125,cs,{
name = hr02;
}),
(98,24,o),
(129,-7,o),
(176,-7,cs),
(192,-7,o),
(220,0,o),
(245,29,c),
(212,65,o),
(207,114,o),
(207,166,cs)
);
},
{
closed = 1;
nodes = (
(347,1042,o),
(353,1048,o),
(353,1061,cs),
(353,1073,o),
(340,1089,o),
(296,1089,cs),
(283,1089,o),
(268,1088,o),
(249,1084,c),
(232,1053,o),
(198,1021,o),
(89,939,c),
(98,921,o),
(108,911,o),
(116,911,cs),
(136,911,o),
(244,969,o),
(316,1020,cs,{
name = hr00;
})
);
}
);
};
layerId = master01;
shapes = (
{
ref = I;
},
{
pos = (-28,0);
ref = acutecomb.case;
}
);
width = 332;
}
);
unicode = 205;
},
{
glyphname = Ibreve;
lastChange = "2022-03-30 08:37:26 +0000";
layers = (
{
background = {
shapes = (
{
closed = 1;
nodes = (
(207,352,o),
(284,661,o),
(284,783,cs,{
name = hr01;
}),
(284,862,o),
(260,889,o),
(215,889,cs),
(196,889,o),
(163,879,o),
(148,866,c),
(168,826,o),
(169,779,o),
(169,731,cs),
(169,563,o),
(98,246,o),
(98,125,cs,{
name = hr02;
}),
(98,24,o),
(129,-7,o),
(176,-7,cs),
(192,-7,o),
(220,0,o),
(245,29,c),
(212,65,o),
(207,114,o),
(207,166,cs)
);
},
{
closed = 1;
nodes = (
(100,1089,o),
(81,1079,o),
(71,1061,c),
(112,969,o),
(145,911,o),
(222,911,cs),
(299,911,o),
(337,961,o),
(401,1061,c),
(391,1079,o),
(371,1089,o),
(364,1089,cs),
(347,1089,o),
(296,987,o),
(224,987,cs),
(157,987,o),
(127,1089,o),
(108,1089,cs,{
name = hr00;
})
);
}
);
};
layerId = master01;
shapes = (
{
ref = I;
},
{
pos = (36,0);
ref = brevecomb.case;
}
);
width = 332;
}
);
unicode = 300;
},
{
glyphname = Icircumflex;
lastChange = "2022-03-30 08:16:42 +0000";
layers = (
{
background = {
shapes = (
{
closed = 1;
nodes = (
(207,352,o),
(284,661,o),
(284,783,cs),
(284,862,o),
(260,889,o),
(215,889,cs),
(196,889,o),
(163,879,o),
(148,866,c),
(168,826,o),
(169,779,o),
(169,731,cs),
(169,563,o),
(98,246,o),
(98,125,cs),
(98,24,o),
(129,-7,o),
(176,-7,cs),
(192,-7,o),
(220,0,o),
(245,29,c),
(212,65,o),
(207,114,o),
(207,166,cs)
);
},
{
closed = 1;
nodes = (
(365,911,o),
(375,921,o),
(384,939,c),
(321,1001,o),
(284,1065,o),
(275,1078,c),
(264,1086,o),
(244,1089,o),
(224,1089,cs),
(207,1089,o),
(191,1087,o),
(181,1084,c),
(164,1053,o),
(144,1021,o),
(35,939,c),
(45,921,o),
(55,911,o),
(62,911,cs),
(79,911,o),
(156,957,o),
(221,1002,c),
(291,946,o),
(338,911,o),
(357,911,cs)
);
},
{
closed = 1;
nodes = (
(207,352,o),
(284,661,o),
(284,783,cs,{
name = hr01;
}),
(284,862,o),
(260,889,o),
(215,889,cs),
(196,889,o),
(163,879,o),
(148,866,c),
(168,826,o),
(169,779,o),
(169,731,cs),
(169,563,o),
(98,246,o),
(98,125,cs,{
name = hr02;
}),
(98,24,o),
(129,-7,o),
(176,-7,cs),
(192,-7,o),
(220,0,o),
(245,29,c),
(212,65,o),
(207,114,o),
(207,166,cs)
);
},
{
closed = 1;
nodes = (
(365,911,o),
(375,921,o),
(384,939,c),
(321,1001,o),
(284,1065,o),
(275,1078,c),
(264,1086,o),
(244,1089,o),
(224,1089,cs),
(207,1089,o),
(191,1087,o),
(181,1084,c),
(164,1053,o),
(144,1021,o),
(35,939,c),
(45,921,o),
(55,911,o),
(62,911,cs),
(79,911,o),
(156,957,o),
(221,1002,c),
(291,946,o),
(338,911,o),
(357,911,cs,{
name = hr00;
})
);
}
);
};
layerId = master01;
shapes = (
{
ref = I;
},
{
pos = (-2,0);
ref = circumflexcomb.case;
}
);
width = 332;
}
);
unicode = 206;
},
{
glyphname = Idieresis;
lastChange = "2022-03-30 08:24:07 +0000";
layers = (
{
background = {
shapes = (
{
closed = 1;
nodes = (
(199,1043,o),
(172,1055,o),
(141,1055,cs),
(119,1055,o),
(96,1047,o),
(72,1032,c),
(67,1008,o),
(65,989,o),
(65,975,cs),
(65,943,o),
(79,928,o),
(119,928,cs),
(140,928,o),
(164,936,o),
(188,951,c),
(195,977,o),
(199,997,o),
(199,1012,cs)
);
},
{
closed = 1;
nodes = (
(433,1043,o),
(406,1055,o),
(375,1055,cs),
(354,1055,o),
(331,1047,o),
(306,1032,c),
(302,1008,o),
(299,989,o),
(299,975,cs),
(299,943,o),
(313,928,o),
(354,928,cs),
(375,928,o),
(398,936,o),
(422,951,c),
(430,977,o),
(433,997,o),
(433,1012,cs)
);
},
{
closed = 1;
nodes = (
(207,352,o),
(284,661,o),
(284,783,cs),
(284,862,o),
(260,889,o),
(215,889,cs),
(196,889,o),
(163,879,o),
(148,866,c),
(168,826,o),
(169,779,o),
(169,731,cs),
(169,563,o),
(98,246,o),
(98,125,cs),
(98,24,o),
(129,-7,o),
(176,-7,cs),
(192,-7,o),
(220,0,o),
(245,29,c),
(212,65,o),
(207,114,o),
(207,166,cs)
);
},
{
closed = 1;
nodes = (
(207,352,o),
(284,661,o),
(284,783,cs,{
name = hr01;
}),
(284,862,o),
(260,889,o),
(215,889,cs),
(196,889,o),
(163,879,o),
(148,866,c),
(168,826,o),
(169,779,o),
(169,731,cs),
(169,563,o),
(98,246,o),
(98,125,cs,{
name = hr02;
}),
(98,24,o),
(129,-7,o),
(176,-7,cs),
(192,-7,o),
(220,0,o),
(245,29,c),
(212,65,o),
(207,114,o),
(207,166,cs)
);
},
{
closed = 1;
nodes = (
(199,1043,o),
(172,1055,o),
(141,1055,cs),
(119,1055,o),
(96,1047,o),
(72,1032,c),
(67,1008,o),
(65,989,o),
(65,975,cs),
(65,943,o),
(79,928,o),
(119,928,cs),
(140,928,o),
(164,936,o),
(188,951,c),
(195,977,o),
(199,997,o),
(199,1012,cs,{
name = hr00;
})
);
},
{
closed = 1;
nodes = (
(433,1043,o),
(406,1055,o),
(375,1055,cs),
(353,1055,o),
(331,1047,o),
(306,1032,c),
(302,1008,o),
(299,989,o),
(299,975,cs),
(299,943,o),
(313,928,o),
(353,928,cs),
(374,928,o),
(398,936,o),
(422,951,c),
(430,977,o),
(433,997,o),
(433,1012,cs)
);
}
);
};
layerId = master01;
shapes = (
{
ref = I;
},
{
pos = (32,0);
ref = dieresiscomb.case;
}
);
width = 332;
}
);
unicode = 207;
},
{
glyphname = Idotaccent;
lastChange = "2022-03-30 08:14:50 +0000";
layers = (
{
background = {
shapes = (
{
closed = 1;
nodes = (
(207,352,o),
(284,661,o),
(284,783,cs,{
name = hr01;
}),
(284,862,o),
(260,889,o),
(215,889,cs),
(196,889,o),
(163,879,o),
(148,866,c),
(168,826,o),
(169,779,o),
(169,731,cs),
(169,563,o),
(98,246,o),
(98,125,cs,{
name = hr02;
}),
(98,24,o),
(129,-7,o),
(176,-7,cs),
(192,-7,o),
(220,0,o),
(245,29,c),
(212,65,o),
(207,114,o),
(207,166,cs)
);
},
{
closed = 1;
nodes = (
(308,1051,o),
(277,1065,o),
(242,1065,cs),
(216,1065,o),
(190,1056,o),
(162,1038,c),
(157,1011,o),
(154,989,o),
(154,972,cs),
(154,936,o),
(171,918,o),
(216,918,cs),
(241,918,o),
(268,927,o),
(296,945,c),
(304,974,o),
(308,998,o),
(308,1015,cs,{
name = hr00;
})
);
}
);
};
layerId = master01;
shapes = (
{
ref = I;
},
{
pos = (17,0);
ref = dotaccentcomb.case;
}
);
width = 332;
}
);
unicode = 304;
},
{
glyphname = Igrave;
lastChange = "2022-03-30 08:14:50 +0000";
layers = (
{
background = {
shapes = (
{
closed = 1;
nodes = (
(207,352,o),
(284,661,o),
(284,783,cs),
(284,862,o),
(260,889,o),
(215,889,cs),
(196,889,o),
(163,879,o),
(148,866,c),
(168,826,o),
(169,779,o),
(169,731,cs),
(169,563,o),
(98,246,o),
(98,125,cs),
(98,24,o),
(129,-7,o),
(176,-7,cs),
(192,-7,o),
(220,0,o),
(245,29,c),
(212,65,o),
(207,114,o),
(207,166,cs)
);
},
{
closed = 1;
nodes = (
(200,969,o),
(309,911,o),
(329,911,cs),
(336,911,o),
(346,921,o),
(356,939,c),
(247,1021,o),
(212,1053,o),
(195,1084,c),
(176,1088,o),
(161,1089,o),
(148,1089,cs),
(104,1089,o),
(91,1073,o),
(91,1061,cs),
(91,1048,o),
(97,1042,o),
(128,1020,cs)
);
},
{
closed = 1;
nodes = (
(207,352,o),
(284,661,o),
(284,783,cs,{
name = hr01;
}),
(284,862,o),
(260,889,o),
(215,889,cs),
(196,889,o),
(163,879,o),
(148,866,c),
(168,826,o),
(169,779,o),
(169,731,cs),
(169,563,o),
(98,246,o),
(98,125,cs,{
name = hr02;
}),
(98,24,o),
(129,-7,o),
(176,-7,cs),
(192,-7,o),
(220,0,o),
(245,29,c),
(212,65,o),
(207,114,o),
(207,166,cs)
);
},
{
closed = 1;
nodes = (
(199,969,o),
(308,911,o),
(328,911,cs),
(335,911,o),
(345,921,o),
(355,939,c),
(246,1021,o),
(211,1053,o),
(194,1084,c),
(175,1088,o),
(160,1089,o),
(147,1089,cs),
(103,1089,o),
(90,1073,o),
(90,1061,cs),
(90,1048,o),
(96,1042,o),
(127,1020,cs,{
name = hr00;
})
);
}
);
};
layerId = master01;
shapes = (
{
ref = I;
},
{
pos = (-64,0);
ref = gravecomb.case;
}
);
width = 332;
}
);
unicode = 204;
},
{
glyphname = Imacron;
lastChange = "2022-03-30 08:14:50 +0000";
layers = (
{
background = {
shapes = (
{
closed = 1;
nodes = (
(207,352,o),
(284,661,o),
(284,783,cs,{
name = hr01;
}),
(284,862,o),
(260,889,o),
(215,889,cs),
(196,889,o),
(163,879,o),
(148,866,c),
(168,826,o),
(169,779,o),
(169,731,cs),
(169,563,o),
(98,246,o),
(98,125,cs,{
name = hr02;
}),
(98,24,o),
(129,-7,o),
(176,-7,cs),
(192,-7,o),
(220,0,o),
(245,29,c),
(212,65,o),
(207,114,o),
(207,166,cs)
);
},
{
closed = 1;
nodes = (
(85,1007,o),
(96,979,o),
(106,966,c),
(125,976,o),
(164,981,o),
(187,981,cs,{
name = hr01;
}),
(211,981,o),
(247,977,o),
(277,977,cs),
(347,977,o),
(371,999,o),
(371,1029,cs),
(371,1046,o),
(368,1061,o),
(357,1074,c,{
name = hr02;
}),
(337,1062,o),
(314,1055,o),
(286,1055,cs,{
name = hr03;
}),
(250,1055,o),
(175,1065,o),
(141,1065,cs),
(113,1065,o),
(85,1055,o),
(85,1029,cs)
);
}
);
};
layerId = master01;
shapes = (
{
ref = I;
},
{
pos = (14,0);
ref = macroncomb.case;
}
);
width = 332;
}
);
unicode = 298;
},
{
glyphname = Iogonek;
lastChange = "2022-03-30 08:32:31 +0000";
layers = (
{
background = {
shapes = (
{
closed = 1;
nodes = (
(75,1,o),
(8,-66,o),
(8,-152,cs),
(8,-208,o),
(44,-264,o),
(121,-264,cs),
(200,-264,o),
(250,-215,o),
(250,-178,cs),
(250,-150,o),
(243,-136,o),
(228,-125,c),
(217,-172,o),
(172,-200,o),
(135,-200,cs),
(108,-200,o),
(86,-180,o),
(86,-145,cs),
(86,-118,o),
(89,-52,o),
(199,-3,c),
(199,48,l,{
name = hr00;
})
);
},
{
closed = 1;
nodes = (
(207,352,o),
(284,661,o),
(284,783,cs,{
name = hr01;
}),
(284,862,o),
(260,889,o),
(215,889,cs),
(196,889,o),
(163,879,o),
(148,866,c),
(168,826,o),
(169,779,o),
(169,731,cs),
(169,563,o),
(98,246,o),
(98,125,cs,{
name = hr02;
}),
(98,24,o),
(129,-7,o),
(176,-7,cs),
(192,-7,o),
(220,0,o),
(245,29,c),
(212,65,o),
(207,114,o),
(207,166,cs)
);
}
);
};
layerId = master01;
shapes = (
{
ref = I;
},
{
closed = 1;
nodes = (
(75,1,o),
(8,-66,o),
(8,-152,cs),
(8,-208,o),
(44,-264,o),
(121,-264,cs),
(200,-264,o),
(250,-215,o),
(250,-178,cs),
(250,-150,o),
(243,-136,o),
(228,-125,c),
(217,-172,o),
(172,-200,o),
(135,-200,cs),
(108,-200,o),
(86,-180,o),
(86,-145,cs),
(86,-118,o),
(89,-52,o),
(199,-3,c),
(199,48,l,{
name = hr00;
})
);
}
);
width = 332;
}
);
unicode = 302;
},
{
glyphname = Itilde;
lastChange = "2022-03-30 08:14:50 +0000";
layers = (
{
background = {
shapes = (
{
closed = 1;
nodes = (
(207,352,o),
(284,661,o),
(284,783,cs,{
name = hr01;
}),
(284,862,o),
(260,889,o),
(215,889,cs),
(196,889,o),
(163,879,o),
(148,866,c),
(168,826,o),
(169,779,o),
(169,731,cs),
(169,563,o),
(98,246,o),
(98,125,cs,{
name = hr02;
}),
(98,24,o),
(129,-7,o),
(176,-7,cs),
(192,-7,o),
(220,0,o),
(245,29,c),
(212,65,o),
(207,114,o),
(207,166,cs)
);
},
{
closed = 1;
nodes = (
(346,1027,o),
(324,1007,o),
(302,1007,cs),
(253,1007,o),
(235,1073,o),
(159,1073,cs,{
name = hr01;
}),
(103,1073,o),
(60,1013,o),
(60,958,cs),
(60,931,o),
(82,926,o),
(104,926,c),
(111,973,o),
(133,993,o),
(155,993,cs),
(204,993,o),
(222,927,o),
(298,927,cs,{
name = hr02;
}),
(354,927,o),
(397,987,o),
(397,1042,cs),
(397,1069,o),
(375,1074,o),
(353,1074,c)
);
}
);
};
layerId = master01;
shapes = (
{
ref = I;
},
{
pos = (-83,0);
ref = tildecomb.case;
}
);
width = 332;
}
);
unicode = 296;
},
{
glyphname = J;
lastChange = "2022-03-30 08:26:38 +0000";
layers = (
{
anchors = (
{
name = bottom;
pos = (168,0);
},
{
name = top;
pos = (240,889);
}
);
background = {
shapes = (
{
closed = 1;
nodes = (
(276,862,o),
(252,889,o),
(208,889,cs),
(188,889,o),
(155,879,o),
(141,866,c),
(161,826,o),
(162,779,o),
(162,731,cs),
(162,438,o),
(123,-149,o),
(-64,-149,cs),
(-132,-149,o),
(-156,-108,o),
(-176,-51,c),
(-191,-65,o),
(-212,-91,o),
(-212,-130,cs),
(-212,-208,o),
(-142,-229,o),
(-92,-229,cs),
(202,-229,o),
(276,404,o),
(276,783,cs,{
name = hr00;
})
);
}
);
};
layerId = master01;
shapes = (
{
closed = 1;
nodes = (
(202,-229,o),
(276,404,o),
(276,783,cs,{
name = hr00;
}),
(276,862,o),
(252,889,o),
(208,889,cs),
(188,889,o),
(155,879,o),
(141,866,c),
(161,826,o),
(162,779,o),
(162,731,cs),
(162,438,o),
(123,-149,o),
(-64,-149,cs),
(-132,-149,o),
(-156,-108,o),
(-176,-51,c),
(-191,-65,o),
(-212,-91,o),
(-212,-130,cs),
(-212,-208,o),
(-142,-229,o),
(-92,-229,cs)
);
}
);
width = 336;
}
);
unicode = 74;
},
{
glyphname = Jcircumflex;
lastChange = "2022-03-30 08:16:54 +0000";
layers = (
{
background = {
shapes = (
{
closed = 1;
nodes = (
(276,862,o),
(252,889,o),
(208,889,cs),
(188,889,o),
(155,879,o),
(141,866,c),
(161,826,o),
(162,779,o),
(162,731,cs),
(162,438,o),
(123,-149,o),
(-64,-149,cs),
(-132,-149,o),
(-156,-108,o),
(-176,-51,c),
(-191,-65,o),
(-212,-91,o),
(-212,-130,cs),
(-212,-208,o),
(-142,-229,o),
(-92,-229,cs),
(202,-229,o),
(276,404,o),
(276,783,cs,{
name = hr00;
})
);
},
{
closed = 1;
nodes = (
(367,911,o),
(377,921,o),
(386,939,c),
(323,1001,o),
(286,1065,o),
(277,1078,c),
(266,1086,o),
(246,1089,o),
(226,1089,cs),
(209,1089,o),
(193,1087,o),
(183,1084,c),
(166,1053,o),
(146,1021,o),
(37,939,c),
(47,921,o),
(57,911,o),
(64,911,cs),
(81,911,o),
(158,957,o),
(223,1002,c),
(293,946,o),
(340,911,o),
(359,911,cs,{
name = hr00;
})
);
}
);
};
layerId = master01;
shapes = (
{
ref = J;
},
{
pos = (17,0);
ref = circumflexcomb.case;
}
);
width = 336;
}
);
unicode = 308;
},
{
glyphname = K;
lastChange = "2022-03-30 08:32:47 +0000";
layers = (
{
anchors = (
{
name = bottom;
pos = (337,0);
},
{
name = top;
pos = (316,889);
}
);
background = {
shapes = (
{
closed = 1;
nodes = (
(207,218,o),
(213,281,o),
(222,346,c),
(241,363,o),
(262,383,o),
(283,403,c),
(342,282,o),
(429,99,o),
(458,57,cs),
(498,-2,o),
(527,-10,o),
(553,-10,cs),
(573,-10,o),
(622,3,o),
(632,74,c),
(587,81,o),
(550,114,o),
(523,151,cs),
(483,208,o),
(398,385,o),
(354,472,c),
(504,626,o),
(661,810,o),
(661,833,cs),
(661,859,o),
(626,879,o),
(571,879,c),
(558,828,o),
(426,629,o),
(236,440,c),
(258,577,o),
(284,712,o),
(284,783,cs,{
name = hr01;
}),
(284,862,o),
(260,889,o),
(215,889,cs),
(196,889,o),
(163,879,o),
(148,866,c),
(168,826,o),
(169,779,o),
(169,731,cs),
(169,563,o),
(98,246,o),
(98,125,cs,{
name = hr02;
}),
(98,24,o),
(129,-7,o),
(176,-7,cs),
(192,-7,o),
(220,0,o),
(245,29,c),
(212,65,o),
(207,114,o),
(207,166,cs)
);
}
);
};
layerId = master01;
shapes = (
{
closed = 1;
nodes = (
(573,-10,o),
(622,3,o),
(632,74,c),
(587,81,o),
(550,114,o),
(523,151,cs),
(483,208,o),
(398,385,o),
(354,472,c),
(504,626,o),
(661,810,o),
(661,833,cs),
(661,859,o),
(626,879,o),
(571,879,c),
(558,828,o),
(426,629,o),
(236,440,c),
(258,577,o),
(284,712,o),
(284,783,cs,{
name = hr01;
}),
(284,862,o),
(260,889,o),
(215,889,cs),
(196,889,o),
(163,879,o),
(148,866,c),
(168,826,o),
(169,779,o),
(169,731,cs),
(169,563,o),
(98,246,o),
(98,125,cs,{
name = hr02;
}),
(98,24,o),
(129,-7,o),
(176,-7,cs),
(192,-7,o),
(220,0,o),
(245,29,c),
(212,65,o),
(207,114,o),
(207,166,cs),
(207,218,o),
(213,281,o),
(222,346,c),
(241,363,o),
(262,383,o),
(283,403,c),
(342,282,o),
(429,99,o),
(458,57,cs),
(498,-2,o),
(527,-10,o),
(553,-10,cs)
);
}
);
width = 632;
}
);
unicode = 75;
},
{
glyphname = Kcommaaccent;
lastChange = "2022-03-30 10:56:47 +0000";
layers = (
{
background = {
shapes = (
{
closed = 1;
nodes = (
(207,218,o),
(213,281,o),
(222,346,c),
(241,363,o),
(262,383,o),
(283,403,c),
(342,282,o),
(429,99,o),
(458,57,cs),
(498,-2,o),
(527,-10,o),
(553,-10,cs),
(573,-10,o),
(622,3,o),
(632,74,c),
(587,81,o),
(550,114,o),
(523,151,cs),
(483,208,o),
(398,385,o),
(354,472,c),
(504,626,o),
(661,810,o),
(661,833,cs),
(661,859,o),
(626,879,o),
(571,879,c),
(558,828,o),
(426,629,o),
(236,440,c),
(258,577,o),
(284,712,o),
(284,783,cs,{
name = hr01;
}),
(284,862,o),
(260,889,o),
(215,889,cs),
(196,889,o),
(163,879,o),
(148,866,c),
(168,826,o),
(169,779,o),
(169,731,cs),
(169,563,o),
(98,246,o),
(98,125,cs,{
name = hr02;
}),
(98,24,o),
(129,-7,o),
(176,-7,cs),
(192,-7,o),
(220,0,o),
(245,29,c),
(212,65,o),
(207,114,o),
(207,166,cs)
);
},
{
closed = 1;
nodes = (
(321,-326,o),
(411,-235,o),
(411,-136,cs),
(411,-90,o),
(388,-67,o),
(341,-67,cs),
(316,-67,o),
(291,-75,o),
(264,-91,c),
(285,-111,o),
(296,-140,o),
(296,-170,cs),
(296,-228,o),
(256,-273,o),
(215,-281,c),
(217,-310,o),
(232,-326,o),
(260,-326,cs,{
name = hr00;
})
);
}
);
};
layerId = master01;
shapes = (
{
ref = K;
},
{
pos = (152,0);
ref = commaaccentcomb;
}
);
width = 632;
}
);
unicode = 310;
},
{
glyphname = L;
lastChange = "2022-03-30 08:34:31 +0000";
layers = (
{
anchors = (
{
name = bottom;
pos = (322,0);
},
{
name = center;
pos = (281,445);
},
{
name = top;
pos = (253,889);
},
{
name = topright;
pos = (511,839);
}
);
background = {
shapes = (
{
closed = 1;
nodes = (
(284,862,o),
(260,889,o),
(215,889,cs),
(196,889,o),
(163,879,o),
(148,866,c),
(168,826,o),
(169,779,o),
(169,731,cs),
(169,539,o),
(86,230,o),
(86,89,cs,{
name = hr01;
}),
(86,20,o),
(115,-8,o),
(158,-8,cs),
(172,-8,o),
(193,-4,o),
(214,11,c,{
name = hr02;
}),
(282,1,o),
(368,-10,o),
(410,-10,cs),
(502,-10,o),
(554,-5,o),
(562,105,c),
(526,85,o),
(426,79,o),
(329,79,cs,{
name = hr03;
}),
(283,79,o),
(238,80,o),
(200,82,c),
(199,92,o),
(199,102,o),
(199,112,cs),
(199,304,o),
(284,647,o),
(284,783,cs)
);
}
);
};
layerId = master01;
shapes = (
{
closed = 1;
nodes = (
(502,-10,o),
(554,-5,o),
(562,105,c),
(526,85,o),
(426,79,o),
(329,79,cs,{
name = hr03;
}),
(283,79,o),
(238,80,o),
(200,82,c),
(199,92,o),
(199,102,o),
(199,112,cs),
(199,304,o),
(284,647,o),
(284,783,cs),
(284,862,o),
(260,889,o),
(215,889,cs),
(196,889,o),
(163,879,o),
(148,866,c),
(168,826,o),
(169,779,o),
(169,731,cs),
(169,539,o),
(86,230,o),
(86,89,cs,{
name = hr01;
}),
(86,20,o),
(115,-8,o),
(158,-8,cs),
(172,-8,o),
(193,-4,o),
(214,11,c,{
name = hr02;
}),
(282,1,o),
(368,-10,o),
(410,-10,cs)
);
}
);
width = 562;
}
);
unicode = 76;
},
{
glyphname = Lacute;
lastChange = "2022-03-30 08:33:00 +0000";
layers = (
{
background = {
shapes = (
{
closed = 1;
nodes = (
(284,862,o),
(260,889,o),
(215,889,cs),
(196,889,o),
(163,879,o),
(148,866,c),
(168,826,o),
(169,779,o),
(169,731,cs),
(169,539,o),
(86,230,o),
(86,89,cs,{
name = hr01;
}),
(86,20,o),
(115,-8,o),
(158,-8,cs),
(172,-8,o),
(193,-4,o),
(214,11,c,{
name = hr02;
}),
(282,1,o),
(368,-10,o),
(410,-10,cs),
(502,-10,o),
(554,-5,o),
(562,105,c),
(526,85,o),
(426,79,o),
(329,79,cs,{
name = hr03;
}),
(283,79,o),
(238,80,o),
(200,82,c),
(199,92,o),
(199,102,o),
(199,112,cs),
(199,304,o),
(284,647,o),
(284,783,cs)
);
},
{
closed = 1;
nodes = (
(379,1042,o),
(385,1048,o),
(385,1061,cs),
(385,1073,o),
(372,1089,o),
(328,1089,cs),
(315,1089,o),
(300,1088,o),
(281,1084,c),
(264,1053,o),
(230,1021,o),
(121,939,c),
(130,921,o),
(140,911,o),
(148,911,cs),
(168,911,o),
(276,969,o),
(348,1020,cs,{
name = hr00;
})
);
}
);
};
layerId = master01;
shapes = (
{
ref = L;
},
{
pos = (4,0);
ref = acutecomb.case;
}
);
width = 562;
}
);
unicode = 313;
},
{
glyphname = Lcaron;
lastChange = "2022-03-30 11:14:54 +0000";
layers = (
{
background = {
shapes = (
{
closed = 1;
nodes = (
(284,862,o),
(260,889,o),
(215,889,cs),
(196,889,o),
(163,879,o),
(148,866,c),
(168,826,o),
(169,779,o),
(169,731,cs),
(169,539,o),
(86,230,o),
(86,89,cs,{
name = hr01;
}),
(86,20,o),
(115,-8,o),
(158,-8,cs),
(172,-8,o),
(193,-4,o),
(214,11,c,{
name = hr02;
}),
(282,1,o),
(368,-10,o),
(410,-10,cs),
(502,-10,o),
(554,-5,o),
(562,105,c),
(526,85,o),
(426,79,o),
(329,79,cs,{
name = hr03;
}),
(283,79,o),
(238,80,o),
(200,82,c),
(199,92,o),
(199,102,o),
(199,112,cs),
(199,304,o),
(284,647,o),
(284,783,cs)
);
},
{
closed = 1;
nodes = (
(431,655,o),
(511,758,o),
(511,839,cs),
(511,908,o),
(488,951,o),
(452,951,cs),
(417,951,o),
(384,931,o),
(353,890,c),
(386,873,o),
(409,834,o),
(409,792,cs),
(409,745,o),
(381,708,o),
(334,690,c),
(345,663,o),
(353,655,o),
(369,655,cs,{
name = hr00;
})
);
}
);
};
layerId = master01;
shapes = (
{
ref = L;
},
{
pos = (334,0);
ref = caroncomb.alt;
}
);
width = 562;
}
);
unicode = 317;
},
{
glyphname = Lcommaaccent;
lastChange = "2022-03-30 10:56:47 +0000";
layers = (
{
background = {
shapes = (
{
closed = 1;
nodes = (
(284,862,o),
(260,889,o),
(215,889,cs),
(196,889,o),
(163,879,o),
(148,866,c),
(168,826,o),
(169,779,o),
(169,731,cs),
(169,539,o),
(86,230,o),
(86,89,cs,{
name = hr01;
}),
(86,20,o),
(115,-8,o),
(158,-8,cs),
(172,-8,o),
(193,-4,o),
(214,11,c,{
name = hr02;
}),
(282,1,o),
(368,-10,o),
(410,-10,cs),
(502,-10,o),
(554,-5,o),
(562,105,c),
(526,85,o),
(426,79,o),
(329,79,cs,{
name = hr03;
}),
(283,79,o),
(238,80,o),
(200,82,c),
(199,92,o),
(199,102,o),
(199,112,cs),
(199,304,o),
(284,647,o),
(284,783,cs)
);
},
{
closed = 1;
nodes = (
(306,-326,o),
(396,-235,o),
(396,-136,cs),
(396,-90,o),
(373,-67,o),
(326,-67,cs),
(301,-67,o),
(276,-75,o),
(249,-91,c),
(270,-111,o),
(281,-140,o),
(281,-170,cs),
(281,-228,o),
(241,-273,o),
(200,-281,c),
(202,-310,o),
(217,-326,o),
(245,-326,cs,{
name = hr00;
})
);
}
);
};
layerId = master01;
shapes = (
{
ref = L;
},
{
pos = (137,0);
ref = commaaccentcomb;
}
);
width = 562;
}
);
unicode = 315;
},
{
glyphname = Ldot;
lastChange = "2022-03-30 08:35:48 +0000";
layers = (
{
background = {
shapes = (
{
closed = 1;
nodes = (
(284,862,o),
(260,889,o),
(215,889,cs),
(196,889,o),
(163,879,o),
(148,866,c),
(168,826,o),
(169,779,o),
(169,731,cs),
(169,539,o),
(86,230,o),
(86,89,cs,{
name = hr01;
}),
(86,20,o),
(115,-8,o),
(158,-8,cs),
(172,-8,o),
(193,-4,o),
(214,11,c,{
name = hr02;
}),
(282,1,o),
(368,-10,o),
(410,-10,cs),
(502,-10,o),
(554,-5,o),
(562,105,c),
(526,85,o),
(426,79,o),
(329,79,cs,{
name = hr03;
}),
(283,79,o),
(238,80,o),
(200,82,c),
(199,92,o),
(199,102,o),
(199,112,cs),
(199,304,o),
(284,647,o),
(284,783,cs)
);
},
{
closed = 1;
nodes = (
(454,511,o),
(423,525,o),
(388,525,cs),
(362,525,o),
(336,516,o),
(308,498,c),
(303,471,o),
(300,449,o),
(300,433,cs),
(300,396,o),
(316,378,o),
(362,378,cs),
(386,378,o),
(413,388,o),
(441,406,c),
(450,434,o),
(454,458,o),
(454,475,cs,{
name = hr00;
})
);
}
);
};
layerId = master01;
shapes = (
{
ref = L;
},
{
pos = (229,60);
ref = periodcentered;
}
);
width = 562;
}
);
unicode = 319;
},
{
glyphname = Lslash;
lastChange = "2022-03-30 08:36:25 +0000";
layers = (
{
background = {
shapes = (
{
closed = 1;
nodes = (
(82,357,o),
(103,374,o),
(127,390,c),
(107,271,o),
(86,159,o),
(86,89,cs),
(86,20,o),
(115,-8,o),
(158,-8,cs),
(172,-8,o),
(193,-4,o),
(214,11,c),
(282,1,o),
(368,-10,o),
(410,-10,cs),
(502,-10,o),
(554,-5,o),
(562,105,c),
(526,85,o),
(426,79,o),
(329,79,cs),
(283,79,o),
(238,80,o),
(200,82,c),
(199,92,o),
(199,102,o),
(199,112,cs),
(199,202,o),
(217,326,o),
(237,445,c),
(256,453,o),
(272,461,o),
(286,468,cs),
(344,499,o),
(367,527,o),
(367,550,cs),
(367,572,o),
(349,597,o),
(323,609,c),
(314,592,o),
(283,568,o),
(255,550,c),
(271,645,o),
(284,730,o),
(284,783,cs),
(284,862,o),
(260,889,o),
(215,889,cs),
(196,889,o),
(163,879,o),
(148,866,c),
(168,826,o),
(169,779,o),
(169,731,cs),
(169,662,o),
(158,579,o),
(145,494,c),
(81,468,o),
(17,442,o),
(17,405,cs),
(17,375,o),
(49,350,o),
(70,338,c)
);
},
{
closed = 1;
nodes = (
(284,862,o),
(260,889,o),
(215,889,cs),
(196,889,o),
(163,879,o),
(148,866,c),
(168,826,o),
(169,779,o),
(169,731,cs),
(169,539,o),
(86,230,o),
(86,89,cs,{
name = hr01;
}),
(86,20,o),
(115,-8,o),
(158,-8,cs),
(172,-8,o),
(193,-4,o),
(214,11,c,{
name = hr02;
}),
(282,1,o),
(368,-10,o),
(410,-10,cs),
(502,-10,o),
(554,-5,o),
(562,105,c),
(526,85,o),
(426,79,o),
(329,79,cs,{
name = hr03;
}),
(283,79,o),
(238,80,o),
(200,82,c),
(199,92,o),
(199,102,o),
(199,112,cs),
(199,304,o),
(284,647,o),
(284,783,cs)
);
},
{
closed = 1;
nodes = (
(109,399,o),
(229,440,o),
(286,469,cs),
(344,500,o),
(367,528,o),
(367,551,cs),
(367,573,o),
(349,598,o),
(323,610,c),
(309,583,o),
(240,540,o),
(211,525,cs),
(135,485,o),
(17,457,o),
(17,406,cs),
(17,376,o),
(49,351,o),
(70,339,c,{
name = hr00;
})
);
}
);
};
layerId = master01;
shapes = (
{
closed = 1;
nodes = (
(109,398,o),
(229,439,o),
(286,468,cs),
(344,499,o),
(367,527,o),
(367,550,cs),
(367,572,o),
(349,597,o),
(323,609,c),
(309,582,o),
(240,539,o),
(211,524,cs),
(135,484,o),
(17,456,o),
(17,405,cs),
(17,375,o),
(49,350,o),
(70,338,c,{
name = hr00;
})
);
},
{
alignment = -1;
ref = L;
}
);
width = 562;
}
);
metricRight = L;
unicode = 321;
},
{
glyphname = M;
lastChange = "2022-03-30 08:26:38 +0000";
layers = (
{
anchors = (
{
name = bottom;
pos = (443,0);
},
{
name = top;
pos = (443,889);
}
);
background = {
shapes = (
{
closed = 1;
nodes = (
(761,352,o),
(838,661,o),
(838,783,cs,{
name = hr01;
}),
(838,862,o),
(814,889,o),
(770,889,cs),
(726,889,o),
(693,874,o),
(678,861,c),
(678,768,o),
(521,493,o),
(460,330,c),
(405,507,o),
(390,646,o),
(353,766,cs),
(323,864,o),
(277,888,o),
(213,889,cs),
(185,889,o),
(161,879,o),
(148,866,c),
(168,826,o),
(169,779,o),
(169,731,cs),
(169,563,o),
(98,246,o),
(98,125,cs),
(98,24,o),
(129,-7,o),
(171,-7,cs),
(188,-7,o),
(215,0,o),
(226,29,c),
(193,65,o),
(187,114,o),
(187,166,cs),
(187,324,o),
(243,571,o),
(260,716,c),
(298,580,o),
(307,515,o),
(345,362,cs),
(379,226,o),
(404,207,o),
(460,207,cs),
(489,207,o),
(520,218,o),
(529,230,c),
(528,238,o),
(527,246,o),
(527,254,cs),
(527,288,o),
(539,326,o),
(552,365,cs),
(583,462,o),
(659,609,o),
(724,740,c),
(724,563,o),
(652,246,o),
(652,125,cs,{
name = hr02;
}),
(652,24,o),
(683,-7,o),
(730,-7,cs),
(747,-7,o),
(774,0,o),
(799,29,c),
(767,65,o),
(761,114,o),
(761,166,cs)
);
}
);
};
layerId = master01;
shapes = (
{
closed = 1;
nodes = (
(188,-7,o),
(215,0,o),
(226,29,c),
(193,65,o),
(187,114,o),
(187,166,cs),
(187,324,o),
(243,571,o),
(260,716,c),
(298,580,o),
(307,515,o),
(345,362,cs),
(379,226,o),
(404,207,o),
(460,207,cs),
(489,207,o),
(520,218,o),
(529,230,c),
(528,238,o),
(527,246,o),
(527,254,cs),
(527,288,o),
(539,326,o),
(552,365,cs),
(583,462,o),
(659,609,o),
(724,740,c),
(724,563,o),
(652,246,o),
(652,125,cs,{
name = hr02;
}),
(652,24,o),
(683,-7,o),
(730,-7,cs),
(747,-7,o),
(774,0,o),
(799,29,c),
(767,65,o),
(761,114,o),
(761,166,cs),
(761,352,o),
(838,661,o),
(838,783,cs,{
name = hr01;
}),
(838,862,o),
(814,889,o),
(770,889,cs),
(726,889,o),
(693,874,o),
(678,861,c),
(678,768,o),
(521,493,o),
(460,330,c),
(405,507,o),
(390,646,o),
(353,766,cs),
(323,864,o),
(277,888,o),
(213,889,cs),
(185,889,o),
(161,879,o),
(148,866,c),
(168,826,o),
(169,779,o),
(169,731,cs),
(169,563,o),
(98,246,o),
(98,125,cs),
(98,24,o),
(129,-7,o),
(171,-7,cs)
);
}
);
width = 886;
}
);
unicode = 77;
},
{
glyphname = N;
lastChange = "2022-03-30 08:36:47 +0000";
layers = (
{
anchors = (
{
name = bottom;
pos = (365,0);
},
{
name = top;
pos = (471,889);
}
);
background = {
shapes = (
{
closed = 1;
nodes = (
(644,352,o),
(721,661,o),
(721,783,cs),
(721,862,o),
(702,889,o),
(665,889,cs),
(649,889,o),
(617,879,o),
(605,866,c),
(625,826,o),
(626,779,o),
(626,731,cs),
(626,584,o),
(572,325,o),
(558,180,c),
(469,369,o),
(400,676,o),
(340,793,cs),
(301,869,o),
(270,889,o),
(213,889,cs),
(184,889,o),
(154,878,o),
(148,866,c),
(168,826,o),
(169,779,o),
(169,731,cs),
(169,563,o),
(98,246,o),
(98,125,cs),
(98,24,o),
(129,-7,o),
(171,-7,cs),
(188,-7,o),
(215,0,o),
(226,29,c),
(193,65,o),
(187,114,o),
(187,166,cs),
(187,321,o),
(241,561,o),
(259,707,c),
(339,531,o),
(415,227,o),
(473,115,cs),
(523,17,o),
(563,-7,o),
(621,-7,cs),
(647,-7,o),
(674,1,o),
(685,29,c),
(652,65,o),
(644,114,o),
(644,166,cs,{
name = hr00;
})
);
}
);
};
layerId = master01;
shapes = (
{
closed = 1;
nodes = (
(188,-7,o),
(215,0,o),
(226,29,c),
(193,65,o),
(187,114,o),
(187,166,cs),
(187,321,o),
(241,561,o),
(259,707,c),
(339,531,o),
(415,227,o),
(473,115,cs),
(523,17,o),
(563,-7,o),
(621,-7,cs),
(647,-7,o),
(674,1,o),
(685,29,c),
(652,65,o),
(644,114,o),
(644,166,cs,{
name = hr00;
}),
(644,352,o),
(721,661,o),
(721,783,cs),
(721,862,o),
(702,889,o),
(665,889,cs),
(649,889,o),
(617,879,o),
(605,866,c),
(625,826,o),
(626,779,o),
(626,731,cs),
(626,584,o),
(572,325,o),
(558,180,c),
(469,369,o),
(400,676,o),
(340,793,cs),
(301,869,o),
(270,889,o),
(213,889,cs),
(184,889,o),
(154,878,o),
(148,866,c),
(168,826,o),
(169,779,o),
(169,731,cs),
(169,563,o),
(98,246,o),
(98,125,cs),
(98,24,o),
(129,-7,o),
(171,-7,cs)
);
}
);
width = 769;
}
);
unicode = 78;
},
{
glyphname = Nacute;
lastChange = "2022-03-30 08:31:01 +0000";
layers = (
{
background = {
shapes = (
{
closed = 1;
nodes = (
(644,352,o),
(721,661,o),
(721,783,cs),
(721,862,o),
(702,889,o),
(665,889,cs),
(649,889,o),
(617,879,o),
(605,866,c),
(625,826,o),
(626,779,o),
(626,731,cs),
(626,584,o),
(572,325,o),
(558,180,c),
(469,369,o),
(400,676,o),
(340,793,cs),
(301,869,o),
(270,889,o),
(213,889,cs),
(184,889,o),
(154,878,o),
(148,866,c),
(168,826,o),
(169,779,o),
(169,731,cs),
(169,563,o),
(98,246,o),
(98,125,cs),
(98,24,o),
(129,-7,o),
(171,-7,cs),
(188,-7,o),
(215,0,o),
(226,29,c),
(193,65,o),
(187,114,o),
(187,166,cs),
(187,321,o),
(241,561,o),
(259,707,c),
(339,531,o),
(415,227,o),
(473,115,cs),
(523,17,o),
(563,-7,o),
(621,-7,cs),
(647,-7,o),
(674,1,o),
(685,29,c),
(652,65,o),
(644,114,o),
(644,166,cs,{
name = hr00;
})
);
},
{
closed = 1;
nodes = (
(610,1042,o),
(616,1048,o),
(616,1061,cs),
(616,1073,o),
(603,1089,o),
(559,1089,cs),
(546,1089,o),
(531,1088,o),
(512,1084,c),
(495,1053,o),
(461,1021,o),
(352,939,c),
(361,921,o),
(371,911,o),
(379,911,cs),
(399,911,o),
(507,969,o),
(579,1020,cs,{
name = hr00;
})
);
}
);
};
layerId = master01;
shapes = (
{
ref = N;
},
{
pos = (222,0);
ref = acutecomb.case;
}
);
width = 769;
}
);
unicode = 323;
},
{
glyphname = Ncaron;
lastChange = "2022-03-30 08:27:59 +0000";
layers = (
{
background = {
shapes = (
{
closed = 1;
nodes = (
(644,352,o),
(721,661,o),
(721,783,cs),
(721,862,o),
(702,889,o),
(665,889,cs),
(649,889,o),
(617,879,o),
(605,866,c),
(625,826,o),
(626,779,o),
(626,731,cs),
(626,584,o),
(572,325,o),
(558,180,c),
(469,369,o),
(400,676,o),
(340,793,cs),
(301,869,o),
(270,889,o),
(213,889,cs),
(184,889,o),
(154,878,o),
(148,866,c),
(168,826,o),
(169,779,o),
(169,731,cs),
(169,563,o),
(98,246,o),
(98,125,cs),
(98,24,o),
(129,-7,o),
(171,-7,cs),
(188,-7,o),
(215,0,o),
(226,29,c),
(193,65,o),
(187,114,o),
(187,166,cs),
(187,321,o),
(241,561,o),
(259,707,c),
(339,531,o),
(415,227,o),
(473,115,cs),
(523,17,o),
(563,-7,o),
(621,-7,cs),
(647,-7,o),
(674,1,o),
(685,29,c),
(652,65,o),
(644,114,o),
(644,166,cs,{
name = hr00;
})
);
},
{
closed = 1;
nodes = (
(320,1118,o),
(310,1108,o),
(300,1090,c),
(363,1028,o),
(400,964,o),
(410,951,c),
(421,943,o),
(441,940,o),
(461,940,cs),
(477,940,o),
(494,942,o),
(504,945,c),
(521,976,o),
(540,1008,o),
(649,1090,c),
(640,1108,o),
(630,1118,o),
(622,1118,cs),
(605,1118,o),
(529,1072,o),
(463,1028,c),
(394,1083,o),
(347,1118,o),
(327,1118,cs,{
name = hr00;
})
);
}
);
};
layerId = master01;
shapes = (
{
ref = N;
},
{
pos = (280,0);
ref = caroncomb.case;
}
);
width = 769;
}
);
unicode = 327;
},
{
glyphname = Ncommaaccent;
lastChange = "2022-03-30 10:56:47 +0000";
layers = (
{
background = {
shapes = (
{
closed = 1;
nodes = (
(644,352,o),
(721,661,o),
(721,783,cs),
(721,862,o),
(702,889,o),
(665,889,cs),
(649,889,o),
(617,879,o),
(605,866,c),
(625,826,o),
(626,779,o),
(626,731,cs),
(626,584,o),
(572,325,o),
(558,180,c),
(469,369,o),
(400,676,o),
(340,793,cs),
(301,869,o),
(270,889,o),
(213,889,cs),
(184,889,o),
(154,878,o),
(148,866,c),
(168,826,o),
(169,779,o),
(169,731,cs),
(169,563,o),
(98,246,o),
(98,125,cs),
(98,24,o),
(129,-7,o),
(171,-7,cs),
(188,-7,o),
(215,0,o),
(226,29,c),
(193,65,o),
(187,114,o),
(187,166,cs),
(187,321,o),
(241,561,o),
(259,707,c),
(339,531,o),
(415,227,o),
(473,115,cs),
(523,17,o),
(563,-7,o),
(621,-7,cs),
(647,-7,o),
(674,1,o),
(685,29,c),
(652,65,o),
(644,114,o),
(644,166,cs,{
name = hr00;
})
);
},
{
closed = 1;
nodes = (
(349,-326,o),
(439,-235,o),
(439,-136,cs),
(439,-90,o),
(416,-67,o),
(369,-67,cs),
(344,-67,o),
(319,-75,o),
(292,-91,c),
(313,-111,o),
(324,-140,o),
(324,-170,cs),
(324,-228,o),
(284,-273,o),
(243,-281,c),
(245,-310,o),
(260,-326,o),
(288,-326,cs,{
name = hr00;
})
);
}
);
};
layerId = master01;
shapes = (
{
ref = N;
},
{
pos = (180,0);
ref = commaaccentcomb;
}
);
width = 769;
}
);
unicode = 325;
},
{
glyphname = Ntilde;
lastChange = "2022-03-30 08:31:01 +0000";
layers = (
{
background = {
shapes = (
{
closed = 1;
nodes = (
(644,352,o),
(721,661,o),
(721,783,cs),
(721,862,o),
(702,889,o),
(665,889,cs),
(649,889,o),
(617,879,o),
(605,866,c),
(625,826,o),
(626,779,o),
(626,731,cs),
(626,584,o),
(572,325,o),
(558,180,c),
(469,369,o),
(400,676,o),
(340,793,cs),
(301,869,o),
(270,889,o),
(213,889,cs),
(184,889,o),
(154,878,o),
(148,866,c),
(168,826,o),
(169,779,o),
(169,731,cs),
(169,563,o),
(98,246,o),
(98,125,cs),
(98,24,o),
(129,-7,o),
(171,-7,cs),
(188,-7,o),
(215,0,o),
(226,29,c),
(193,65,o),
(187,114,o),
(187,166,cs),
(187,321,o),
(241,561,o),
(259,707,c),
(339,531,o),
(415,227,o),
(473,115,cs),
(523,17,o),
(563,-7,o),
(621,-7,cs),
(647,-7,o),
(674,1,o),
(685,29,c),
(652,65,o),
(644,114,o),
(644,166,cs)
);
},
{
closed = 1;
nodes = (
(586,1027,o),
(564,1007,o),
(542,1007,cs),
(493,1007,o),
(475,1073,o),
(399,1073,cs),
(343,1073,o),
(300,1013,o),
(300,958,cs),
(300,931,o),
(322,926,o),
(344,926,c),
(351,973,o),
(373,993,o),
(395,993,cs),
(444,993,o),
(462,927,o),
(538,927,cs),
(594,927,o),
(637,987,o),
(637,1042,cs),
(637,1069,o),
(615,1074,o),
(593,1074,c)
);
},
{
closed = 1;
nodes = (
(644,352,o),
(721,661,o),
(721,783,cs),
(721,862,o),
(702,889,o),
(665,889,cs),
(649,889,o),
(617,879,o),
(605,866,c),
(625,826,o),
(626,779,o),
(626,731,cs),
(626,584,o),
(572,325,o),
(558,180,c),
(469,369,o),
(400,676,o),
(340,793,cs),
(301,869,o),
(270,889,o),
(213,889,cs),
(184,889,o),
(154,878,o),
(148,866,c),
(168,826,o),
(169,779,o),
(169,731,cs),
(169,563,o),
(98,246,o),
(98,125,cs),
(98,24,o),
(129,-7,o),
(171,-7,cs),
(188,-7,o),
(215,0,o),
(226,29,c),
(193,65,o),
(187,114,o),
(187,166,cs),
(187,321,o),
(241,561,o),
(259,707,c),
(339,531,o),
(415,227,o),
(473,115,cs),
(523,17,o),
(563,-7,o),
(621,-7,cs),
(647,-7,o),
(674,1,o),
(685,29,c),
(652,65,o),
(644,114,o),
(644,166,cs,{
name = hr00;
})
);
},
{
closed = 1;
nodes = (
(586,1027,o),
(564,1007,o),
(542,1007,cs),
(493,1007,o),
(475,1073,o),
(399,1073,cs,{
name = hr01;
}),
(343,1073,o),
(300,1013,o),
(300,958,cs),
(300,931,o),
(322,926,o),
(344,926,c),
(351,973,o),
(373,993,o),
(395,993,cs),
(444,993,o),
(462,927,o),
(538,927,cs,{
name = hr02;
}),
(594,927,o),
(637,987,o),
(637,1042,cs),
(637,1069,o),
(615,1074,o),
(593,1074,c)
);
}
);
};
layerId = master01;
shapes = (
{
ref = N;
},
{
pos = (167,0);
ref = tildecomb.case;
}
);
width = 769;
}
);
unicode = 209;
},
{
glyphname = Eng;
lastChange = "2022-03-30 08:26:38 +0000";
layers = (
{
anchors = (
{
name = bottom;
pos = (385,0);
},
{
name = top;
pos = (385,889);
}
);
background = {
shapes = (
{
closed = 1;
nodes = (
(721,862,o),
(702,889,o),
(665,889,cs),
(649,889,o),
(617,879,o),
(605,866,c),
(625,826,o),
(626,779,o),
(626,731,cs),
(626,577,o),
(578,305,o),
(556,153,c),
(468,350,o),
(400,672,o),
(340,793,cs),
(302,869,o),
(270,889,o),
(213,889,cs),
(184,889,o),
(154,878,o),
(148,866,c),
(168,826,o),
(169,779,o),
(169,731,cs),
(169,563,o),
(98,246,o),
(98,125,cs),
(98,24,o),
(129,-7,o),
(171,-7,cs),
(188,-7,o),
(215,0,o),
(226,29,c),
(193,65,o),
(187,114,o),
(187,166,cs),
(187,321,o),
(241,561,o),
(259,707,c),
(339,531,o),
(415,227,o),
(473,115,cs),
(495,72,o),
(515,44,o),
(535,25,c),
(507,-103,o),
(457,-192,o),
(367,-192,cs),
(321,-192,o),
(285,-170,o),
(263,-115,c),
(247,-126,o),
(227,-149,o),
(227,-189,cs),
(227,-241,o),
(280,-275,o),
(344,-275,cs),
(555,-275,o),
(592,-51,o),
(648,253,cs),
(678,415,o),
(721,646,o),
(721,783,cs,{
name = hr00;
})
);
}
);
};
layerId = master01;
shapes = (
{
closed = 1;
nodes = (
(555,-275,o),
(592,-51,o),
(648,253,cs),
(678,415,o),
(721,646,o),
(721,783,cs,{
name = hr00;
}),
(721,862,o),
(702,889,o),
(665,889,cs),
(649,889,o),
(617,879,o),
(605,866,c),
(625,826,o),
(626,779,o),
(626,731,cs),
(626,577,o),
(578,305,o),
(556,153,c),
(468,350,o),
(400,672,o),
(340,793,cs),
(302,869,o),
(270,889,o),
(213,889,cs),
(184,889,o),
(154,878,o),
(148,866,c),
(168,826,o),
(169,779,o),
(169,731,cs),
(169,563,o),
(98,246,o),
(98,125,cs),
(98,24,o),
(129,-7,o),
(171,-7,cs),
(188,-7,o),
(215,0,o),
(226,29,c),
(193,65,o),
(187,114,o),
(187,166,cs),
(187,321,o),
(241,561,o),
(259,707,c),
(339,531,o),
(415,227,o),
(473,115,cs),
(495,72,o),
(515,44,o),
(535,25,c),
(507,-103,o),
(457,-192,o),
(367,-192,cs),
(321,-192,o),
(285,-170,o),
(263,-115,c),
(247,-126,o),
(227,-149,o),
(227,-189,cs),
(227,-241,o),
(280,-275,o),
(344,-275,cs)
);
}
);
width = 769;
}
);
unicode = 330;
},
{
glyphname = O;
lastChange = "2022-03-30 08:26:38 +0000";
layers = (
{
anchors = (
{
name = bottom;
pos = (391,0);
},
{
name = center;
pos = (391,445);
},
{
name = ogonek;
pos = (704,10);
},
{
name = top;
pos = (473,889);
},
{
name = topleft;
pos = (20,889);
},
{
name = topright;
pos = (762,889);
}
);
background = {
shapes = (
{
closed = 1;
nodes = (
(630,364,o),
(587,57,o),
(405,57,cs),
(271,57,o),
(186,167,o),
(186,380,cs),
(186,503,o),
(229,810,o),
(411,810,cs),
(545,810,o),
(630,700,o),
(630,487,cs,{
name = hr00;
})
);
},
{
closed = 1;
nodes = (
(606,-21,o),
(738,281,o),
(738,531,cs),
(738,729,o),
(645,889,o),
(472,889,cs),
(209,889,o),
(78,586,o),
(78,336,cs),
(78,138,o),
(171,-21,o),
(344,-21,cs)
);
}
);
};
layerId = master01;
shapes = (
{
closed = 1;
nodes = (
(606,-21,o),
(738,281,o),
(738,531,cs),
(738,729,o),
(645,889,o),
(472,889,cs),
(209,889,o),
(78,586,o),
(78,336,cs),
(78,138,o),
(171,-21,o),
(344,-21,cs)
);
},
{
closed = 1;
nodes = (
(271,57,o),
(186,167,o),
(186,380,cs),
(186,503,o),
(229,810,o),
(411,810,cs),
(545,810,o),
(630,700,o),
(630,487,cs,{
name = hr00;
}),
(630,364,o),
(587,57,o),
(405,57,cs)
);
}
);
width = 782;
}
);
unicode = 79;
},
{
glyphname = Oacute;
lastChange = "2022-03-30 08:15:00 +0000";
layers = (
{
background = {
shapes = (
{
closed = 1;
nodes = (
(630,364,o),
(587,57,o),
(405,57,cs),
(271,57,o),
(186,167,o),
(186,380,cs),
(186,503,o),
(229,810,o),
(411,810,cs),
(545,810,o),
(630,700,o),
(630,487,cs)
);
},
{
closed = 1;
nodes = (
(606,-21,o),
(738,281,o),
(738,531,cs),
(738,729,o),
(645,889,o),
(472,889,cs),
(209,889,o),
(78,586,o),
(78,336,cs),
(78,138,o),
(171,-21,o),
(344,-21,cs)
);
},
{
closed = 1;
nodes = (
(598,1042,o),
(604,1048,o),
(604,1061,cs),
(604,1073,o),
(591,1089,o),
(547,1089,cs),
(534,1089,o),
(519,1088,o),
(500,1084,c),
(483,1053,o),
(449,1021,o),
(340,939,c),
(349,921,o),
(359,911,o),
(367,911,cs),
(387,911,o),
(495,969,o),
(567,1020,cs)
);
},
{
closed = 1;
nodes = (
(630,364,o),
(587,57,o),
(405,57,cs),
(271,57,o),
(186,167,o),
(186,380,cs),
(186,503,o),
(229,810,o),
(411,810,cs),
(545,810,o),
(630,700,o),
(630,487,cs,{
name = hr00;
})
);
},
{
closed = 1;
nodes = (
(606,-21,o),
(738,281,o),
(738,531,cs),
(738,729,o),
(645,889,o),
(472,889,cs),
(209,889,o),
(78,586,o),
(78,336,cs),
(78,138,o),
(171,-21,o),
(344,-21,cs)
);
},
{
closed = 1;
nodes = (
(598,1042,o),
(604,1048,o),
(604,1061,cs),
(604,1073,o),
(591,1089,o),
(547,1089,cs),
(534,1089,o),
(519,1088,o),
(500,1084,c),
(483,1053,o),
(449,1021,o),
(340,939,c),
(349,921,o),
(359,911,o),
(367,911,cs),
(387,911,o),
(495,969,o),
(567,1020,cs,{
name = hr00;
})
);
}
);
};
layerId = master01;
shapes = (
{
ref = O;
},
{
pos = (224,0);
ref = acutecomb.case;
}
);
width = 782;
}
);
unicode = 211;
},
{
glyphname = Obreve;
lastChange = "2022-03-30 08:37:26 +0000";
layers = (
{
background = {
shapes = (
{
closed = 1;
nodes = (
(630,364,o),
(587,57,o),
(405,57,cs),
(271,57,o),
(186,167,o),
(186,380,cs),
(186,503,o),
(229,810,o),
(411,810,cs),
(545,810,o),
(630,700,o),
(630,487,cs,{
name = hr00;
})
);
},
{
closed = 1;
nodes = (
(606,-21,o),
(738,281,o),
(738,531,cs),
(738,729,o),
(645,889,o),
(472,889,cs),
(209,889,o),
(78,586,o),
(78,336,cs),
(78,138,o),
(171,-21,o),
(344,-21,cs)
);
},
{
closed = 1;
nodes = (
(355,1089,o),
(336,1079,o),
(326,1061,c),
(367,969,o),
(400,911,o),
(477,911,cs),
(554,911,o),
(592,961,o),
(656,1061,c),
(646,1079,o),
(626,1089,o),
(619,1089,cs),
(602,1089,o),
(551,987,o),
(479,987,cs),
(412,987,o),
(382,1089,o),
(363,1089,cs,{
name = hr00;
})
);
}
);
};
layerId = master01;
shapes = (
{
ref = O;
},
{
pos = (288,0);
ref = brevecomb.case;
}
);
width = 782;
}
);
unicode = 334;
},
{
glyphname = Ocircumflex;
lastChange = "2022-03-30 08:16:42 +0000";
layers = (
{
background = {
shapes = (
{
closed = 1;
nodes = (
(630,364,o),
(587,57,o),
(405,57,cs),
(271,57,o),
(186,167,o),
(186,380,cs),
(186,503,o),
(229,810,o),
(411,810,cs),
(545,810,o),
(630,700,o),
(630,487,cs)
);
},
{
closed = 1;
nodes = (
(606,-21,o),
(738,281,o),
(738,531,cs),
(738,729,o),
(645,889,o),
(472,889,cs),
(209,889,o),
(78,586,o),
(78,336,cs),
(78,138,o),
(171,-21,o),
(344,-21,cs)
);
},
{
closed = 1;
nodes = (
(619,911,o),
(629,921,o),
(638,939,c),
(575,1001,o),
(538,1065,o),
(529,1078,c),
(518,1086,o),
(498,1089,o),
(478,1089,cs),
(461,1089,o),
(445,1087,o),
(435,1084,c),
(418,1053,o),
(398,1021,o),
(289,939,c),
(299,921,o),
(309,911,o),
(316,911,cs),
(333,911,o),
(410,957,o),
(475,1002,c),
(545,946,o),
(592,911,o),
(611,911,cs)
);
},
{
closed = 1;
nodes = (
(630,364,o),
(587,57,o),
(405,57,cs),
(271,57,o),
(186,167,o),
(186,380,cs),
(186,503,o),
(229,810,o),
(411,810,cs),
(545,810,o),
(630,700,o),
(630,487,cs,{
name = hr00;
})
);
},
{
closed = 1;
nodes = (
(606,-21,o),
(738,281,o),
(738,531,cs),
(738,729,o),
(645,889,o),
(472,889,cs),
(209,889,o),
(78,586,o),
(78,336,cs),
(78,138,o),
(171,-21,o),
(344,-21,cs)
);
},
{
closed = 1;
nodes = (
(619,911,o),
(629,921,o),
(638,939,c),
(575,1001,o),
(538,1065,o),
(529,1078,c),
(518,1086,o),
(498,1089,o),
(478,1089,cs),
(461,1089,o),
(445,1087,o),
(435,1084,c),
(418,1053,o),
(398,1021,o),
(289,939,c),
(299,921,o),
(309,911,o),
(316,911,cs),
(333,911,o),
(410,957,o),
(475,1002,c),
(545,946,o),
(592,911,o),
(611,911,cs,{
name = hr00;
})
);
}
);
};
layerId = master01;
shapes = (
{
ref = O;
},
{
pos = (250,0);
ref = circumflexcomb.case;
}
);
width = 782;
}
);
unicode = 212;
},
{
glyphname = Odieresis;
lastChange = "2022-03-30 08:24:07 +0000";
layers = (
{
background = {
shapes = (
{
closed = 1;
nodes = (
(630,364,o),
(587,57,o),
(405,57,cs),
(271,57,o),
(186,167,o),
(186,380,cs),
(186,503,o),
(229,810,o),
(411,810,cs),
(545,810,o),
(630,700,o),
(630,487,cs)
);
},
{
closed = 1;
nodes = (
(606,-21,o),
(738,281,o),
(738,531,cs),
(738,729,o),
(645,889,o),
(472,889,cs),
(209,889,o),
(78,586,o),
(78,336,cs),
(78,138,o),
(171,-21,o),
(344,-21,cs)
);
},
{
closed = 1;
nodes = (
(423,1043,o),
(396,1055,o),
(365,1055,cs),
(343,1055,o),
(320,1047,o),
(296,1032,c),
(291,1008,o),
(289,989,o),
(289,975,cs),
(289,943,o),
(303,928,o),
(343,928,cs),
(364,928,o),
(388,936,o),
(412,951,c),
(419,977,o),
(423,997,o),
(423,1012,cs)
);
},
{
closed = 1;
nodes = (
(657,1043,o),
(630,1055,o),
(599,1055,cs),
(577,1055,o),
(555,1047,o),
(530,1032,c),
(526,1008,o),
(523,989,o),
(523,975,cs),
(523,943,o),
(537,928,o),
(577,928,cs),
(598,928,o),
(622,936,o),
(646,951,c),
(654,977,o),
(657,997,o),
(657,1012,cs)
);
},
{
closed = 1;
nodes = (
(630,364,o),
(587,57,o),
(405,57,cs),
(271,57,o),
(186,167,o),
(186,380,cs),
(186,503,o),
(229,810,o),
(411,810,cs),
(545,810,o),
(630,700,o),
(630,487,cs,{
name = hr00;
})
);
},
{
closed = 1;
nodes = (
(606,-21,o),
(738,281,o),
(738,531,cs),
(738,729,o),
(645,889,o),
(472,889,cs),
(209,889,o),
(78,586,o),
(78,336,cs),
(78,138,o),
(171,-21,o),
(344,-21,cs)
);
},
{
closed = 1;
nodes = (
(423,1043,o),
(396,1055,o),
(365,1055,cs),
(343,1055,o),
(320,1047,o),
(296,1032,c),
(291,1008,o),
(289,989,o),
(289,975,cs),
(289,943,o),
(303,928,o),
(343,928,cs),
(364,928,o),
(388,936,o),
(412,951,c),
(419,977,o),
(423,997,o),
(423,1012,cs,{
name = hr00;
})
);
},
{
closed = 1;
nodes = (
(657,1043,o),
(630,1055,o),
(599,1055,cs),
(577,1055,o),
(555,1047,o),
(530,1032,c),
(526,1008,o),
(523,989,o),
(523,975,cs),
(523,943,o),
(537,928,o),
(577,928,cs),
(598,928,o),
(622,936,o),
(646,951,c),
(654,977,o),
(657,997,o),
(657,1012,cs)
);
}
);
};
layerId = master01;
shapes = (
{
ref = O;
},
{
pos = (284,0);
ref = dieresiscomb.case;
}
);
width = 782;
}
);
unicode = 214;
},
{
glyphname = Ograve;
lastChange = "2022-03-30 08:15:00 +0000";
layers = (
{
background = {
shapes = (
{
closed = 1;
nodes = (
(630,364,o),
(587,57,o),
(405,57,cs),
(271,57,o),
(186,167,o),
(186,380,cs),
(186,503,o),
(229,810,o),
(411,810,cs),
(545,810,o),
(630,700,o),
(630,487,cs,{
name = hr00;
})
);
},
{
closed = 1;
nodes = (
(606,-21,o),
(738,281,o),
(738,531,cs),
(738,729,o),
(645,889,o),
(472,889,cs),
(209,889,o),
(78,586,o),
(78,336,cs),
(78,138,o),
(171,-21,o),
(344,-21,cs)
);
},
{
closed = 1;
nodes = (
(453,969,o),
(562,911,o),
(582,911,cs),
(589,911,o),
(599,921,o),
(609,939,c),
(500,1021,o),
(465,1053,o),
(448,1084,c),
(429,1088,o),
(414,1089,o),
(401,1089,cs),
(357,1089,o),
(344,1073,o),
(344,1061,cs),
(344,1048,o),
(350,1042,o),
(381,1020,cs,{
name = hr00;
})
);
}
);
};
layerId = master01;
shapes = (
{
ref = O;
},
{
pos = (188,0);
ref = gravecomb.case;
}
);
width = 782;
}
);
unicode = 210;
},
{
glyphname = Ohungarumlaut;
lastChange = "2022-03-30 08:38:06 +0000";
layers = (
{
background = {
shapes = (
{
closed = 1;
nodes = (
(630,364,o),
(587,57,o),
(405,57,cs),
(271,57,o),
(186,167,o),
(186,380,cs),
(186,503,o),
(229,810,o),
(411,810,cs),
(545,810,o),
(630,700,o),
(630,487,cs,{
name = hr00;
})
);
},
{
closed = 1;
nodes = (
(606,-21,o),
(738,281,o),
(738,531,cs),
(738,729,o),
(645,889,o),
(472,889,cs),
(209,889,o),
(78,586,o),
(78,336,cs),
(78,138,o),
(171,-21,o),
(344,-21,cs)
);
},
{
closed = 1;
nodes = (
(529,1072,o),
(535,1077,o),
(535,1090,cs),
(535,1102,o),
(527,1118,o),
(483,1118,cs),
(470,1118,o),
(454,1117,o),
(435,1113,c),
(418,1082,o),
(399,1050,o),
(300,968,c),
(309,950,o),
(319,940,o),
(327,940,cs),
(347,940,o),
(426,997,o),
(497,1049,cs,{
name = hr00;
})
);
},
{
closed = 1;
nodes = (
(725,1072,o),
(730,1077,o),
(730,1090,cs),
(730,1102,o),
(722,1118,o),
(678,1118,cs),
(665,1118,o),
(650,1117,o),
(631,1113,c),
(614,1082,o),
(594,1050,o),
(495,968,c),
(505,950,o),
(515,940,o),
(522,940,cs),
(542,940,o),
(621,997,o),
(693,1049,cs)
);
}
);
};
layerId = master01;
shapes = (
{
ref = O;
},
{
pos = (280,0);
ref = hungarumlautcomb.case;
}
);
width = 782;
}
);
unicode = 336;
},
{
glyphname = Omacron;
lastChange = "2022-03-30 08:15:00 +0000";
layers = (
{
background = {
shapes = (
{
closed = 1;
nodes = (
(630,364,o),
(587,57,o),
(405,57,cs),
(271,57,o),
(186,167,o),
(186,380,cs),
(186,503,o),
(229,810,o),
(411,810,cs),
(545,810,o),
(630,700,o),
(630,487,cs,{
name = hr00;
})
);
},
{
closed = 1;
nodes = (
(606,-21,o),
(738,281,o),
(738,531,cs),
(738,729,o),
(645,889,o),
(472,889,cs),
(209,889,o),
(78,586,o),
(78,336,cs),
(78,138,o),
(171,-21,o),
(344,-21,cs)
);
},
{
closed = 1;
nodes = (
(348,978,o),
(359,950,o),
(369,937,c),
(388,947,o),
(427,952,o),
(450,952,cs,{
name = hr01;
}),
(474,952,o),
(510,948,o),
(540,948,cs),
(610,948,o),
(634,970,o),
(634,1000,cs),
(634,1017,o),
(631,1032,o),
(620,1045,c,{
name = hr02;
}),
(600,1033,o),
(577,1026,o),
(549,1026,cs,{
name = hr03;
}),
(513,1026,o),
(438,1036,o),
(404,1036,cs),
(376,1036,o),
(348,1026,o),
(348,1000,cs)
);
}
);
};
layerId = master01;
shapes = (
{
ref = O;
},
{
pos = (266,0);
ref = macroncomb.case;
}
);
width = 782;
}
);
unicode = 332;
},
{
glyphname = Oslash;
lastChange = "2022-03-30 08:38:20 +0000";
layers = (
{
anchors = (
{
name = bottom;
pos = (391,0);
},
{
name = top;
pos = (471,889);
}
);
background = {
shapes = (
{
closed = 1;
nodes = (
(738,682,o),
(683,812,o),
(580,864,c),
(592,879,o),
(608,893,o),
(627,903,c),
(626,938,o),
(592,947,o),
(574,947,cs),
(545,947,o),
(516,931,o),
(489,888,c),
(483,889,o),
(477,889,o),
(472,889,cs),
(209,889,o),
(78,586,o),
(78,336,cs),
(78,177,o),
(138,43,o),
(251,-3,c),
(236,-38,o),
(217,-69,o),
(190,-101,c),
(211,-123,o),
(235,-128,o),
(252,-128,cs),
(288,-128,o),
(318,-101,o),
(347,-21,c),
(607,-18,o),
(738,282,o),
(738,531,cs,{
name = hr00;
})
);
},
{
closed = 1;
nodes = (
(630,364,o),
(587,57,o),
(405,57,cs),
(393,57,o),
(382,58,o),
(371,59,c),
(413,234,o),
(459,553,o),
(532,770,c),
(594,720,o),
(630,625,o),
(630,487,cs)
);
},
{
closed = 1;
nodes = (
(186,503,o),
(229,810,o),
(411,810,cs),
(424,810,o),
(437,808,o),
(450,806,c),
(401,666,o),
(350,318,o),
(285,96,c),
(222,145,o),
(186,240,o),
(186,380,cs)
);
}
);
};
layerId = master01;
shapes = (
{
closed = 1;
nodes = (
(288,-128,o),
(318,-101,o),
(347,-21,c),
(607,-18,o),
(738,282,o),
(738,531,cs,{
name = hr00;
}),
(738,682,o),
(683,812,o),
(580,864,c),
(592,879,o),
(608,893,o),
(627,903,c),
(626,938,o),
(592,947,o),
(574,947,cs),
(545,947,o),
(516,931,o),
(489,888,c),
(483,889,o),
(477,889,o),
(472,889,cs),
(209,889,o),
(78,586,o),
(78,336,cs),
(78,177,o),
(138,43,o),
(251,-3,c),
(236,-38,o),
(217,-69,o),
(190,-101,c),
(211,-123,o),
(235,-128,o),
(252,-128,cs)
);
},
{
closed = 1;
nodes = (
(222,145,o),
(186,240,o),
(186,380,cs),
(186,503,o),
(229,810,o),
(411,810,cs),
(424,810,o),
(437,808,o),
(450,806,c),
(401,666,o),
(350,318,o),
(285,96,c)
);
},
{
closed = 1;
nodes = (
(393,57,o),
(382,58,o),
(371,59,c),
(413,234,o),
(459,553,o),
(532,770,c),
(594,720,o),
(630,625,o),
(630,487,cs),
(630,364,o),
(587,57,o),
(405,57,cs)
);
}
);
width = 782;
}
);
unicode = 216;
},
{
glyphname = Oslashacute;
lastChange = "2022-03-30 08:38:20 +0000";
layers = (
{
background = {
shapes = (
{
closed = 1;
nodes = (
(738,682,o),
(683,812,o),
(580,864,c),
(592,879,o),
(608,893,o),
(627,903,c),
(626,938,o),
(592,947,o),
(574,947,cs),
(545,947,o),
(516,931,o),
(489,888,c),
(483,889,o),
(477,889,o),
(472,889,cs),
(209,889,o),
(78,586,o),
(78,336,cs),
(78,177,o),
(138,43,o),
(251,-3,c),
(236,-38,o),
(217,-69,o),
(190,-101,c),
(211,-123,o),
(235,-128,o),
(252,-128,cs),
(288,-128,o),
(318,-101,o),
(347,-21,c),
(607,-18,o),
(738,282,o),
(738,531,cs,{
name = hr00;
})
);
},
{
closed = 1;
nodes = (
(630,364,o),
(587,57,o),
(405,57,cs),
(393,57,o),
(382,58,o),
(371,59,c),
(413,234,o),
(459,553,o),
(532,770,c),
(594,720,o),
(630,625,o),
(630,487,cs)
);
},
{
closed = 1;
nodes = (
(186,503,o),
(229,810,o),
(411,810,cs),
(424,810,o),
(437,808,o),
(450,806,c),
(401,666,o),
(350,318,o),
(285,96,c),
(222,145,o),
(186,240,o),
(186,380,cs)
);
},
{
closed = 1;
nodes = (
(597,1042,o),
(603,1048,o),
(603,1061,cs),
(603,1073,o),
(590,1089,o),
(546,1089,cs),
(533,1089,o),
(518,1088,o),
(499,1084,c),
(482,1053,o),
(448,1021,o),
(339,939,c),
(348,921,o),
(358,911,o),
(366,911,cs),
(386,911,o),
(494,969,o),
(566,1020,cs,{
name = hr00;
})
);
}
);
};
layerId = master01;
shapes = (
{
ref = Oslash;
},
{
pos = (222,0);
ref = acutecomb.case;
}
);
width = 782;
}
);
unicode = 510;
},
{
glyphname = Otilde;
lastChange = "2022-03-30 08:15:00 +0000";
layers = (
{
background = {
shapes = (
{
closed = 1;
nodes = (
(630,364,o),
(587,57,o),
(405,57,cs),
(271,57,o),
(186,167,o),
(186,380,cs),
(186,503,o),
(229,810,o),
(411,810,cs),
(545,810,o),
(630,700,o),
(630,487,cs)
);
},
{
closed = 1;
nodes = (
(606,-21,o),
(738,281,o),
(738,531,cs),
(738,729,o),
(645,889,o),
(472,889,cs),
(209,889,o),
(78,586,o),
(78,336,cs),
(78,138,o),
(171,-21,o),
(344,-21,cs)
);
},
{
closed = 1;
nodes = (
(592,1027,o),
(570,1007,o),
(548,1007,cs),
(499,1007,o),
(481,1073,o),
(405,1073,cs),
(349,1073,o),
(306,1013,o),
(306,958,cs),
(306,931,o),
(328,926,o),
(350,926,c),
(357,973,o),
(379,993,o),
(401,993,cs),
(450,993,o),
(468,927,o),
(544,927,cs),
(600,927,o),
(643,987,o),
(643,1042,cs),
(643,1069,o),
(621,1074,o),
(599,1074,c)
);
},
{
closed = 1;
nodes = (
(630,364,o),
(587,57,o),
(405,57,cs),
(271,57,o),
(186,167,o),
(186,380,cs),
(186,503,o),
(229,810,o),
(411,810,cs),
(545,810,o),
(630,700,o),
(630,487,cs,{
name = hr00;
})
);
},
{
closed = 1;
nodes = (
(606,-21,o),
(738,281,o),
(738,531,cs),
(738,729,o),
(645,889,o),
(472,889,cs),
(209,889,o),
(78,586,o),
(78,336,cs),
(78,138,o),
(171,-21,o),
(344,-21,cs)
);
},
{
closed = 1;
nodes = (
(592,1027,o),
(570,1007,o),
(548,1007,cs),
(499,1007,o),
(481,1073,o),
(405,1073,cs,{
name = hr01;
}),
(349,1073,o),
(306,1013,o),
(306,958,cs),
(306,931,o),
(328,926,o),
(350,926,c),
(357,973,o),
(379,993,o),
(401,993,cs),
(450,993,o),
(468,927,o),
(544,927,cs,{
name = hr02;
}),
(600,927,o),
(643,987,o),
(643,1042,cs),
(643,1069,o),
(621,1074,o),
(599,1074,c)
);
}
);
};
layerId = master01;
shapes = (
{
ref = O;
},
{
pos = (169,0);
ref = tildecomb.case;
}
);
width = 782;
}
);
unicode = 213;
},
{
glyphname = OE;
lastChange = "2022-03-30 08:26:38 +0000";
layers = (
{
anchors = (
{
name = bottom;
pos = (495,0);
},
{
name = top;
pos = (495,889);
}
);
background = {
shapes = (
{
closed = 1;
nodes = (
(757,786,o),
(840,776,o),
(915,776,cs),
(985,776,o),
(1023,793,o),
(1030,884,c),
(996,868,o),
(937,865,o),
(870,865,cs),
(817,865,o),
(760,867,o),
(708,867,cs),
(669,867,o),
(626,865,o),
(593,857,c),
(559,878,o),
(518,889,o),
(472,889,cs,{
name = hr01;
}),
(209,889,o),
(78,586,o),
(78,336,cs),
(78,138,o),
(173,-26,o),
(387,-26,cs),
(458,-26,o),
(530,-12,o),
(581,15,c),
(653,4,o),
(760,-10,o),
(811,-10,cs,{
name = hr02;
}),
(909,-10,o),
(964,-5,o),
(972,105,c),
(934,85,o),
(838,79,o),
(734,79,cs),
(685,79,o),
(637,81,o),
(596,83,c),
(595,92,o),
(595,102,o),
(595,112,cs),
(595,191,o),
(609,298,o),
(626,406,c),
(675,402,o),
(714,398,o),
(756,398,cs),
(831,398,o),
(886,403,o),
(894,512,c),
(843,487,o),
(739,480,o),
(638,479,c),
(659,605,o),
(680,730,o),
(680,798,c)
);
},
{
closed = 1;
nodes = (
(271,57,o),
(186,167,o),
(186,380,cs),
(186,503,o),
(229,810,o),
(411,810,cs),
(476,810,o),
(529,784,o),
(567,733,c),
(565,541,o),
(483,228,o),
(483,89,cs,{
name = hr04;
}),
(483,71,l),
(456,62,o),
(429,57,o),
(405,57,cs)
);
}
);
};
layerId = master01;
shapes = (
{
closed = 1;
nodes = (
(458,-26,o),
(530,-12,o),
(581,15,c),
(653,4,o),
(760,-10,o),
(811,-10,cs,{
name = hr02;
}),
(909,-10,o),
(964,-5,o),
(972,105,c),
(934,85,o),
(838,79,o),
(734,79,cs),
(685,79,o),
(637,81,o),
(596,83,c),
(595,92,o),
(595,102,o),
(595,112,cs),
(595,191,o),
(609,298,o),
(626,406,c),
(675,402,o),
(714,398,o),
(756,398,cs),
(831,398,o),
(886,403,o),
(894,512,c),
(843,487,o),
(739,480,o),
(638,479,c),
(659,605,o),
(680,730,o),
(680,798,c),
(757,786,o),
(840,776,o),
(915,776,cs),
(985,776,o),
(1023,793,o),
(1030,884,c),
(996,868,o),
(937,865,o),
(870,865,cs),
(817,865,o),
(760,867,o),
(708,867,cs),
(669,867,o),
(626,865,o),
(593,857,c),
(559,878,o),
(518,889,o),
(472,889,cs,{
name = hr01;
}),
(209,889,o),
(78,586,o),
(78,336,cs),
(78,138,o),
(173,-26,o),
(387,-26,cs)
);
},
{
closed = 1;
nodes = (
(271,57,o),
(186,167,o),
(186,380,cs),
(186,503,o),
(229,810,o),
(411,810,cs),
(476,810,o),
(529,784,o),
(567,733,c),
(565,541,o),
(483,228,o),
(483,89,cs,{
name = hr04;
}),
(483,71,l),
(456,62,o),
(429,57,o),
(405,57,cs)
);
}
);
width = 989;
}
);
unicode = 338;
},
{
glyphname = P;
lastChange = "2022-03-30 08:26:38 +0000";
layers = (
{
anchors = (
{
name = bottom;
pos = (288,0);
},
{
name = top;
pos = (288,889);
}
);
background = {
shapes = (
{
closed = 1;
nodes = (
(624,846,o),
(511,889,o),
(377,889,cs),
(306,889,o),
(229,877,o),
(159,864,c),
(167,839,o),
(174,793,o),
(174,765,cs),
(174,598,o),
(98,246,o),
(98,125,cs,{
name = hr01;
}),
(98,24,o),
(129,-7,o),
(176,-7,cs),
(192,-7,o),
(220,0,o),
(245,29,c),
(212,65,o),
(207,114,o),
(207,166,cs),
(207,209,o),
(211,262,o),
(218,319,c),
(372,358,o),
(624,462,o),
(624,684,cs)
);
},
{
closed = 1;
nodes = (
(311,826,o),
(333,828,o),
(355,828,cs),
(450,828,o),
(519,784,o),
(519,663,cs),
(519,498,o),
(373,418,o),
(227,387,c),
(251,550,o),
(286,729,o),
(287,822,c,{
name = hr02;
})
);
}
);
};
layerId = master01;
shapes = (
{
closed = 1;
nodes = (
(192,-7,o),
(220,0,o),
(245,29,c),
(212,65,o),
(207,114,o),
(207,166,cs),
(207,209,o),
(211,262,o),
(218,319,c),
(372,358,o),
(624,462,o),
(624,684,cs),
(624,846,o),
(511,889,o),
(377,889,cs),
(306,889,o),
(229,877,o),
(159,864,c),
(167,839,o),
(174,793,o),
(174,765,cs),
(174,598,o),
(98,246,o),
(98,125,cs,{
name = hr01;
}),
(98,24,o),
(129,-7,o),
(176,-7,cs)
);
},
{
closed = 1;
nodes = (
(251,550,o),
(286,729,o),
(287,822,c,{
name = hr02;
}),
(311,826,o),
(333,828,o),
(355,828,cs),
(450,828,o),
(519,784,o),
(519,663,cs),
(519,498,o),
(373,418,o),
(227,387,c)
);
}
);
width = 575;
}
);
unicode = 80;
},
{
glyphname = Thorn;
lastChange = "2022-03-30 08:26:38 +0000";
layers = (
{
anchors = (
{
name = bottom;
pos = (308,0);
},
{
name = top;
pos = (308,889);
}
);
background = {
shapes = (
{
closed = 1;
nodes = (
(207,185,l),
(360,223,o),
(615,327,o),
(615,551,cs),
(615,713,o),
(503,756,o),
(369,756,cs),
(341,756,o),
(312,754,o),
(283,751,c),
(284,763,o),
(284,773,o),
(284,783,cs,{
name = hr01;
}),
(284,862,o),
(260,889,o),
(215,889,cs),
(196,889,o),
(163,879,o),
(148,866,c),
(168,826,o),
(169,779,o),
(169,731,cs),
(169,563,o),
(98,246,o),
(98,125,cs,{
name = hr02;
}),
(98,24,o),
(129,-7,o),
(176,-7,cs),
(192,-7,o),
(220,0,o),
(245,29,c),
(212,65,o),
(207,114,o),
(207,166,c)
);
},
{
closed = 1;
nodes = (
(448,699,o),
(510,643,o),
(510,530,cs),
(510,362,o),
(359,282,o),
(211,252,c),
(223,395,o),
(260,573,o),
(276,694,c),
(297,697,o),
(317,699,o),
(336,699,cs)
);
}
);
};
layerId = master01;
shapes = (
{
closed = 1;
nodes = (
(192,-7,o),
(220,0,o),
(245,29,c),
(212,65,o),
(207,114,o),
(207,166,c),
(207,185,l),
(360,223,o),
(615,327,o),
(615,551,cs),
(615,713,o),
(503,756,o),
(369,756,cs),
(341,756,o),
(312,754,o),
(283,751,c),
(284,763,o),
(284,773,o),
(284,783,cs,{
name = hr01;
}),
(284,862,o),
(260,889,o),
(215,889,cs),
(196,889,o),
(163,879,o),
(148,866,c),
(168,826,o),
(169,779,o),
(169,731,cs),
(169,563,o),
(98,246,o),
(98,125,cs,{
name = hr02;
}),
(98,24,o),
(129,-7,o),
(176,-7,cs)
);
},
{
closed = 1;
nodes = (
(223,395,o),
(260,573,o),
(276,694,c),
(297,697,o),
(317,699,o),
(336,699,cs),
(448,699,o),
(510,643,o),
(510,530,cs),
(510,362,o),
(359,282,o),
(211,252,c)
);
}
);
width = 615;
}
);
unicode = 222;
},
{
glyphname = Q;
lastChange = "2022-03-30 08:26:38 +0000";
layers = (
{
anchors = (
{
name = bottom;
pos = (386,0);
},
{
name = top;
pos = (386,889);
}
);
background = {
shapes = (
{
closed = 1;
nodes = (
(351,-21,o),
(363,-20,o),
(375,-19,c),
(482,-98,o),
(573,-205,o),
(667,-205,cs),
(733,-205,o),
(773,-159,o),
(773,-100,c),
(759,-103,o),
(744,-104,o),
(730,-104,cs),
(637,-104,o),
(540,-54,o),
(446,-2,c),
(637,67,o),
(733,318,o),
(733,531,cs),
(733,729,o),
(640,889,o),
(467,889,cs),
(204,889,o),
(73,586,o),
(73,336,cs),
(73,138,o),
(166,-21,o),
(339,-21,cs,{
name = hr00;
})
);
},
{
closed = 1;
nodes = (
(625,364,o),
(582,57,o),
(400,57,cs),
(266,57,o),
(181,167,o),
(181,380,cs),
(181,503,o),
(224,810,o),
(406,810,cs),
(540,810,o),
(625,700,o),
(625,487,cs)
);
}
);
};
layerId = master01;
shapes = (
{
closed = 1;
nodes = (
(733,-205,o),
(773,-159,o),
(773,-100,c),
(759,-103,o),
(744,-104,o),
(730,-104,cs),
(637,-104,o),
(540,-54,o),
(446,-2,c),
(637,67,o),
(733,318,o),
(733,531,cs),
(733,729,o),
(640,889,o),
(467,889,cs),
(204,889,o),
(73,586,o),
(73,336,cs),
(73,138,o),
(166,-21,o),
(339,-21,cs,{
name = hr00;
}),
(351,-21,o),
(363,-20,o),
(375,-19,c),
(482,-98,o),
(573,-205,o),
(667,-205,cs)
);
},
{
closed = 1;
nodes = (
(266,57,o),
(181,167,o),
(181,380,cs),
(181,503,o),
(224,810,o),
(406,810,cs),
(540,810,o),
(625,700,o),
(625,487,cs),
(625,364,o),
(582,57,o),
(400,57,cs)
);
}
);
width = 772;
}
);
unicode = 81;
},
{
glyphname = R;
lastChange = "2022-03-30 08:38:36 +0000";
layers = (
{
anchors = (
{
name = bottom;
pos = (348,0);
},
{
name = top;
pos = (424,889);
}
);
background = {
shapes = (
{
closed = 1;
nodes = (
(638,847,o),
(520,889,o),
(382,889,cs),
(309,889,o),
(229,877,o),
(159,864,c),
(167,839,o),
(174,793,o),
(174,765,cs),
(174,598,o),
(98,246,o),
(98,125,cs,{
name = hr01;
}),
(98,24,o),
(129,-7,o),
(176,-7,cs),
(192,-7,o),
(220,0,o),
(245,29,c),
(212,65,o),
(207,114,o),
(207,166,cs),
(207,215,o),
(212,277,o),
(221,343,c),
(247,350,o),
(276,357,o),
(306,367,c),
(361,256,o),
(433,101,o),
(463,57,cs),
(502,-2,o),
(532,-10,o),
(558,-10,cs,{
name = hr02;
}),
(578,-10,o),
(627,3,o),
(637,74,c),
(529,91,o),
(476,240,o),
(394,401,c),
(519,458,o),
(638,550,o),
(638,692,cs)
);
},
{
closed = 1;
nodes = (
(311,826,o),
(335,828,o),
(358,828,cs),
(456,828,o),
(533,786,o),
(533,672,cs),
(533,517,o),
(377,442,o),
(231,412,c),
(255,568,o),
(286,734,o),
(287,822,c)
);
}
);
};
layerId = master01;
shapes = (
{
closed = 1;
nodes = (
(578,-10,o),
(627,3,o),
(637,74,c),
(529,91,o),
(476,240,o),
(394,401,c),
(519,458,o),
(638,550,o),
(638,692,cs),
(638,847,o),
(520,889,o),
(382,889,cs),
(309,889,o),
(229,877,o),
(159,864,c),
(167,839,o),
(174,793,o),
(174,765,cs),
(174,598,o),
(98,246,o),
(98,125,cs,{
name = hr01;
}),
(98,24,o),
(129,-7,o),
(176,-7,cs),
(192,-7,o),
(220,0,o),
(245,29,c),
(212,65,o),
(207,114,o),
(207,166,cs),
(207,215,o),
(212,277,o),
(221,343,c),
(247,350,o),
(276,357,o),
(306,367,c),
(361,256,o),
(433,101,o),
(463,57,cs),
(502,-2,o),
(532,-10,o),
(558,-10,cs,{
name = hr02;
})
);
},
{
closed = 1;
nodes = (
(255,568,o),
(286,734,o),
(287,822,c),
(311,826,o),
(335,828,o),
(358,828,cs),
(456,828,o),
(533,786,o),
(533,672,cs),
(533,517,o),
(377,442,o),
(231,412,c)
);
}
);
width = 654;
}
);
unicode = 82;
},
{
glyphname = Racute;
lastChange = "2022-03-30 08:31:01 +0000";
layers = (
{
background = {
shapes = (
{
closed = 1;
nodes = (
(638,847,o),
(520,889,o),
(382,889,cs),
(309,889,o),
(229,877,o),
(159,864,c),
(167,839,o),
(174,793,o),
(174,765,cs),
(174,598,o),
(98,246,o),
(98,125,cs,{
name = hr01;
}),
(98,24,o),
(129,-7,o),
(176,-7,cs),
(192,-7,o),
(220,0,o),
(245,29,c),
(212,65,o),
(207,114,o),
(207,166,cs),
(207,215,o),
(212,277,o),
(221,343,c),
(247,350,o),
(276,357,o),
(306,367,c),
(361,256,o),
(433,101,o),
(463,57,cs),
(502,-2,o),
(532,-10,o),
(558,-10,cs,{
name = hr02;
}),
(578,-10,o),
(627,3,o),
(637,74,c),
(529,91,o),
(476,240,o),
(394,401,c),
(519,458,o),
(638,550,o),
(638,692,cs)
);
},
{
closed = 1;
nodes = (
(311,826,o),
(335,828,o),
(358,828,cs),
(456,828,o),
(533,786,o),
(533,672,cs),
(533,517,o),
(377,442,o),
(231,412,c),
(255,568,o),
(286,734,o),
(287,822,c)
);
},
{
closed = 1;
nodes = (
(563,1042,o),
(569,1048,o),
(569,1061,cs),
(569,1073,o),
(556,1089,o),
(512,1089,cs),
(499,1089,o),
(484,1088,o),
(465,1084,c),
(448,1053,o),
(414,1021,o),
(305,939,c),
(314,921,o),
(324,911,o),
(332,911,cs),
(352,911,o),
(460,969,o),
(532,1020,cs,{
name = hr00;
})
);
}
);
};
layerId = master01;
shapes = (
{
ref = R;
},
{
pos = (175,0);
ref = acutecomb.case;
}
);
width = 654;
}
);
unicode = 340;
},
{
glyphname = Rcaron;
lastChange = "2022-03-30 08:28:06 +0000";
layers = (
{
background = {
shapes = (
{
closed = 1;
nodes = (
(638,847,o),
(520,889,o),
(382,889,cs),
(309,889,o),
(229,877,o),
(159,864,c),
(167,839,o),
(174,793,o),
(174,765,cs),
(174,598,o),
(98,246,o),
(98,125,cs,{
name = hr01;
}),
(98,24,o),
(129,-7,o),
(176,-7,cs),
(192,-7,o),
(220,0,o),
(245,29,c),
(212,65,o),
(207,114,o),
(207,166,cs),
(207,215,o),
(212,277,o),
(221,343,c),
(247,350,o),
(276,357,o),
(306,367,c),
(361,256,o),
(433,101,o),
(463,57,cs),
(502,-2,o),
(532,-10,o),
(558,-10,cs,{
name = hr02;
}),
(578,-10,o),
(627,3,o),
(637,74,c),
(529,91,o),
(476,240,o),
(394,401,c),
(519,458,o),
(638,550,o),
(638,692,cs)
);
},
{
closed = 1;
nodes = (
(311,826,o),
(335,828,o),
(358,828,cs),
(456,828,o),
(533,786,o),
(533,672,cs),
(533,517,o),
(377,442,o),
(231,412,c),
(255,568,o),
(286,734,o),
(287,822,c)
);
},
{
closed = 1;
nodes = (
(273,1118,o),
(263,1108,o),
(253,1090,c),
(316,1028,o),
(353,964,o),
(363,951,c),
(374,943,o),
(394,940,o),
(414,940,cs),
(430,940,o),
(447,942,o),
(457,945,c),
(474,976,o),
(493,1008,o),
(602,1090,c),
(593,1108,o),
(583,1118,o),
(575,1118,cs),
(558,1118,o),
(482,1072,o),
(416,1028,c),
(347,1083,o),
(300,1118,o),
(280,1118,cs,{
name = hr00;
})
);
}
);
};
layerId = master01;
shapes = (
{
ref = R;
},
{
pos = (233,0);
ref = caroncomb.case;
}
);
width = 654;
}
);
unicode = 344;
},
{
glyphname = Rcommaaccent;
lastChange = "2022-03-30 10:56:47 +0000";
layers = (
{
background = {
shapes = (
{
closed = 1;
nodes = (
(638,847,o),
(520,889,o),
(382,889,cs),
(309,889,o),
(229,877,o),
(159,864,c),
(167,839,o),
(174,793,o),
(174,765,cs),
(174,598,o),
(98,246,o),
(98,125,cs,{
name = hr01;
}),
(98,24,o),
(129,-7,o),
(176,-7,cs),
(192,-7,o),
(220,0,o),
(245,29,c),
(212,65,o),
(207,114,o),
(207,166,cs),
(207,215,o),
(212,277,o),
(221,343,c),
(247,350,o),
(276,357,o),
(306,367,c),
(361,256,o),
(433,101,o),
(463,57,cs),
(502,-2,o),
(532,-10,o),
(558,-10,cs,{
name = hr02;
}),
(578,-10,o),
(627,3,o),
(637,74,c),
(529,91,o),
(476,240,o),
(394,401,c),
(519,458,o),
(638,550,o),
(638,692,cs)
);
},
{
closed = 1;
nodes = (
(311,826,o),
(335,828,o),
(358,828,cs),
(456,828,o),
(533,786,o),
(533,672,cs),
(533,517,o),
(377,442,o),
(231,412,c),
(255,568,o),
(286,734,o),
(287,822,c)
);
},
{
closed = 1;
nodes = (
(332,-326,o),
(422,-235,o),
(422,-136,cs),
(422,-90,o),
(399,-67,o),
(352,-67,cs),
(327,-67,o),
(302,-75,o),
(275,-91,c),
(296,-111,o),
(307,-140,o),
(307,-170,cs),
(307,-228,o),
(267,-273,o),
(226,-281,c),
(228,-310,o),
(243,-326,o),
(271,-326,cs,{
name = hr00;
})
);
}
);
};
layerId = master01;
shapes = (
{
ref = R;
},
{
pos = (163,0);
ref = commaaccentcomb;
}
);
width = 654;
}
);
unicode = 342;
},
{
glyphname = S;
lastChange = "2022-03-30 08:38:45 +0000";
layers = (
{
anchors = (
{
name = bottom;
pos = (249,0);
},
{
name = top;
pos = (362,889);
}
);
background = {
shapes = (
{
closed = 1;
nodes = (
(402,815,o),
(465,756,o),
(490,695,c),
(508,711,o),
(535,743,o),
(535,780,cs),
(535,855,o),
(453,889,o),
(365,889,cs),
(207,889,o),
(94,805,o),
(94,654,cs),
(94,559,o),
(146,501,o),
(213,447,cs),
(364,325,o),
(434,282,o),
(434,180,cs),
(434,86,o),
(355,49,o),
(288,49,cs),
(187,49,o),
(113,105,o),
(83,227,c),
(56,196,o),
(32,166,o),
(32,123,cs),
(32,27,o),
(151,-17,o),
(262,-17,cs),
(421,-17,o),
(533,84,o),
(533,211,cs),
(533,317,o),
(487,369,o),
(416,430,cs),
(230,588,o),
(187,590,o),
(187,684,cs),
(187,770,o),
(247,815,o),
(315,815,cs,{
name = hr00;
})
);
}
);
};
layerId = master01;
shapes = (
{
closed = 1;
nodes = (
(421,-17,o),
(533,84,o),
(533,211,cs),
(533,317,o),
(487,369,o),
(416,430,cs),
(230,588,o),
(187,590,o),
(187,684,cs),
(187,770,o),
(247,815,o),
(315,815,cs,{
name = hr00;
}),
(402,815,o),
(465,756,o),
(490,695,c),
(508,711,o),
(535,743,o),
(535,780,cs),
(535,855,o),
(453,889,o),
(365,889,cs),
(207,889,o),
(94,805,o),
(94,654,cs),
(94,559,o),
(146,501,o),
(213,447,cs),
(364,325,o),
(434,282,o),
(434,180,cs),
(434,86,o),
(355,49,o),
(288,49,cs),
(187,49,o),
(113,105,o),
(83,227,c),
(56,196,o),
(32,166,o),
(32,123,cs),
(32,27,o),
(151,-17,o),
(262,-17,cs)
);
}
);
width = 563;
}
);
unicode = 83;
},
{
glyphname = Sacute;
lastChange = "2022-03-30 08:15:25 +0000";
layers = (
{
background = {
shapes = (
{
closed = 1;
nodes = (
(402,815,o),
(465,756,o),
(490,695,c),
(508,711,o),
(535,743,o),
(535,780,cs),
(535,855,o),
(453,889,o),
(365,889,cs),
(207,889,o),
(94,805,o),
(94,654,cs),
(94,559,o),
(146,501,o),
(213,447,cs),
(364,325,o),
(434,282,o),
(434,180,cs),
(434,86,o),
(355,49,o),
(288,49,cs),
(187,49,o),
(113,105,o),
(83,227,c),
(56,196,o),
(32,166,o),
(32,123,cs),
(32,27,o),
(151,-17,o),
(262,-17,cs),
(421,-17,o),
(533,84,o),
(533,211,cs),
(533,317,o),
(487,369,o),
(416,430,cs),
(230,588,o),
(187,590,o),
(187,684,cs),
(187,770,o),
(247,815,o),
(315,815,cs,{
name = hr00;
})
);
},
{
closed = 1;
nodes = (
(488,1042,o),
(494,1048,o),
(494,1061,cs),
(494,1073,o),
(481,1089,o),
(437,1089,cs),
(424,1089,o),
(409,1088,o),
(390,1084,c),
(373,1053,o),
(339,1021,o),
(230,939,c),
(239,921,o),
(249,911,o),
(257,911,cs),
(277,911,o),
(385,969,o),
(457,1020,cs,{
name = hr00;
})
);
}
);
};
layerId = master01;
shapes = (
{
ref = S;
},
{
pos = (113,0);
ref = acutecomb.case;
}
);
width = 563;
}
);
unicode = 346;
},
{
glyphname = Scaron;
lastChange = "2022-03-30 08:27:26 +0000";
layers = (
{
background = {
shapes = (
{
closed = 1;
nodes = (
(402,815,o),
(465,756,o),
(490,695,c),
(508,711,o),
(535,743,o),
(535,780,cs),
(535,855,o),
(453,889,o),
(365,889,cs),
(207,889,o),
(94,805,o),
(94,654,cs),
(94,559,o),
(146,501,o),
(213,447,cs),
(364,325,o),
(434,282,o),
(434,180,cs),
(434,86,o),
(355,49,o),
(288,49,cs),
(187,49,o),
(113,105,o),
(83,227,c),
(56,196,o),
(32,166,o),
(32,123,cs),
(32,27,o),
(151,-17,o),
(262,-17,cs),
(421,-17,o),
(533,84,o),
(533,211,cs),
(533,317,o),
(487,369,o),
(416,430,cs),
(230,588,o),
(187,590,o),
(187,684,cs),
(187,770,o),
(247,815,o),
(315,815,cs)
);
},
{
closed = 1;
nodes = (
(202,1089,o),
(192,1079,o),
(182,1061,c),
(245,999,o),
(282,935,o),
(292,922,c),
(303,914,o),
(323,911,o),
(343,911,cs),
(359,911,o),
(376,913,o),
(386,916,c),
(403,947,o),
(422,979,o),
(531,1061,c),
(522,1079,o),
(512,1089,o),
(504,1089,cs),
(487,1089,o),
(411,1043,o),
(345,999,c),
(276,1054,o),
(229,1089,o),
(209,1089,cs)
);
},
{
closed = 1;
nodes = (
(402,815,o),
(465,756,o),
(490,695,c),
(508,711,o),
(535,743,o),
(535,780,cs),
(535,855,o),
(453,889,o),
(365,889,cs),
(207,889,o),
(94,805,o),
(94,654,cs),
(94,559,o),
(146,501,o),
(213,447,cs),
(364,325,o),
(434,282,o),
(434,180,cs),
(434,86,o),
(355,49,o),
(288,49,cs),
(187,49,o),
(113,105,o),
(83,227,c),
(56,196,o),
(32,166,o),
(32,123,cs),
(32,27,o),
(151,-17,o),
(262,-17,cs),
(421,-17,o),
(533,84,o),
(533,211,cs),
(533,317,o),
(487,369,o),
(416,430,cs),
(230,588,o),
(187,590,o),
(187,684,cs),
(187,770,o),
(247,815,o),
(315,815,cs,{
name = hr00;
})
);
},
{
closed = 1;
nodes = (
(202,1089,o),
(192,1079,o),
(182,1061,c),
(245,999,o),
(282,935,o),
(292,922,c),
(303,914,o),
(323,911,o),
(343,911,cs),
(359,911,o),
(376,913,o),
(386,916,c),
(403,947,o),
(422,979,o),
(531,1061,c),
(522,1079,o),
(512,1089,o),
(504,1089,cs),
(487,1089,o),
(411,1043,o),
(345,999,c),
(276,1054,o),
(229,1089,o),
(209,1089,cs,{
name = hr00;
})
);
}
);
};
layerId = master01;
shapes = (
{
ref = S;
},
{
pos = (171,0);
ref = caroncomb.case;
}
);
width = 563;
}
);
unicode = 352;
},
{
glyphname = Scedilla;
lastChange = "2022-03-30 08:38:45 +0000";
layers = (
{
background = {
shapes = (
{
closed = 1;
nodes = (
(402,815,o),
(465,756,o),
(490,695,c),
(508,711,o),
(535,743,o),
(535,780,cs),
(535,855,o),
(453,889,o),
(365,889,cs),
(207,889,o),
(94,805,o),
(94,654,cs),
(94,559,o),
(146,501,o),
(213,447,cs),
(364,325,o),
(434,282,o),
(434,180,cs),
(434,86,o),
(355,49,o),
(288,49,cs),
(187,49,o),
(113,105,o),
(83,227,c),
(56,196,o),
(32,166,o),
(32,123,cs),
(32,27,o),
(151,-17,o),
(262,-17,cs),
(421,-17,o),
(533,84,o),
(533,211,cs),
(533,317,o),
(487,369,o),
(416,430,cs),
(230,588,o),
(187,590,o),
(187,684,cs),
(187,770,o),
(247,815,o),
(315,815,cs,{
name = hr00;
})
);
},
{
closed = 1;
nodes = (
(219,-6,o),
(184,-94,o),
(184,-97,cs),
(184,-101,o),
(186,-103,o),
(197,-105,cs),
(249,-113,ls),
(276,-117,o),
(289,-134,o),
(289,-158,cs),
(289,-189,o),
(268,-223,o),
(230,-223,cs),
(204,-223,o),
(184,-201,o),
(182,-172,c),
(143,-180,o),
(131,-199,o),
(131,-216,cs),
(131,-244,o),
(165,-272,o),
(219,-272,cs),
(330,-272,o),
(366,-202,o),
(366,-152,cs),
(366,-102,o),
(334,-79,o),
(247,-69,c),
(285,34,l),
(236,34,l,{
name = hr00;
})
);
}
);
};
layerId = master01;
shapes = (
{
ref = S;
},
{
pos = (45,0);
ref = cedillacomb;
}
);
width = 563;
}
);
unicode = 350;
},
{
glyphname = Scircumflex;
lastChange = "2022-03-30 08:16:42 +0000";
layers = (
{
background = {
shapes = (
{
closed = 1;
nodes = (
(402,815,o),
(465,756,o),
(490,695,c),
(508,711,o),
(535,743,o),
(535,780,cs),
(535,855,o),
(453,889,o),
(365,889,cs),
(207,889,o),
(94,805,o),
(94,654,cs),
(94,559,o),
(146,501,o),
(213,447,cs),
(364,325,o),
(434,282,o),
(434,180,cs),
(434,86,o),
(355,49,o),
(288,49,cs),
(187,49,o),
(113,105,o),
(83,227,c),
(56,196,o),
(32,166,o),
(32,123,cs),
(32,27,o),
(151,-17,o),
(262,-17,cs),
(421,-17,o),
(533,84,o),
(533,211,cs),
(533,317,o),
(487,369,o),
(416,430,cs),
(230,588,o),
(187,590,o),
(187,684,cs),
(187,770,o),
(247,815,o),
(315,815,cs,{
name = hr00;
})
);
},
{
closed = 1;
nodes = (
(510,911,o),
(520,921,o),
(529,939,c),
(466,1001,o),
(429,1065,o),
(420,1078,c),
(409,1086,o),
(389,1089,o),
(369,1089,cs),
(352,1089,o),
(336,1087,o),
(326,1084,c),
(309,1053,o),
(289,1021,o),
(180,939,c),
(190,921,o),
(200,911,o),
(207,911,cs),
(224,911,o),
(301,957,o),
(366,1002,c),
(436,946,o),
(483,911,o),
(502,911,cs,{
name = hr00;
})
);
}
);
};
layerId = master01;
shapes = (
{
ref = S;
},
{
pos = (139,0);
ref = circumflexcomb.case;
}
);
width = 563;
}
);
unicode = 348;
},
{
glyphname = Scommaaccent;
lastChange = "2022-03-30 10:56:47 +0000";
layers = (
{
background = {
shapes = (
{
closed = 1;
nodes = (
(402,815,o),
(465,756,o),
(490,695,c),
(508,711,o),
(535,743,o),
(535,780,cs),
(535,855,o),
(453,889,o),
(365,889,cs),
(207,889,o),
(94,805,o),
(94,654,cs),
(94,559,o),
(146,501,o),
(213,447,cs),
(364,325,o),
(434,282,o),
(434,180,cs),
(434,86,o),
(355,49,o),
(288,49,cs),
(187,49,o),
(113,105,o),
(83,227,c),
(56,196,o),
(32,166,o),
(32,123,cs),
(32,27,o),
(151,-17,o),
(262,-17,cs),
(421,-17,o),
(533,84,o),
(533,211,cs),
(533,317,o),
(487,369,o),
(416,430,cs),
(230,588,o),
(187,590,o),
(187,684,cs),
(187,770,o),
(247,815,o),
(315,815,cs,{
name = hr00;
})
);
},
{
closed = 1;
nodes = (
(246,-326,o),
(336,-235,o),
(336,-136,cs),
(336,-90,o),
(313,-67,o),
(266,-67,cs),
(241,-67,o),
(216,-75,o),
(189,-91,c),
(210,-111,o),
(221,-140,o),
(221,-170,cs),
(221,-228,o),
(181,-273,o),
(140,-281,c),
(142,-310,o),
(157,-326,o),
(185,-326,cs,{
name = hr00;
})
);
}
);
};
layerId = master01;
shapes = (
{
ref = S;
},
{
pos = (64,0);
ref = commaaccentcomb;
}
);
width = 563;
}
);
unicode = 536;
},
{
glyphname = T;
lastChange = "2022-03-30 08:50:39 +0000";
layers = (
{
anchors = (
{
name = bottom;
pos = (228,0);
},
{
name = center;
pos = (269,445);
},
{
name = top;
pos = (362,889);
}
);
background = {
shapes = (
{
closed = 1;
nodes = (
(82,869,o),
(49,848,o),
(43,757,c),
(109,780,o),
(160,788,o),
(270,789,c),
(271,772,o),
(271,754,o),
(271,741,cs),
(271,573,o),
(198,246,o),
(198,125,cs,{
name = hr01;
}),
(198,24,o),
(229,-7,o),
(275,-7,cs),
(292,-7,o),
(320,0,o),
(345,29,c),
(312,65,o),
(306,114,o),
(306,166,cs),
(306,342,o),
(381,644,o),
(385,788,c,{
name = hr02;
}),
(447,785,o),
(512,776,o),
(540,776,cs),
(599,776,o),
(631,793,o),
(637,884,c,{
name = hr03;
}),
(611,868,o),
(564,865,o),
(513,865,cs,{
name = hr04;
}),
(466,865,o),
(171,869,o),
(141,869,cs)
);
}
);
};
layerId = master01;
shapes = (
{
closed = 1;
nodes = (
(292,-7,o),
(320,0,o),
(345,29,c),
(312,65,o),
(306,114,o),
(306,166,cs),
(306,342,o),
(381,644,o),
(385,788,c,{
name = hr02;
}),
(447,785,o),
(512,776,o),
(540,776,cs),
(599,776,o),
(631,793,o),
(637,884,c,{
name = hr03;
}),
(611,868,o),
(564,865,o),
(513,865,cs,{
name = hr04;
}),
(466,865,o),
(171,869,o),
(141,869,cs),
(82,869,o),
(49,848,o),
(43,757,c),
(109,780,o),
(160,788,o),
(270,789,c),
(271,772,o),
(271,754,o),
(271,741,cs),
(271,573,o),
(198,246,o),
(198,125,cs,{
name = hr01;
}),
(198,24,o),
(229,-7,o),
(275,-7,cs)
);
}
);
width = 537;
}
);
unicode = 84;
},
{
glyphname = Tbar;
lastChange = "2022-03-30 08:38:58 +0000";
layers = (
{
background = {
shapes = (
{
closed = 1;
nodes = (
(82,869,o),
(49,848,o),
(43,757,c),
(109,780,o),
(160,788,o),
(270,789,c),
(271,772,o),
(271,754,o),
(271,741,cs),
(271,573,o),
(198,246,o),
(198,125,cs,{
name = hr01;
}),
(198,24,o),
(229,-7,o),
(275,-7,cs),
(292,-7,o),
(320,0,o),
(345,29,c),
(312,65,o),
(306,114,o),
(306,166,cs),
(306,342,o),
(381,644,o),
(385,788,c,{
name = hr02;
}),
(447,785,o),
(512,776,o),
(540,776,cs),
(599,776,o),
(631,793,o),
(637,884,c,{
name = hr03;
}),
(611,868,o),
(564,865,o),
(513,865,cs,{
name = hr04;
}),
(466,865,o),
(171,869,o),
(141,869,cs)
);
},
{
closed = 1;
nodes = (
(49,437,o),
(60,418,o),
(72,402,c),
(97,415,o),
(154,420,o),
(184,420,cs,{
name = hr01;
}),
(216,420,o),
(369,417,o),
(406,417,cs),
(500,417,o),
(534,438,o),
(534,468,cs),
(534,484,o),
(530,499,o),
(516,514,c),
(488,500,o),
(398,493,o),
(362,493,cs),
(314,493,o),
(159,504,o),
(116,504,cs),
(78,504,o),
(49,490,o),
(49,463,cs)
);
}
);
};
layerId = master01;
shapes = (
{
alignment = -1;
ref = T;
},
{
closed = 1;
nodes = (
(97,415,o),
(154,420,o),
(184,420,cs,{
name = hr01;
}),
(216,420,o),
(369,417,o),
(406,417,cs),
(500,417,o),
(534,438,o),
(534,468,cs),
(534,484,o),
(530,499,o),
(516,514,c),
(488,500,o),
(398,493,o),
(362,493,cs),
(314,493,o),
(159,504,o),
(116,504,cs),
(78,504,o),
(49,490,o),
(49,463,cs),
(49,437,o),
(60,418,o),
(72,402,c)
);
}
);
width = 537;
}
);
unicode = 358;
},
{
glyphname = Tcaron;
lastChange = "2022-03-30 08:28:19 +0000";
layers = (
{
background = {
shapes = (
{
closed = 1;
nodes = (
(82,869,o),
(49,848,o),
(43,757,c),
(109,780,o),
(160,788,o),
(270,789,c),
(271,772,o),
(271,754,o),
(271,741,cs),
(271,573,o),
(198,246,o),
(198,125,cs,{
name = hr01;
}),
(198,24,o),
(229,-7,o),
(275,-7,cs),
(292,-7,o),
(320,0,o),
(345,29,c),
(312,65,o),
(306,114,o),
(306,166,cs),
(306,342,o),
(381,644,o),
(385,788,c,{
name = hr02;
}),
(447,785,o),
(512,776,o),
(540,776,cs),
(599,776,o),
(631,793,o),
(637,884,c,{
name = hr03;
}),
(611,868,o),
(564,865,o),
(513,865,cs,{
name = hr04;
}),
(466,865,o),
(171,869,o),
(141,869,cs)
);
},
{
closed = 1;
nodes = (
(211,1118,o),
(201,1108,o),
(191,1090,c),
(254,1028,o),
(291,964,o),
(301,951,c),
(312,943,o),
(332,940,o),
(352,940,cs),
(368,940,o),
(385,942,o),
(395,945,c),
(412,976,o),
(431,1008,o),
(540,1090,c),
(531,1108,o),
(521,1118,o),
(513,1118,cs),
(496,1118,o),
(420,1072,o),
(354,1028,c),
(285,1083,o),
(238,1118,o),
(218,1118,cs,{
name = hr00;
})
);
}
);
};
layerId = master01;
shapes = (
{
ref = T;
},
{
pos = (171,0);
ref = caroncomb.case;
}
);
width = 537;
}
);
unicode = 356;
},
{
glyphname = Tcedilla;
lastChange = "2022-03-30 08:50:39 +0000";
layers = (
{
background = {
shapes = (
{
closed = 1;
nodes = (
(82,869,o),
(49,848,o),
(43,757,c),
(109,780,o),
(160,788,o),
(270,789,c),
(271,772,o),
(271,754,o),
(271,741,cs),
(271,573,o),
(198,246,o),
(198,125,cs,{
name = hr01;
}),
(198,24,o),
(229,-7,o),
(275,-7,cs),
(292,-7,o),
(320,0,o),
(345,29,c),
(312,65,o),
(306,114,o),
(306,166,cs),
(306,342,o),
(381,644,o),
(385,788,c,{
name = hr02;
}),
(447,785,o),
(512,776,o),
(540,776,cs),
(599,776,o),
(631,793,o),
(637,884,c,{
name = hr03;
}),
(611,868,o),
(564,865,o),
(513,865,cs,{
name = hr04;
}),
(466,865,o),
(171,869,o),
(141,869,cs)
);
},
{
closed = 1;
nodes = (
(197,-6,o),
(162,-94,o),
(162,-97,cs),
(162,-101,o),
(164,-103,o),
(175,-105,cs),
(227,-113,ls),
(254,-117,o),
(267,-134,o),
(267,-158,cs),
(267,-189,o),
(246,-223,o),
(208,-223,cs),
(182,-223,o),
(162,-201,o),
(160,-172,c),
(121,-180,o),
(109,-199,o),
(109,-216,cs),
(109,-244,o),
(143,-272,o),
(197,-272,cs),
(308,-272,o),
(344,-202,o),
(344,-152,cs),
(344,-102,o),
(312,-79,o),
(225,-69,c),
(263,34,l),
(214,34,l,{
name = hr00;
})
);
}
);
};
layerId = master01;
shapes = (
{
ref = T;
},
{
pos = (24,0);
ref = cedillacomb;
}
);
width = 537;
}
);
unicode = 354;
},
{
glyphname = Tcommaaccent;
lastChange = "2022-03-30 10:56:47 +0000";
layers = (
{
background = {
shapes = (
{
closed = 1;
nodes = (
(82,869,o),
(49,848,o),
(43,757,c),
(109,780,o),
(160,788,o),
(270,789,c),
(271,772,o),
(271,754,o),
(271,741,cs),
(271,573,o),
(198,246,o),
(198,125,cs,{
name = hr01;
}),
(198,24,o),
(229,-7,o),
(275,-7,cs),
(292,-7,o),
(320,0,o),
(345,29,c),
(312,65,o),
(306,114,o),
(306,166,cs),
(306,342,o),
(381,644,o),
(385,788,c,{
name = hr02;
}),
(447,785,o),
(512,776,o),
(540,776,cs),
(599,776,o),
(631,793,o),
(637,884,c,{
name = hr03;
}),
(611,868,o),
(564,865,o),
(513,865,cs,{
name = hr04;
}),
(466,865,o),
(171,869,o),
(141,869,cs)
);
},
{
closed = 1;
nodes = (
(226,-326,o),
(316,-235,o),
(316,-136,cs),
(316,-90,o),
(293,-67,o),
(246,-67,cs),
(221,-67,o),
(196,-75,o),
(169,-91,c),
(190,-111,o),
(201,-140,o),
(201,-170,cs),
(201,-228,o),
(161,-273,o),
(120,-281,c),
(122,-310,o),
(137,-326,o),
(165,-326,cs,{
name = hr00;
})
);
}
);
};
layerId = master01;
shapes = (
{
ref = T;
},
{
pos = (43,0);
ref = commaaccentcomb;
}
);
width = 537;
}
);
unicode = 538;
},
{
glyphname = U;
lastChange = "2022-03-30 08:48:53 +0000";
layers = (
{
anchors = (
{
name = bottom;
pos = (371,0);
},
{
name = ogonek;
pos = (668,10);
},
{
name = top;
pos = (447,889);
},
{
name = topright;
pos = (722,889);
}
);
background = {
shapes = (
{
closed = 1;
nodes = (
(214,80,o),
(202,112,o),
(202,158,cs),
(202,344,o),
(280,661,o),
(280,783,cs,{
name = hr01;
}),
(280,862,o),
(256,889,o),
(211,889,cs),
(191,889,o),
(159,879,o),
(144,866,c),
(164,826,o),
(165,779,o),
(165,731,cs),
(165,563,o),
(98,273,o),
(98,153,cs,{
name = hr02;
}),
(98,68,o),
(122,-16,o),
(223,-16,cs),
(301,-16,o),
(431,106,o),
(519,243,c),
(512,196,o),
(508,154,o),
(508,125,cs),
(508,24,o),
(539,-7,o),
(586,-7,cs,{
name = hr03;
}),
(603,-7,o),
(630,0,o),
(655,29,c),
(623,65,o),
(617,114,o),
(617,166,cs),
(617,352,o),
(694,661,o),
(694,783,cs,{
name = hr04;
}),
(694,862,o),
(670,889,o),
(625,889,cs),
(606,889,o),
(573,879,o),
(559,866,c),
(579,826,o),
(580,779,o),
(580,731,cs),
(580,636,o),
(556,495,o),
(537,367,c),
(458,228,o),
(315,80,o),
(252,80,cs)
);
}
);
};
layerId = master01;
shapes = (
{
closed = 1;
nodes = (
(301,-16,o),
(431,106,o),
(519,243,c),
(512,196,o),
(508,154,o),
(508,125,cs),
(508,24,o),
(539,-7,o),
(586,-7,cs,{
name = hr03;
}),
(603,-7,o),
(630,0,o),
(655,29,c),
(623,65,o),
(617,114,o),
(617,166,cs),
(617,352,o),
(694,661,o),
(694,783,cs,{
name = hr04;
}),
(694,862,o),
(670,889,o),
(625,889,cs),
(606,889,o),
(573,879,o),
(559,866,c),
(579,826,o),
(580,779,o),
(580,731,cs),
(580,636,o),
(556,495,o),
(537,367,c),
(458,228,o),
(315,80,o),
(252,80,cs),
(214,80,o),
(202,112,o),
(202,158,cs),
(202,344,o),
(280,661,o),
(280,783,cs,{
name = hr01;
}),
(280,862,o),
(256,889,o),
(211,889,cs),
(191,889,o),
(159,879,o),
(144,866,c),
(164,826,o),
(165,779,o),
(165,731,cs),
(165,563,o),
(98,273,o),
(98,153,cs,{
name = hr02;
}),
(98,68,o),
(122,-16,o),
(223,-16,cs)
);
}
);
width = 742;
}
);
unicode = 85;
},
{
glyphname = Uacute;
lastChange = "2022-03-30 08:48:57 +0000";
layers = (
{
background = {
shapes = (
{
closed = 1;
nodes = (
(214,80,o),
(202,112,o),
(202,158,cs),
(202,344,o),
(280,661,o),
(280,783,cs),
(280,862,o),
(256,889,o),
(211,889,cs),
(191,889,o),
(159,879,o),
(144,866,c),
(164,826,o),
(165,779,o),
(165,731,cs),
(165,563,o),
(98,273,o),
(98,153,cs),
(98,68,o),
(122,-16,o),
(223,-16,cs),
(301,-16,o),
(431,106,o),
(519,243,c),
(512,196,o),
(508,154,o),
(508,125,cs),
(508,24,o),
(539,-7,o),
(586,-7,cs),
(603,-7,o),
(630,0,o),
(655,29,c),
(623,65,o),
(617,114,o),
(617,166,cs),
(617,352,o),
(694,661,o),
(694,783,cs),
(694,862,o),
(670,889,o),
(625,889,cs),
(606,889,o),
(573,879,o),
(559,866,c),
(579,826,o),
(580,779,o),
(580,731,cs),
(580,636,o),
(556,495,o),
(537,367,c),
(458,228,o),
(315,80,o),
(252,80,cs)
);
},
{
closed = 1;
nodes = (
(593,1042,o),
(599,1048,o),
(599,1061,cs),
(599,1073,o),
(586,1089,o),
(542,1089,cs),
(529,1089,o),
(514,1088,o),
(495,1084,c),
(478,1053,o),
(444,1021,o),
(335,939,c),
(344,921,o),
(354,911,o),
(362,911,cs),
(382,911,o),
(490,969,o),
(562,1020,cs)
);
},
{
closed = 1;
nodes = (
(214,80,o),
(202,112,o),
(202,158,cs),
(202,344,o),
(280,661,o),
(280,783,cs,{
name = hr01;
}),
(280,862,o),
(256,889,o),
(211,889,cs),
(191,889,o),
(159,879,o),
(144,866,c),
(164,826,o),
(165,779,o),
(165,731,cs),
(165,563,o),
(98,273,o),
(98,153,cs,{
name = hr02;
}),
(98,68,o),
(122,-16,o),
(223,-16,cs),
(301,-16,o),
(431,106,o),
(519,243,c),
(512,196,o),
(508,154,o),
(508,125,cs),
(508,24,o),
(539,-7,o),
(586,-7,cs,{
name = hr03;
}),
(603,-7,o),
(630,0,o),
(655,29,c),
(623,65,o),
(617,114,o),
(617,166,cs),
(617,352,o),
(694,661,o),
(694,783,cs,{
name = hr04;
}),
(694,862,o),
(670,889,o),
(625,889,cs),
(606,889,o),
(573,879,o),
(559,866,c),
(579,826,o),
(580,779,o),
(580,731,cs),
(580,636,o),
(556,495,o),
(537,367,c),
(458,228,o),
(315,80,o),
(252,80,cs)
);
},
{
closed = 1;
nodes = (
(593,1042,o),
(599,1048,o),
(599,1061,cs),
(599,1073,o),
(586,1089,o),
(542,1089,cs),
(529,1089,o),
(514,1088,o),
(495,1084,c),
(478,1053,o),
(444,1021,o),
(335,939,c),
(344,921,o),
(354,911,o),
(362,911,cs),
(382,911,o),
(490,969,o),
(562,1020,cs,{
name = hr00;
})
);
}
);
};
layerId = master01;
shapes = (
{
ref = U;
},
{
pos = (198,0);
ref = acutecomb.case;
}
);
width = 742;
}
);
unicode = 218;
},
{
glyphname = Ubreve;
lastChange = "2022-03-30 08:48:57 +0000";
layers = (
{
background = {
shapes = (
{
closed = 1;
nodes = (
(214,80,o),
(202,112,o),
(202,158,cs),
(202,344,o),
(280,661,o),
(280,783,cs,{
name = hr01;
}),
(280,862,o),
(256,889,o),
(211,889,cs),
(191,889,o),
(159,879,o),
(144,866,c),
(164,826,o),
(165,779,o),
(165,731,cs),
(165,563,o),
(98,273,o),
(98,153,cs,{
name = hr02;
}),
(98,68,o),
(122,-16,o),
(223,-16,cs),
(301,-16,o),
(431,106,o),
(519,243,c),
(512,196,o),
(508,154,o),
(508,125,cs),
(508,24,o),
(539,-7,o),
(586,-7,cs,{
name = hr03;
}),
(603,-7,o),
(630,0,o),
(655,29,c),
(623,65,o),
(617,114,o),
(617,166,cs),
(617,352,o),
(694,661,o),
(694,783,cs,{
name = hr04;
}),
(694,862,o),
(670,889,o),
(625,889,cs),
(606,889,o),
(573,879,o),
(559,866,c),
(579,826,o),
(580,779,o),
(580,731,cs),
(580,636,o),
(556,495,o),
(537,367,c),
(458,228,o),
(315,80,o),
(252,80,cs)
);
},
{
closed = 1;
nodes = (
(303,1089,o),
(284,1079,o),
(274,1061,c),
(315,969,o),
(348,911,o),
(425,911,cs),
(502,911,o),
(540,961,o),
(604,1061,c),
(594,1079,o),
(574,1089,o),
(567,1089,cs),
(550,1089,o),
(499,987,o),
(427,987,cs),
(360,987,o),
(330,1089,o),
(311,1089,cs,{
name = hr00;
})
);
}
);
};
layerId = master01;
shapes = (
{
ref = U;
},
{
pos = (262,0);
ref = brevecomb.case;
}
);
width = 742;
}
);
unicode = 364;
},
{
glyphname = Ucircumflex;
lastChange = "2022-03-30 08:48:56 +0000";
layers = (
{
background = {
shapes = (
{
closed = 1;
nodes = (
(214,80,o),
(202,112,o),
(202,158,cs),
(202,344,o),
(280,661,o),
(280,783,cs),
(280,862,o),
(256,889,o),
(211,889,cs),
(191,889,o),
(159,879,o),
(144,866,c),
(164,826,o),
(165,779,o),
(165,731,cs),
(165,563,o),
(98,273,o),
(98,153,cs),
(98,68,o),
(122,-16,o),
(223,-16,cs),
(301,-16,o),
(431,106,o),
(519,243,c),
(512,196,o),
(508,154,o),
(508,125,cs),
(508,24,o),
(539,-7,o),
(586,-7,cs),
(603,-7,o),
(630,0,o),
(655,29,c),
(623,65,o),
(617,114,o),
(617,166,cs),
(617,352,o),
(694,661,o),
(694,783,cs),
(694,862,o),
(670,889,o),
(625,889,cs),
(606,889,o),
(573,879,o),
(559,866,c),
(579,826,o),
(580,779,o),
(580,731,cs),
(580,636,o),
(556,495,o),
(537,367,c),
(458,228,o),
(315,80,o),
(252,80,cs)
);
},
{
closed = 1;
nodes = (
(586,911,o),
(596,921,o),
(605,939,c),
(542,1001,o),
(505,1065,o),
(496,1078,c),
(485,1086,o),
(465,1089,o),
(445,1089,cs),
(428,1089,o),
(412,1087,o),
(402,1084,c),
(385,1053,o),
(365,1021,o),
(256,939,c),
(266,921,o),
(276,911,o),
(283,911,cs),
(300,911,o),
(377,957,o),
(442,1002,c),
(512,946,o),
(559,911,o),
(578,911,cs)
);
},
{
closed = 1;
nodes = (
(214,80,o),
(202,112,o),
(202,158,cs),
(202,344,o),
(280,661,o),
(280,783,cs,{
name = hr01;
}),
(280,862,o),
(256,889,o),
(211,889,cs),
(191,889,o),
(159,879,o),
(144,866,c),
(164,826,o),
(165,779,o),
(165,731,cs),
(165,563,o),
(98,273,o),
(98,153,cs,{
name = hr02;
}),
(98,68,o),
(122,-16,o),
(223,-16,cs),
(301,-16,o),
(431,106,o),
(519,243,c),
(512,196,o),
(508,154,o),
(508,125,cs),
(508,24,o),
(539,-7,o),
(586,-7,cs,{
name = hr03;
}),
(603,-7,o),
(630,0,o),
(655,29,c),
(623,65,o),
(617,114,o),
(617,166,cs),
(617,352,o),
(694,661,o),
(694,783,cs,{
name = hr04;
}),
(694,862,o),
(670,889,o),
(625,889,cs),
(606,889,o),
(573,879,o),
(559,866,c),
(579,826,o),
(580,779,o),
(580,731,cs),
(580,636,o),
(556,495,o),
(537,367,c),
(458,228,o),
(315,80,o),
(252,80,cs)
);
},
{
closed = 1;
nodes = (
(587,911,o),
(597,921,o),
(606,939,c),
(543,1001,o),
(506,1065,o),
(497,1078,c),
(486,1086,o),
(466,1089,o),
(446,1089,cs),
(429,1089,o),
(413,1087,o),
(403,1084,c),
(386,1053,o),
(366,1021,o),
(257,939,c),
(267,921,o),
(277,911,o),
(284,911,cs),
(301,911,o),
(378,957,o),
(443,1002,c),
(513,946,o),
(560,911,o),
(579,911,cs,{
name = hr00;
})
);
}
);
};
layerId = master01;
shapes = (
{
ref = U;
},
{
pos = (224,0);
ref = circumflexcomb.case;
}
);
width = 742;
}
);
unicode = 219;
},
{
glyphname = Udieresis;
lastChange = "2022-03-30 08:48:56 +0000";
layers = (
{
background = {
shapes = (
{
closed = 1;
nodes = (
(214,80,o),
(202,112,o),
(202,158,cs),
(202,344,o),
(280,661,o),
(280,783,cs),
(280,862,o),
(256,889,o),
(211,889,cs),
(191,889,o),
(159,879,o),
(144,866,c),
(164,826,o),
(165,779,o),
(165,731,cs),
(165,563,o),
(98,273,o),
(98,153,cs),
(98,68,o),
(122,-16,o),
(223,-16,cs),
(301,-16,o),
(431,106,o),
(519,243,c),
(512,196,o),
(508,154,o),
(508,125,cs),
(508,24,o),
(539,-7,o),
(586,-7,cs),
(603,-7,o),
(630,0,o),
(655,29,c),
(623,65,o),
(617,114,o),
(617,166,cs),
(617,352,o),
(694,661,o),
(694,783,cs),
(694,862,o),
(670,889,o),
(625,889,cs),
(606,889,o),
(573,879,o),
(559,866,c),
(579,826,o),
(580,779,o),
(580,731,cs),
(580,636,o),
(556,495,o),
(537,367,c),
(458,228,o),
(315,80,o),
(252,80,cs)
);
},
{
closed = 1;
nodes = (
(389,1043,o),
(362,1055,o),
(331,1055,cs),
(309,1055,o),
(286,1047,o),
(262,1032,c),
(257,1008,o),
(255,989,o),
(255,975,cs),
(255,943,o),
(269,928,o),
(309,928,cs),
(330,928,o),
(354,936,o),
(378,951,c),
(385,977,o),
(389,997,o),
(389,1012,cs)
);
},
{
closed = 1;
nodes = (
(623,1043,o),
(596,1055,o),
(565,1055,cs),
(543,1055,o),
(521,1047,o),
(496,1032,c),
(492,1008,o),
(489,989,o),
(489,975,cs),
(489,943,o),
(503,928,o),
(543,928,cs),
(564,928,o),
(588,936,o),
(612,951,c),
(620,977,o),
(623,997,o),
(623,1012,cs)
);
},
{
closed = 1;
nodes = (
(214,80,o),
(202,112,o),
(202,158,cs),
(202,344,o),
(280,661,o),
(280,783,cs,{
name = hr01;
}),
(280,862,o),
(256,889,o),
(211,889,cs),
(191,889,o),
(159,879,o),
(144,866,c),
(164,826,o),
(165,779,o),
(165,731,cs),
(165,563,o),
(98,273,o),
(98,153,cs,{
name = hr02;
}),
(98,68,o),
(122,-16,o),
(223,-16,cs),
(301,-16,o),
(431,106,o),
(519,243,c),
(512,196,o),
(508,154,o),
(508,125,cs),
(508,24,o),
(539,-7,o),
(586,-7,cs,{
name = hr03;
}),
(603,-7,o),
(630,0,o),
(655,29,c),
(623,65,o),
(617,114,o),
(617,166,cs),
(617,352,o),
(694,661,o),
(694,783,cs,{
name = hr04;
}),
(694,862,o),
(670,889,o),
(625,889,cs),
(606,889,o),
(573,879,o),
(559,866,c),
(579,826,o),
(580,779,o),
(580,731,cs),
(580,636,o),
(556,495,o),
(537,367,c),
(458,228,o),
(315,80,o),
(252,80,cs)
);
},
{
closed = 1;
nodes = (
(389,1043,o),
(362,1055,o),
(331,1055,cs),
(309,1055,o),
(286,1047,o),
(262,1032,c),
(257,1008,o),
(255,989,o),
(255,975,cs),
(255,943,o),
(269,928,o),
(309,928,cs),
(330,928,o),
(354,936,o),
(378,951,c),
(385,977,o),
(389,997,o),
(389,1012,cs,{
name = hr00;
})
);
},
{
closed = 1;
nodes = (
(623,1043,o),
(596,1055,o),
(565,1055,cs),
(543,1055,o),
(521,1047,o),
(496,1032,c),
(492,1008,o),
(489,989,o),
(489,975,cs),
(489,943,o),
(503,928,o),
(543,928,cs),
(564,928,o),
(588,936,o),
(612,951,c),
(620,977,o),
(623,997,o),
(623,1012,cs)
);
}
);
};
layerId = master01;
shapes = (
{
ref = U;
},
{
pos = (258,0);
ref = dieresiscomb.case;
}
);
width = 742;
}
);
unicode = 220;
},
{
glyphname = Ugrave;
lastChange = "2022-03-30 08:48:55 +0000";
layers = (
{
background = {
shapes = (
{
closed = 1;
nodes = (
(214,80,o),
(202,112,o),
(202,158,cs),
(202,344,o),
(280,661,o),
(280,783,cs),
(280,862,o),
(256,889,o),
(211,889,cs),
(191,889,o),
(159,879,o),
(144,866,c),
(164,826,o),
(165,779,o),
(165,731,cs),
(165,563,o),
(98,273,o),
(98,153,cs),
(98,68,o),
(122,-16,o),
(223,-16,cs),
(301,-16,o),
(431,106,o),
(519,243,c),
(512,196,o),
(508,154,o),
(508,125,cs),
(508,24,o),
(539,-7,o),
(586,-7,cs),
(603,-7,o),
(630,0,o),
(655,29,c),
(623,65,o),
(617,114,o),
(617,166,cs),
(617,352,o),
(694,661,o),
(694,783,cs),
(694,862,o),
(670,889,o),
(625,889,cs),
(606,889,o),
(573,879,o),
(559,866,c),
(579,826,o),
(580,779,o),
(580,731,cs),
(580,636,o),
(556,495,o),
(537,367,c),
(458,228,o),
(315,80,o),
(252,80,cs)
);
},
{
closed = 1;
nodes = (
(385,969,o),
(494,911,o),
(514,911,cs),
(521,911,o),
(531,921,o),
(541,939,c),
(432,1021,o),
(397,1053,o),
(380,1084,c),
(361,1088,o),
(346,1089,o),
(333,1089,cs),
(289,1089,o),
(276,1073,o),
(276,1061,cs),
(276,1048,o),
(282,1042,o),
(313,1020,cs)
);
},
{
closed = 1;
nodes = (
(214,80,o),
(202,112,o),
(202,158,cs),
(202,344,o),
(280,661,o),
(280,783,cs,{
name = hr01;
}),
(280,862,o),
(256,889,o),
(211,889,cs),
(191,889,o),
(159,879,o),
(144,866,c),
(164,826,o),
(165,779,o),
(165,731,cs),
(165,563,o),
(98,273,o),
(98,153,cs,{
name = hr02;
}),
(98,68,o),
(122,-16,o),
(223,-16,cs),
(301,-16,o),
(431,106,o),
(519,243,c),
(512,196,o),
(508,154,o),
(508,125,cs),
(508,24,o),
(539,-7,o),
(586,-7,cs,{
name = hr03;
}),
(603,-7,o),
(630,0,o),
(655,29,c),
(623,65,o),
(617,114,o),
(617,166,cs),
(617,352,o),
(694,661,o),
(694,783,cs,{
name = hr04;
}),
(694,862,o),
(670,889,o),
(625,889,cs),
(606,889,o),
(573,879,o),
(559,866,c),
(579,826,o),
(580,779,o),
(580,731,cs),
(580,636,o),
(556,495,o),
(537,367,c),
(458,228,o),
(315,80,o),
(252,80,cs)
);
},
{
closed = 1;
nodes = (
(385,969,o),
(494,911,o),
(514,911,cs),
(521,911,o),
(531,921,o),
(541,939,c),
(432,1021,o),
(397,1053,o),
(380,1084,c),
(361,1088,o),
(346,1089,o),
(333,1089,cs),
(289,1089,o),
(276,1073,o),
(276,1061,cs),
(276,1048,o),
(282,1042,o),
(313,1020,cs,{
name = hr00;
})
);
}
);
};
layerId = master01;
shapes = (
{
ref = U;
},
{
pos = (162,0);
ref = gravecomb.case;
}
);
width = 742;
}
);
unicode = 217;
},
{
glyphname = Uhungarumlaut;
lastChange = "2022-03-30 08:48:53 +0000";
layers = (
{
background = {
shapes = (
{
closed = 1;
nodes = (
(214,80,o),
(202,112,o),
(202,158,cs),
(202,344,o),
(280,661,o),
(280,783,cs,{
name = hr01;
}),
(280,862,o),
(256,889,o),
(211,889,cs),
(191,889,o),
(159,879,o),
(144,866,c),
(164,826,o),
(165,779,o),
(165,731,cs),
(165,563,o),
(98,273,o),
(98,153,cs,{
name = hr02;
}),
(98,68,o),
(122,-16,o),
(223,-16,cs),
(301,-16,o),
(431,106,o),
(519,243,c),
(512,196,o),
(508,154,o),
(508,125,cs),
(508,24,o),
(539,-7,o),
(586,-7,cs,{
name = hr03;
}),
(603,-7,o),
(630,0,o),
(655,29,c),
(623,65,o),
(617,114,o),
(617,166,cs),
(617,352,o),
(694,661,o),
(694,783,cs,{
name = hr04;
}),
(694,862,o),
(670,889,o),
(625,889,cs),
(606,889,o),
(573,879,o),
(559,866,c),
(579,826,o),
(580,779,o),
(580,731,cs),
(580,636,o),
(556,495,o),
(537,367,c),
(458,228,o),
(315,80,o),
(252,80,cs)
);
},
{
closed = 1;
nodes = (
(499,1072,o),
(505,1077,o),
(505,1090,cs),
(505,1102,o),
(497,1118,o),
(453,1118,cs),
(440,1118,o),
(424,1117,o),
(405,1113,c),
(388,1082,o),
(369,1050,o),
(270,968,c),
(279,950,o),
(289,940,o),
(297,940,cs),
(317,940,o),
(396,997,o),
(467,1049,cs,{
name = hr00;
})
);
},
{
closed = 1;
nodes = (
(695,1072,o),
(700,1077,o),
(700,1090,cs),
(700,1102,o),
(692,1118,o),
(648,1118,cs),
(635,1118,o),
(620,1117,o),
(601,1113,c),
(584,1082,o),
(564,1050,o),
(465,968,c),
(475,950,o),
(485,940,o),
(492,940,cs),
(512,940,o),
(591,997,o),
(663,1049,cs)
);
}
);
};
layerId = master01;
shapes = (
{
ref = U;
},
{
pos = (254,0);
ref = hungarumlautcomb.case;
}
);
width = 742;
}
);
unicode = 368;
},
{
glyphname = Umacron;
lastChange = "2022-03-30 08:49:34 +0000";
layers = (
{
background = {
shapes = (
{
closed = 1;
nodes = (
(214,80,o),
(202,112,o),
(202,158,cs),
(202,344,o),
(280,661,o),
(280,783,cs,{
name = hr01;
}),
(280,862,o),
(256,889,o),
(211,889,cs),
(191,889,o),
(159,879,o),
(144,866,c),
(164,826,o),
(165,779,o),
(165,731,cs),
(165,563,o),
(98,273,o),
(98,153,cs,{
name = hr02;
}),
(98,68,o),
(122,-16,o),
(223,-16,cs),
(301,-16,o),
(431,106,o),
(519,243,c),
(512,196,o),
(508,154,o),
(508,125,cs),
(508,24,o),
(539,-7,o),
(586,-7,cs,{
name = hr03;
}),
(603,-7,o),
(630,0,o),
(655,29,c),
(623,65,o),
(617,114,o),
(617,166,cs),
(617,352,o),
(694,661,o),
(694,783,cs,{
name = hr04;
}),
(694,862,o),
(670,889,o),
(625,889,cs),
(606,889,o),
(573,879,o),
(559,866,c),
(579,826,o),
(580,779,o),
(580,731,cs),
(580,636,o),
(556,495,o),
(537,367,c),
(458,228,o),
(315,80,o),
(252,80,cs)
);
},
{
closed = 1;
nodes = (
(297,978,o),
(308,950,o),
(318,937,c),
(337,947,o),
(376,952,o),
(399,952,cs,{
name = hr01;
}),
(423,952,o),
(459,948,o),
(489,948,cs),
(559,948,o),
(583,970,o),
(583,1000,cs),
(583,1017,o),
(580,1032,o),
(569,1045,c,{
name = hr02;
}),
(549,1033,o),
(526,1026,o),
(498,1026,cs,{
name = hr03;
}),
(462,1026,o),
(387,1036,o),
(353,1036,cs),
(325,1036,o),
(297,1026,o),
(297,1000,cs)
);
}
);
};
layerId = master01;
shapes = (
{
ref = U;
},
{
pos = (240,0);
ref = macroncomb.case;
}
);
width = 742;
}
);
unicode = 362;
},
{
glyphname = Uogonek;
lastChange = "2022-03-30 08:49:39 +0000";
layers = (
{
background = {
shapes = (
{
closed = 1;
nodes = (
(214,80,o),
(202,112,o),
(202,158,cs),
(202,344,o),
(280,661,o),
(280,783,cs,{
name = hr01;
}),
(280,862,o),
(256,889,o),
(211,889,cs),
(191,889,o),
(159,879,o),
(144,866,c),
(164,826,o),
(165,779,o),
(165,731,cs),
(165,563,o),
(98,273,o),
(98,153,cs,{
name = hr02;
}),
(98,68,o),
(122,-16,o),
(223,-16,cs),
(301,-16,o),
(431,106,o),
(519,243,c),
(512,196,o),
(508,154,o),
(508,125,cs),
(508,24,o),
(539,-7,o),
(586,-7,cs,{
name = hr03;
}),
(603,-7,o),
(630,0,o),
(655,29,c),
(623,65,o),
(617,114,o),
(617,166,cs),
(617,352,o),
(694,661,o),
(694,783,cs,{
name = hr04;
}),
(694,862,o),
(670,889,o),
(625,889,cs),
(606,889,o),
(573,879,o),
(559,866,c),
(579,826,o),
(580,779,o),
(580,731,cs),
(580,636,o),
(556,495,o),
(537,367,c),
(458,228,o),
(315,80,o),
(252,80,cs)
);
},
{
closed = 1;
nodes = (
(458,1,o),
(377,-66,o),
(377,-152,cs),
(377,-208,o),
(413,-264,o),
(490,-264,cs),
(569,-264,o),
(619,-215,o),
(619,-178,cs),
(619,-150,o),
(612,-136,o),
(597,-125,c),
(586,-172,o),
(541,-200,o),
(504,-200,cs),
(477,-200,o),
(455,-180,o),
(455,-145,cs),
(455,-118,o),
(459,-52,o),
(609,-3,c),
(609,48,l,{
name = hr00;
})
);
}
);
};
layerId = master01;
shapes = (
{
ref = U;
},
{
closed = 1;
nodes = (
(458,1,o),
(377,-66,o),
(377,-152,cs),
(377,-208,o),
(413,-264,o),
(490,-264,cs),
(569,-264,o),
(619,-215,o),
(619,-178,cs),
(619,-150,o),
(612,-136,o),
(597,-125,c),
(586,-172,o),
(541,-200,o),
(504,-200,cs),
(477,-200,o),
(455,-180,o),
(455,-145,cs),
(455,-118,o),
(459,-52,o),
(609,-3,c),
(609,48,l,{
name = hr00;
})
);
}
);
width = 742;
}
);
unicode = 370;
},
{
glyphname = Uring;
lastChange = "2022-03-30 08:49:58 +0000";
layers = (
{
background = {
shapes = (
{
closed = 1;
nodes = (
(214,80,o),
(202,112,o),
(202,158,cs),
(202,344,o),
(280,661,o),
(280,783,cs,{
name = hr01;
}),
(280,862,o),
(256,889,o),
(211,889,cs),
(191,889,o),
(159,879,o),
(144,866,c),
(164,826,o),
(165,779,o),
(165,731,cs),
(165,563,o),
(98,273,o),
(98,153,cs,{
name = hr02;
}),
(98,68,o),
(122,-16,o),
(223,-16,cs),
(301,-16,o),
(431,106,o),
(519,243,c),
(512,196,o),
(508,154,o),
(508,125,cs),
(508,24,o),
(539,-7,o),
(586,-7,cs,{
name = hr03;
}),
(603,-7,o),
(630,0,o),
(655,29,c),
(623,65,o),
(617,114,o),
(617,166,cs),
(617,352,o),
(694,661,o),
(694,783,cs,{
name = hr04;
}),
(694,862,o),
(670,889,o),
(625,889,cs),
(606,889,o),
(573,879,o),
(559,866,c),
(579,826,o),
(580,779,o),
(580,731,cs),
(580,636,o),
(556,495,o),
(537,367,c),
(458,228,o),
(315,80,o),
(252,80,cs)
);
},
{
closed = 1;
nodes = (
(478,1128,o),
(493,1109,o),
(493,1071,cs),
(493,1039,o),
(482,975,o),
(441,975,cs),
(414,975,o),
(399,994,o),
(399,1032,cs),
(399,1064,o),
(410,1128,o),
(451,1128,cs,{
name = hr00;
})
);
},
{
closed = 1;
nodes = (
(399,1174,o),
(326,1122,o),
(326,1033,cs),
(326,944,o),
(407,928,o),
(430,928,cs),
(497,928,o),
(569,980,o),
(569,1069,cs),
(569,1159,o),
(488,1174,o),
(466,1174,cs)
);
}
);
};
layerId = master01;
shapes = (
{
ref = U;
},
{
pos = (305,0);
ref = ringcomb.case;
}
);
width = 742;
}
);
unicode = 366;
},
{
glyphname = Utilde;
lastChange = "2022-03-30 08:50:00 +0000";
layers = (
{
background = {
shapes = (
{
closed = 1;
nodes = (
(214,80,o),
(202,112,o),
(202,158,cs),
(202,344,o),
(280,661,o),
(280,783,cs,{
name = hr01;
}),
(280,862,o),
(256,889,o),
(211,889,cs),
(191,889,o),
(159,879,o),
(144,866,c),
(164,826,o),
(165,779,o),
(165,731,cs),
(165,563,o),
(98,273,o),
(98,153,cs,{
name = hr02;
}),
(98,68,o),
(122,-16,o),
(223,-16,cs),
(301,-16,o),
(431,106,o),
(519,243,c),
(512,196,o),
(508,154,o),
(508,125,cs),
(508,24,o),
(539,-7,o),
(586,-7,cs,{
name = hr03;
}),
(603,-7,o),
(630,0,o),
(655,29,c),
(623,65,o),
(617,114,o),
(617,166,cs),
(617,352,o),
(694,661,o),
(694,783,cs,{
name = hr04;
}),
(694,862,o),
(670,889,o),
(625,889,cs),
(606,889,o),
(573,879,o),
(559,866,c),
(579,826,o),
(580,779,o),
(580,731,cs),
(580,636,o),
(556,495,o),
(537,367,c),
(458,228,o),
(315,80,o),
(252,80,cs)
);
},
{
closed = 1;
nodes = (
(558,1027,o),
(536,1007,o),
(514,1007,cs),
(465,1007,o),
(447,1073,o),
(371,1073,cs,{
name = hr01;
}),
(315,1073,o),
(272,1013,o),
(272,958,cs),
(272,931,o),
(294,926,o),
(316,926,c),
(323,973,o),
(345,993,o),
(367,993,cs),
(416,993,o),
(434,927,o),
(510,927,cs,{
name = hr02;
}),
(566,927,o),
(609,987,o),
(609,1042,cs),
(609,1069,o),
(587,1074,o),
(565,1074,c)
);
}
);
};
layerId = master01;
shapes = (
{
ref = U;
},
{
pos = (143,0);
ref = tildecomb.case;
}
);
width = 742;
}
);
unicode = 360;
},
{
glyphname = V;
lastChange = "2022-03-30 08:26:38 +0000";
layers = (
{
anchors = (
{
name = bottom;
pos = (321,0);
},
{
name = top;
pos = (321,889);
}
);
background = {
shapes = (
{
closed = 1;
nodes = (
(164,538,o),
(163,210,o),
(201,88,cs),
(224,11,o),
(251,-7,o),
(307,-7,cs),
(336,-7,o),
(367,3,o),
(376,16,c),
(375,23,o),
(374,31,o),
(374,40,cs),
(374,216,o),
(686,695,o),
(686,838,cs),
(686,875,o),
(667,889,o),
(640,889,cs),
(623,889,o),
(591,881,o),
(572,853,c),
(581,838,o),
(584,822,o),
(584,804,cs),
(584,667,o),
(387,336,o),
(307,146,c),
(257,314,o),
(254,647,o),
(218,766,cs),
(187,867,o),
(148,889,o),
(90,889,cs),
(71,889,o),
(37,878,o),
(24,853,c),
(68,816,o),
(95,777,o),
(110,725,cs,{
name = hr00;
})
);
}
);
};
layerId = master01;
shapes = (
{
closed = 1;
nodes = (
(336,-7,o),
(367,3,o),
(376,16,c),
(375,23,o),
(374,31,o),
(374,40,cs),
(374,216,o),
(686,695,o),
(686,838,cs),
(686,875,o),
(667,889,o),
(640,889,cs),
(623,889,o),
(591,881,o),
(572,853,c),
(581,838,o),
(584,822,o),
(584,804,cs),
(584,667,o),
(387,336,o),
(307,146,c),
(257,314,o),
(254,647,o),
(218,766,cs),
(187,867,o),
(148,889,o),
(90,889,cs),
(71,889,o),
(37,878,o),
(24,853,c),
(68,816,o),
(95,777,o),
(110,725,cs,{
name = hr00;
}),
(164,538,o),
(163,210,o),
(201,88,cs),
(224,11,o),
(251,-7,o),
(307,-7,cs)
);
}
);
width = 642;
}
);
unicode = 86;
},
{
glyphname = W;
lastChange = "2022-03-30 08:26:38 +0000";
layers = (
{
anchors = (
{
name = bottom;
pos = (474,0);
},
{
name = top;
pos = (545,889);
}
);
background = {
shapes = (
{
closed = 1;
nodes = (
(153,538,o),
(141,210,o),
(174,88,cs),
(196,9,o),
(224,-7,o),
(283,-7,cs),
(307,-7,o),
(335,3,o),
(347,16,c),
(346,23,o),
(345,31,o),
(345,40,cs),
(345,136,o),
(428,321,o),
(504,493,c),
(516,335,o),
(517,168,o),
(539,88,cs),
(561,9,o),
(588,-7,o),
(648,-7,cs),
(667,-7,o),
(699,2,o),
(712,16,c),
(710,23,o),
(709,31,o),
(709,40,cs),
(709,216,o),
(992,695,o),
(992,838,cs),
(992,875,o),
(974,889,o),
(946,889,cs),
(929,889,o),
(897,881,o),
(878,853,c),
(887,838,o),
(890,822,o),
(890,804,cs),
(890,670,o),
(720,351,o),
(644,159,c),
(603,331,o),
(611,650,o),
(580,766,cs),
(571,799,o),
(548,812,o),
(522,812,cs),
(489,812,o),
(452,791,o),
(435,763,c),
(463,748,o),
(478,695,o),
(487,645,c),
(433,492,o),
(333,293,o),
(280,158,c),
(238,330,o),
(247,650,o),
(215,766,cs),
(187,867,o),
(150,889,o),
(92,889,cs),
(73,889,o),
(38,878,o),
(24,853,c),
(67,816,o),
(93,777,o),
(106,725,cs,{
name = hr00;
})
);
}
);
};
layerId = master01;
shapes = (
{
closed = 1;
nodes = (
(307,-7,o),
(335,3,o),
(347,16,c),
(346,23,o),
(345,31,o),
(345,40,cs),
(345,136,o),
(428,321,o),
(504,493,c),
(516,335,o),
(517,168,o),
(539,88,cs),
(561,9,o),
(588,-7,o),
(648,-7,cs),
(667,-7,o),
(699,2,o),
(712,16,c),
(710,23,o),
(709,31,o),
(709,40,cs),
(709,216,o),
(992,695,o),
(992,838,cs),
(992,875,o),
(974,889,o),
(946,889,cs),
(929,889,o),
(897,881,o),
(878,853,c),
(887,838,o),
(890,822,o),
(890,804,cs),
(890,670,o),
(720,351,o),
(644,159,c),
(603,331,o),
(611,650,o),
(580,766,cs),
(571,799,o),
(548,812,o),
(522,812,cs),
(489,812,o),
(452,791,o),
(435,763,c),
(463,748,o),
(478,695,o),
(487,645,c),
(433,492,o),
(333,293,o),
(280,158,c),
(238,330,o),
(247,650,o),
(215,766,cs),
(187,867,o),
(150,889,o),
(92,889,cs),
(73,889,o),
(38,878,o),
(24,853,c),
(67,816,o),
(93,777,o),
(106,725,cs,{
name = hr00;
}),
(153,538,o),
(141,210,o),
(174,88,cs),
(196,9,o),
(224,-7,o),
(283,-7,cs)
);
}
);
width = 948;
}
);
unicode = 87;
},
{
glyphname = Wacute;
lastChange = "2022-03-30 08:15:49 +0000";
layers = (
{
background = {
shapes = (
{
closed = 1;
nodes = (
(153,538,o),
(141,210,o),
(174,88,cs),
(196,9,o),
(224,-7,o),
(283,-7,cs),
(307,-7,o),
(335,3,o),
(347,16,c),
(346,23,o),
(345,31,o),
(345,40,cs),
(345,136,o),
(428,321,o),
(504,493,c),
(516,335,o),
(517,168,o),
(539,88,cs),
(561,9,o),
(588,-7,o),
(648,-7,cs),
(667,-7,o),
(699,2,o),
(712,16,c),
(710,23,o),
(709,31,o),
(709,40,cs),
(709,216,o),
(992,695,o),
(992,838,cs),
(992,875,o),
(974,889,o),
(946,889,cs),
(929,889,o),
(897,881,o),
(878,853,c),
(887,838,o),
(890,822,o),
(890,804,cs),
(890,670,o),
(720,351,o),
(644,159,c),
(603,331,o),
(611,650,o),
(580,766,cs),
(571,799,o),
(548,812,o),
(522,812,cs),
(489,812,o),
(452,791,o),
(435,763,c),
(463,748,o),
(478,695,o),
(487,645,c),
(433,492,o),
(333,293,o),
(280,158,c),
(238,330,o),
(247,650,o),
(215,766,cs),
(187,867,o),
(150,889,o),
(92,889,cs),
(73,889,o),
(38,878,o),
(24,853,c),
(67,816,o),
(93,777,o),
(106,725,cs,{
name = hr00;
})
);
},
{
closed = 1;
nodes = (
(670,1042,o),
(676,1048,o),
(676,1061,cs),
(676,1073,o),
(663,1089,o),
(619,1089,cs),
(606,1089,o),
(591,1088,o),
(572,1084,c),
(555,1053,o),
(521,1021,o),
(412,939,c),
(421,921,o),
(431,911,o),
(439,911,cs),
(459,911,o),
(567,969,o),
(639,1020,cs,{
name = hr00;
})
);
}
);
};
layerId = master01;
shapes = (
{
ref = W;
},
{
pos = (296,0);
ref = acutecomb.case;
}
);
width = 948;
}
);
unicode = 7810;
},
{
glyphname = Wcircumflex;
lastChange = "2022-03-30 08:16:42 +0000";
layers = (
{
background = {
shapes = (
{
closed = 1;
nodes = (
(153,538,o),
(141,210,o),
(174,88,cs),
(196,9,o),
(224,-7,o),
(283,-7,cs),
(307,-7,o),
(335,3,o),
(347,16,c),
(346,23,o),
(345,31,o),
(345,40,cs),
(345,136,o),
(428,321,o),
(504,493,c),
(516,335,o),
(517,168,o),
(539,88,cs),
(561,9,o),
(588,-7,o),
(648,-7,cs),
(667,-7,o),
(699,2,o),
(712,16,c),
(710,23,o),
(709,31,o),
(709,40,cs),
(709,216,o),
(992,695,o),
(992,838,cs),
(992,875,o),
(974,889,o),
(946,889,cs),
(929,889,o),
(897,881,o),
(878,853,c),
(887,838,o),
(890,822,o),
(890,804,cs),
(890,670,o),
(720,351,o),
(644,159,c),
(603,331,o),
(611,650,o),
(580,766,cs),
(571,799,o),
(548,812,o),
(522,812,cs),
(489,812,o),
(452,791,o),
(435,763,c),
(463,748,o),
(478,695,o),
(487,645,c),
(433,492,o),
(333,293,o),
(280,158,c),
(238,330,o),
(247,650,o),
(215,766,cs),
(187,867,o),
(150,889,o),
(92,889,cs),
(73,889,o),
(38,878,o),
(24,853,c),
(67,816,o),
(93,777,o),
(106,725,cs,{
name = hr00;
})
);
},
{
closed = 1;
nodes = (
(710,911,o),
(720,921,o),
(729,939,c),
(666,1001,o),
(629,1065,o),
(620,1078,c),
(609,1086,o),
(589,1089,o),
(569,1089,cs),
(552,1089,o),
(536,1087,o),
(526,1084,c),
(509,1053,o),
(489,1021,o),
(380,939,c),
(390,921,o),
(400,911,o),
(407,911,cs),
(424,911,o),
(501,957,o),
(566,1002,c),
(636,946,o),
(683,911,o),
(702,911,cs,{
name = hr00;
})
);
}
);
};
layerId = master01;
shapes = (
{
ref = W;
},
{
pos = (322,0);
ref = circumflexcomb.case;
}
);
width = 948;
}
);
unicode = 372;
},
{
glyphname = Wdieresis;
lastChange = "2022-03-30 08:24:07 +0000";
layers = (
{
background = {
shapes = (
{
closed = 1;
nodes = (
(153,538,o),
(141,210,o),
(174,88,cs),
(196,9,o),
(224,-7,o),
(283,-7,cs),
(307,-7,o),
(335,3,o),
(347,16,c),
(346,23,o),
(345,31,o),
(345,40,cs),
(345,136,o),
(428,321,o),
(504,493,c),
(516,335,o),
(517,168,o),
(539,88,cs),
(561,9,o),
(588,-7,o),
(648,-7,cs),
(667,-7,o),
(699,2,o),
(712,16,c),
(710,23,o),
(709,31,o),
(709,40,cs),
(709,216,o),
(992,695,o),
(992,838,cs),
(992,875,o),
(974,889,o),
(946,889,cs),
(929,889,o),
(897,881,o),
(878,853,c),
(887,838,o),
(890,822,o),
(890,804,cs),
(890,670,o),
(720,351,o),
(644,159,c),
(603,331,o),
(611,650,o),
(580,766,cs),
(571,799,o),
(548,812,o),
(522,812,cs),
(489,812,o),
(452,791,o),
(435,763,c),
(463,748,o),
(478,695,o),
(487,645,c),
(433,492,o),
(333,293,o),
(280,158,c),
(238,330,o),
(247,650,o),
(215,766,cs),
(187,867,o),
(150,889,o),
(92,889,cs),
(73,889,o),
(38,878,o),
(24,853,c),
(67,816,o),
(93,777,o),
(106,725,cs,{
name = hr00;
})
);
},
{
closed = 1;
nodes = (
(502,1043,o),
(475,1055,o),
(444,1055,cs),
(422,1055,o),
(399,1047,o),
(375,1032,c),
(370,1008,o),
(368,989,o),
(368,975,cs),
(368,943,o),
(382,928,o),
(422,928,cs),
(443,928,o),
(467,936,o),
(491,951,c),
(498,977,o),
(502,997,o),
(502,1012,cs,{
name = hr00;
})
);
},
{
closed = 1;
nodes = (
(736,1043,o),
(709,1055,o),
(678,1055,cs),
(656,1055,o),
(634,1047,o),
(609,1032,c),
(605,1008,o),
(602,989,o),
(602,975,cs),
(602,943,o),
(616,928,o),
(656,928,cs),
(677,928,o),
(701,936,o),
(725,951,c),
(733,977,o),
(736,997,o),
(736,1012,cs)
);
}
);
};
layerId = master01;
shapes = (
{
ref = W;
},
{
pos = (356,0);
ref = dieresiscomb.case;
}
);
width = 948;
}
);
unicode = 7812;
},
{
glyphname = Wgrave;
lastChange = "2022-03-30 08:15:49 +0000";
layers = (
{
background = {
shapes = (
{
closed = 1;
nodes = (
(153,538,o),
(141,210,o),
(174,88,cs),
(196,9,o),
(224,-7,o),
(283,-7,cs),
(307,-7,o),
(335,3,o),
(347,16,c),
(346,23,o),
(345,31,o),
(345,40,cs),
(345,136,o),
(428,321,o),
(504,493,c),
(516,335,o),
(517,168,o),
(539,88,cs),
(561,9,o),
(588,-7,o),
(648,-7,cs),
(667,-7,o),
(699,2,o),
(712,16,c),
(710,23,o),
(709,31,o),
(709,40,cs),
(709,216,o),
(992,695,o),
(992,838,cs),
(992,875,o),
(974,889,o),
(946,889,cs),
(929,889,o),
(897,881,o),
(878,853,c),
(887,838,o),
(890,822,o),
(890,804,cs),
(890,670,o),
(720,351,o),
(644,159,c),
(603,331,o),
(611,650,o),
(580,766,cs),
(571,799,o),
(548,812,o),
(522,812,cs),
(489,812,o),
(452,791,o),
(435,763,c),
(463,748,o),
(478,695,o),
(487,645,c),
(433,492,o),
(333,293,o),
(280,158,c),
(238,330,o),
(247,650,o),
(215,766,cs),
(187,867,o),
(150,889,o),
(92,889,cs),
(73,889,o),
(38,878,o),
(24,853,c),
(67,816,o),
(93,777,o),
(106,725,cs,{
name = hr00;
})
);
},
{
closed = 1;
nodes = (
(503,969,o),
(612,911,o),
(632,911,cs),
(639,911,o),
(649,921,o),
(659,939,c),
(550,1021,o),
(515,1053,o),
(498,1084,c),
(479,1088,o),
(464,1089,o),
(451,1089,cs),
(407,1089,o),
(394,1073,o),
(394,1061,cs),
(394,1048,o),
(400,1042,o),
(431,1020,cs,{
name = hr00;
})
);
}
);
};
layerId = master01;
shapes = (
{
ref = W;
},
{
pos = (260,0);
ref = gravecomb.case;
}
);
width = 948;
}
);
unicode = 7808;
},
{
glyphname = X;
lastChange = "2022-03-30 08:26:38 +0000";
layers = (
{
anchors = (
{
name = bottom;
pos = (319,0);
},
{
name = top;
pos = (319,889);
}
);
background = {
shapes = (
{
closed = 1;
nodes = (
(514,745,o),
(415,580,o),
(333,472,c),
(263,617,o),
(210,768,o),
(200,871,c),
(132,850,o),
(116,825,o),
(116,777,cs),
(116,721,o),
(173,556,o),
(251,392,c),
(141,247,o),
(41,85,o),
(41,43,cs),
(41,0,o),
(59,-13,o),
(86,-13,cs),
(104,-13,o),
(134,-5,o),
(154,18,c),
(149,26,o),
(145,37,o),
(145,53,cs),
(145,101,o),
(213,224,o),
(284,326,c),
(375,148,o),
(486,-13,o),
(570,-13,cs),
(608,-13,o),
(629,8,o),
(638,51,c),
(564,79,o),
(456,233,o),
(365,409,c),
(490,565,o),
(618,765,o),
(618,812,cs),
(618,855,o),
(600,869,o),
(572,869,cs),
(555,869,o),
(524,861,o),
(505,838,c),
(510,830,o),
(514,819,o),
(514,803,cs,{
name = hr00;
})
);
}
);
};
layerId = master01;
shapes = (
{
closed = 1;
nodes = (
(104,-13,o),
(134,-5,o),
(154,18,c),
(149,26,o),
(145,37,o),
(145,53,cs),
(145,101,o),
(213,224,o),
(284,326,c),
(375,148,o),
(486,-13,o),
(570,-13,cs),
(608,-13,o),
(629,8,o),
(638,51,c),
(564,79,o),
(456,233,o),
(365,409,c),
(490,565,o),
(618,765,o),
(618,812,cs),
(618,855,o),
(600,869,o),
(572,869,cs),
(555,869,o),
(524,861,o),
(505,838,c),
(510,830,o),
(514,819,o),
(514,803,cs,{
name = hr00;
}),
(514,745,o),
(415,580,o),
(333,472,c),
(263,617,o),
(210,768,o),
(200,871,c),
(132,850,o),
(116,825,o),
(116,777,cs),
(116,721,o),
(173,556,o),
(251,392,c),
(141,247,o),
(41,85,o),
(41,43,cs),
(41,0,o),
(59,-13,o),
(86,-13,cs)
);
}
);
width = 638;
}
);
unicode = 88;
},
{
glyphname = Y;
lastChange = "2022-03-30 08:50:18 +0000";
layers = (
{
anchors = (
{
name = bottom;
pos = (276,0);
},
{
name = top;
pos = (348,889);
},
{
name = topleft;
pos = (20,889);
}
);
background = {
shapes = (
{
closed = 1;
nodes = (
(484,701,o),
(381,581,o),
(302,419,c),
(273,555,o),
(227,729,o),
(208,785,cs),
(181,861,o),
(145,889,o),
(111,889,cs),
(87,889,o),
(44,874,o),
(27,823,c),
(113,823,o),
(181,544,o),
(228,309,c),
(215,228,o),
(205,159,o),
(205,118,cs),
(205,23,o),
(234,-7,o),
(280,-7,cs),
(296,-7,o),
(325,0,o),
(350,29,c),
(320,62,o),
(314,107,o),
(314,155,cs),
(314,198,o),
(319,250,o),
(326,306,c),
(333,344,o),
(342,367,o),
(370,414,cs),
(454,556,o),
(591,774,o),
(591,837,cs),
(591,872,o),
(573,885,o),
(546,885,cs),
(529,885,o),
(494,877,o),
(474,849,c),
(482,834,o),
(484,818,o),
(484,800,cs,{
name = hr00;
})
);
}
);
};
layerId = master01;
shapes = (
{
closed = 1;
nodes = (
(296,-7,o),
(325,0,o),
(350,29,c),
(320,62,o),
(314,107,o),
(314,155,cs),
(314,198,o),
(319,250,o),
(326,306,c),
(333,344,o),
(342,367,o),
(370,414,cs),
(454,556,o),
(591,774,o),
(591,837,cs),
(591,872,o),
(573,885,o),
(546,885,cs),
(529,885,o),
(494,877,o),
(474,849,c),
(482,834,o),
(484,818,o),
(484,800,cs,{
name = hr00;
}),
(484,701,o),
(381,581,o),
(302,419,c),
(273,555,o),
(227,729,o),
(208,785,cs),
(181,861,o),
(145,889,o),
(111,889,cs),
(87,889,o),
(44,874,o),
(27,823,c),
(113,823,o),
(181,544,o),
(228,309,c),
(215,228,o),
(205,159,o),
(205,118,cs),
(205,23,o),
(234,-7,o),
(280,-7,cs)
);
}
);
width = 552;
}
);
unicode = 89;
},
{
glyphname = Yacute;
lastChange = "2022-03-30 08:50:18 +0000";
layers = (
{
background = {
shapes = (
{
closed = 1;
nodes = (
(484,701,o),
(381,581,o),
(302,419,c),
(273,555,o),
(227,729,o),
(208,785,cs),
(181,861,o),
(145,889,o),
(111,889,cs),
(87,889,o),
(44,874,o),
(27,823,c),
(113,823,o),
(181,544,o),
(228,309,c),
(215,228,o),
(205,159,o),
(205,118,cs),
(205,23,o),
(234,-7,o),
(280,-7,cs),
(296,-7,o),
(325,0,o),
(350,29,c),
(320,62,o),
(314,107,o),
(314,155,cs),
(314,198,o),
(319,250,o),
(326,306,c),
(333,344,o),
(342,367,o),
(370,414,cs),
(454,556,o),
(591,774,o),
(591,837,cs),
(591,872,o),
(573,885,o),
(546,885,cs),
(529,885,o),
(494,877,o),
(474,849,c),
(482,834,o),
(484,818,o),
(484,800,cs)
);
},
{
closed = 1;
nodes = (
(504,1042,o),
(510,1048,o),
(510,1061,cs),
(510,1073,o),
(497,1089,o),
(453,1089,cs),
(440,1089,o),
(425,1088,o),
(406,1084,c),
(389,1053,o),
(355,1021,o),
(246,939,c),
(255,921,o),
(265,911,o),
(273,911,cs),
(293,911,o),
(401,969,o),
(473,1020,cs)
);
},
{
closed = 1;
nodes = (
(484,701,o),
(381,581,o),
(302,419,c),
(273,555,o),
(227,729,o),
(208,785,cs),
(181,861,o),
(145,889,o),
(111,889,cs),
(87,889,o),
(44,874,o),
(27,823,c),
(113,823,o),
(181,544,o),
(228,309,c),
(215,228,o),
(205,159,o),
(205,118,cs),
(205,23,o),
(234,-7,o),
(280,-7,cs),
(296,-7,o),
(325,0,o),
(350,29,c),
(320,62,o),
(314,107,o),
(314,155,cs),
(314,198,o),
(319,250,o),
(326,306,c),
(333,344,o),
(342,367,o),
(370,414,cs),
(454,556,o),
(591,774,o),
(591,837,cs),
(591,872,o),
(573,885,o),
(546,885,cs),
(529,885,o),
(494,877,o),
(474,849,c),
(482,834,o),
(484,818,o),
(484,800,cs,{
name = hr00;
})
);
},
{
closed = 1;
nodes = (
(504,1042,o),
(510,1048,o),
(510,1061,cs),
(510,1073,o),
(497,1089,o),
(453,1089,cs),
(440,1089,o),
(425,1088,o),
(406,1084,c),
(389,1053,o),
(355,1021,o),
(246,939,c),
(255,921,o),
(265,911,o),
(273,911,cs),
(293,911,o),
(401,969,o),
(473,1020,cs,{
name = hr00;
})
);
}
);
};
layerId = master01;
shapes = (
{
ref = Y;
},
{
pos = (99,0);
ref = acutecomb.case;
}
);
width = 552;
}
);
unicode = 221;
},
{
glyphname = Ycircumflex;
lastChange = "2022-03-30 08:50:19 +0000";
layers = (
{
background = {
shapes = (
{
closed = 1;
nodes = (
(484,701,o),
(381,581,o),
(302,419,c),
(273,555,o),
(227,729,o),
(208,785,cs),
(181,861,o),
(145,889,o),
(111,889,cs),
(87,889,o),
(44,874,o),
(27,823,c),
(113,823,o),
(181,544,o),
(228,309,c),
(215,228,o),
(205,159,o),
(205,118,cs),
(205,23,o),
(234,-7,o),
(280,-7,cs),
(296,-7,o),
(325,0,o),
(350,29,c),
(320,62,o),
(314,107,o),
(314,155,cs),
(314,198,o),
(319,250,o),
(326,306,c),
(333,344,o),
(342,367,o),
(370,414,cs),
(454,556,o),
(591,774,o),
(591,837,cs),
(591,872,o),
(573,885,o),
(546,885,cs),
(529,885,o),
(494,877,o),
(474,849,c),
(482,834,o),
(484,818,o),
(484,800,cs,{
name = hr00;
})
);
},
{
closed = 1;
nodes = (
(496,911,o),
(506,921,o),
(515,939,c),
(452,1001,o),
(415,1065,o),
(406,1078,c),
(395,1086,o),
(375,1089,o),
(355,1089,cs),
(338,1089,o),
(322,1087,o),
(312,1084,c),
(295,1053,o),
(275,1021,o),
(166,939,c),
(176,921,o),
(186,911,o),
(193,911,cs),
(210,911,o),
(287,957,o),
(352,1002,c),
(422,946,o),
(469,911,o),
(488,911,cs,{
name = hr00;
})
);
}
);
};
layerId = master01;
shapes = (
{
ref = Y;
},
{
pos = (125,0);
ref = circumflexcomb.case;
}
);
width = 552;
}
);
unicode = 374;
},
